<svg width="264" height="78" viewBox="0 0 264 78" fill="none" xmlns="http://www.w3.org/2000/svg">
<path d="M263.033 71.1533V69.8452C262.254 69.8452 261.623 69.382 261.623 68.8097C261.623 68.2374 262.254 67.7759 263.033 67.7759V66.4679C262.254 66.4679 261.623 66.0046 261.623 65.4323C261.623 64.8601 262.254 64.3985 263.033 64.3985V63.0905C262.254 63.0905 261.623 62.6272 261.623 62.0549C261.623 61.4827 262.254 61.0211 263.033 61.0211V59.7131C262.254 59.7131 261.623 59.2498 261.623 58.6793C261.623 58.1087 262.254 57.6437 263.033 57.6437V56.3357C262.254 56.3357 261.623 55.8724 261.623 55.3019C261.623 54.7313 262.254 54.2664 263.033 54.2664V52.9583C262.254 52.9583 261.623 52.4951 261.623 51.9228C261.623 51.3505 262.254 50.8873 263.033 50.8873V49.5792C262.254 49.5792 261.623 49.116 261.623 48.5454C261.623 47.9749 262.254 47.5099 263.033 47.5099V46.2019C262.254 46.2019 261.623 45.7386 261.623 45.1663C261.623 44.5941 262.254 44.1325 263.033 44.1325V42.8245C262.254 42.8245 261.623 42.3612 261.623 41.7889C261.623 41.2167 262.254 40.7551 263.033 40.7551V39.4471C262.254 39.4471 261.623 38.9838 261.623 38.4116C261.623 37.8393 262.254 37.3777 263.033 37.3777V36.0697C262.254 36.0697 261.623 35.6064 261.623 35.0359C261.623 34.4653 262.254 34.0004 263.033 34.0004V32.6923C262.254 32.6923 261.623 32.2291 261.623 31.6585C261.623 31.0879 262.254 30.623 263.033 30.623V29.3149C262.254 29.3149 261.623 28.8517 261.623 28.2794C261.623 27.7072 262.254 27.2456 263.033 27.2456V25.9376C262.254 25.9376 261.623 25.4743 261.623 24.9037C261.623 24.3332 262.254 23.8682 263.033 23.8682V22.5602C262.254 22.5602 261.623 22.0969 261.623 21.5246C261.623 20.9524 262.254 20.4908 263.033 20.4908V19.1828C262.254 19.1828 261.623 18.7195 261.623 18.1473C261.623 17.575 262.254 17.1117 263.033 17.1117V15.8037C262.254 15.8037 261.623 15.3404 261.623 14.7699C261.623 14.1993 262.254 13.7361 263.033 13.7361V12.428C262.254 12.428 261.623 11.9648 261.623 11.3942C261.623 10.8236 262.254 10.3604 263.033 10.3604V9.05234C262.254 9.05234 261.623 8.58908 261.623 8.01852C261.623 7.44796 262.254 6.9847 263.033 6.9847V6.43117C258.193 6.43117 254.272 3.55111 254.272 0H89.9276C89.9508 0.0749394 89.9647 0.151578 89.9647 0.229924C89.9647 0.802188 89.3336 1.26375 88.554 1.26375C87.7744 1.26375 87.1457 0.800485 87.1457 0.229924C87.1457 0.149875 87.1596 0.0732362 87.1828 0H8.76121C8.76121 3.20025 5.57783 5.85379 1.40837 6.34771C1.39677 6.91146 0.770318 7.3662 0 7.3662V8.67424C0.779599 8.67424 1.41069 9.1375 1.41069 9.70977C1.41069 10.282 0.779599 10.7436 0 10.7436V12.0516C0.779599 12.0516 1.41069 12.5149 1.41069 13.0854C1.41069 13.656 0.779599 14.1193 0 14.1193V15.4273C0.779599 15.4273 1.41069 15.8906 1.41069 16.4611C1.41069 17.0317 0.779599 17.495 0 17.495V18.803C0.779599 18.803 1.41069 19.2662 1.41069 19.8385C1.41069 20.4108 0.779599 20.874 0 20.874V22.1821C0.779599 22.1821 1.41069 22.6453 1.41069 23.2176C1.41069 23.7898 0.779599 24.2514 0 24.2514V25.5594C0.779599 25.5594 1.41069 26.0227 1.41069 26.595C1.41069 27.1672 0.779599 27.6288 0 27.6288V28.9368C0.779599 28.9368 1.41069 29.4001 1.41069 29.9707C1.41069 30.5412 0.779599 31.0062 0 31.0062V32.3142C0.779599 32.3142 1.41069 32.7775 1.41069 33.348C1.41069 33.9186 0.779599 34.3836 0 34.3836V35.6916C0.779599 35.6916 1.41069 36.1549 1.41069 36.7254C1.41069 37.296 0.779599 37.7609 0 37.7609V39.069C0.779599 39.069 1.41069 39.5322 1.41069 40.1028C1.41069 40.6734 0.779599 41.1383 0 41.1383V42.4464C0.779599 42.4464 1.41069 42.9096 1.41069 43.4802C1.41069 44.0508 0.779599 44.5157 0 44.5157V45.8238C0.779599 45.8238 1.41069 46.287 1.41069 46.8593C1.41069 47.4315 0.779599 47.8948 0 47.8948V49.2028C0.779599 49.2028 1.41069 49.6661 1.41069 50.2384C1.41069 50.8106 0.779599 51.2739 0 51.2739V52.5819C0.779599 52.5819 1.41069 53.0452 1.41069 53.6175C1.41069 54.1897 0.779599 54.653 0 54.653V55.961C0.779599 55.961 1.41069 56.4243 1.41069 56.9965C1.41069 57.5688 0.779599 58.0304 0 58.0304V59.3384C0.779599 59.3384 1.41069 59.8016 1.41069 60.3722C1.41069 60.9428 0.779599 61.4077 0 61.4077V62.7158C0.779599 62.7158 1.41069 63.179 1.41069 63.7513C1.41069 64.3236 0.779599 64.7851 0 64.7851V66.0932C0.779599 66.0932 1.41069 66.5564 1.41069 67.127C1.41069 67.6975 0.779599 68.1625 0 68.1625V69.4705C0.779599 69.4705 1.41069 69.9338 1.41069 70.5061C1.41069 71.0783 0.779599 71.5416 0 71.5416V71.5688C4.84001 71.5688 8.76121 74.4489 8.76121 78H87.1526C87.1503 77.971 87.1457 77.9438 87.1457 77.9148C87.1457 77.3426 87.7767 76.881 88.554 76.881C89.3313 76.881 89.9647 77.3443 89.9647 77.9148C89.9647 77.9438 89.9624 77.9727 89.9578 78H254.272C254.272 74.7418 257.574 72.0508 261.855 71.6285C262.108 71.3474 262.539 71.1601 263.033 71.1601V71.1533ZM88.5517 75.5645C87.7721 75.5645 87.1433 75.1012 87.1433 74.5289C87.1433 73.9567 87.7744 73.4934 88.5517 73.4934C89.329 73.4934 89.9624 73.9567 89.9624 74.5289C89.9624 75.1012 89.3313 75.5645 88.5517 75.5645ZM88.5517 72.1871C87.7721 72.1871 87.1433 71.7238 87.1433 71.1516C87.1433 70.5793 87.7744 70.1178 88.5517 70.1178C89.329 70.1178 89.9624 70.581 89.9624 71.1516C89.9624 71.7221 89.3313 72.1871 88.5517 72.1871ZM88.5517 68.8097C87.7721 68.8097 87.1433 68.3465 87.1433 67.7759C87.1433 67.2053 87.7744 66.7404 88.5517 66.7404C89.329 66.7404 89.9624 67.2036 89.9624 67.7759C89.9624 68.3482 89.3313 68.8097 88.5517 68.8097ZM88.5517 65.434C87.7721 65.434 87.1433 64.9708 87.1433 64.4002C87.1433 63.8296 87.7744 63.3647 88.5517 63.3647C89.329 63.3647 89.9624 63.8279 89.9624 64.4002C89.9624 64.9725 89.3313 65.434 88.5517 65.434ZM88.5517 62.0566C87.7721 62.0566 87.1433 61.5934 87.1433 61.0228C87.1433 60.4523 87.7744 59.9873 88.5517 59.9873C89.329 59.9873 89.9624 60.4506 89.9624 61.0228C89.9624 61.5951 89.3313 62.0566 88.5517 62.0566ZM88.5517 58.6793C87.7721 58.6793 87.1433 58.216 87.1433 57.6437C87.1433 57.0715 87.7744 56.6082 88.5517 56.6082C89.329 56.6082 89.9624 57.0715 89.9624 57.6437C89.9624 58.216 89.3313 58.6793 88.5517 58.6793ZM88.5517 55.3019C87.7721 55.3019 87.1433 54.8386 87.1433 54.2664C87.1433 53.6941 87.7744 53.2308 88.5517 53.2308C89.329 53.2308 89.9624 53.6941 89.9624 54.2664C89.9624 54.8386 89.3313 55.3019 88.5517 55.3019ZM88.5517 51.9245C87.7721 51.9245 87.1433 51.4612 87.1433 50.889C87.1433 50.3167 87.7744 49.8534 88.5517 49.8534C89.329 49.8534 89.9624 50.3167 89.9624 50.889C89.9624 51.4612 89.3313 51.9245 88.5517 51.9245ZM88.5517 48.5488C87.7721 48.5488 87.1433 48.0855 87.1433 47.5133C87.1433 46.941 87.7744 46.4795 88.5517 46.4795C89.329 46.4795 89.9624 46.9427 89.9624 47.5133C89.9624 48.0838 89.3313 48.5488 88.5517 48.5488ZM88.5517 45.1714C87.7721 45.1714 87.1433 44.7082 87.1433 44.1376C87.1433 43.5671 87.7744 43.1021 88.5517 43.1021C89.329 43.1021 89.9624 43.5654 89.9624 44.1376C89.9624 44.7099 89.3313 45.1714 88.5517 45.1714ZM88.5517 41.7941C87.7721 41.7941 87.1433 41.3308 87.1433 40.7602C87.1433 40.1897 87.7744 39.7247 88.5517 39.7247C89.329 39.7247 89.9624 40.188 89.9624 40.7602C89.9624 41.3325 89.3313 41.7941 88.5517 41.7941ZM88.5517 38.4167C87.7721 38.4167 87.1433 37.9534 87.1433 37.3828C87.1433 36.8123 87.7744 36.3473 88.5517 36.3473C89.329 36.3473 89.9624 36.8106 89.9624 37.3828C89.9624 37.9551 89.3313 38.4167 88.5517 38.4167ZM88.5517 35.0393C87.7721 35.0393 87.1433 34.576 87.1433 34.0038C87.1433 33.4315 87.7744 32.9682 88.5517 32.9682C89.329 32.9682 89.9624 33.4315 89.9624 34.0038C89.9624 34.576 89.3313 35.0393 88.5517 35.0393ZM88.5517 31.6619C87.7721 31.6619 87.1433 31.1986 87.1433 30.6264C87.1433 30.0541 87.7744 29.5908 88.5517 29.5908C89.329 29.5908 89.9624 30.0541 89.9624 30.6264C89.9624 31.1986 89.3313 31.6619 88.5517 31.6619ZM88.5517 28.2862C87.7721 28.2862 87.1433 27.823 87.1433 27.2524C87.1433 26.6818 87.7744 26.2169 88.5517 26.2169C89.329 26.2169 89.9624 26.6801 89.9624 27.2524C89.9624 27.8247 89.3313 28.2862 88.5517 28.2862ZM88.5517 24.9088C87.7721 24.9088 87.1433 24.4456 87.1433 23.8733C87.1433 23.3011 87.7744 22.8395 88.5517 22.8395C89.329 22.8395 89.9624 23.3028 89.9624 23.8733C89.9624 24.4439 89.3313 24.9088 88.5517 24.9088ZM88.5517 21.5315C87.7721 21.5315 87.1433 21.0682 87.1433 20.4976C87.1433 19.9271 87.7744 19.4621 88.5517 19.4621C89.329 19.4621 89.9624 19.9254 89.9624 20.4976C89.9624 21.0699 89.3313 21.5315 88.5517 21.5315ZM88.5517 18.1541C87.7721 18.1541 87.1433 17.6908 87.1433 17.1185C87.1433 16.5463 87.7744 16.0847 88.5517 16.0847C89.329 16.0847 89.9624 16.548 89.9624 17.1185C89.9624 17.6891 89.3313 18.1541 88.5517 18.1541ZM88.5517 14.7767C87.7721 14.7767 87.1433 14.3134 87.1433 13.7429C87.1433 13.1723 87.7744 12.709 88.5517 12.709C89.329 12.709 89.9624 13.1723 89.9624 13.7429C89.9624 14.3134 89.3313 14.7767 88.5517 14.7767ZM88.5517 11.401C87.7721 11.401 87.1433 10.9377 87.1433 10.3672C87.1433 9.79662 87.7744 9.33166 88.5517 9.33166C89.329 9.33166 89.9624 9.79492 89.9624 10.3672C89.9624 10.9395 89.3313 11.401 88.5517 11.401ZM88.5517 8.02362C87.7721 8.02362 87.1433 7.56036 87.1433 6.9898C87.1433 6.41924 87.7744 5.95428 88.5517 5.95428C89.329 5.95428 89.9624 6.41754 89.9624 6.9898C89.9624 7.56206 89.3313 8.02362 88.5517 8.02362ZM88.5517 4.64625C87.7721 4.64625 87.1433 4.18298 87.1433 3.61072C87.1433 3.03845 87.7744 2.57689 88.5517 2.57689C89.329 2.57689 89.9624 3.04016 89.9624 3.61072C89.9624 4.18128 89.3313 4.64625 88.5517 4.64625Z" fill="url(#paint0_linear_353_86)"/>
<g clip-path="url(#clip0_353_86)">
<path d="M114.219 25.2898V17.6945C114.219 17.3018 114.063 16.9253 113.786 16.6476C113.508 16.3699 113.132 16.214 112.739 16.214H110.888C110.79 16.214 110.696 16.253 110.626 16.3224C110.557 16.3918 110.518 16.4859 110.518 16.5841V18.4348C110.519 18.5707 110.482 18.7042 110.411 18.8206C110.341 18.9369 110.24 19.0317 110.119 19.0944C109.999 19.1572 109.863 19.1855 109.728 19.1763C109.592 19.1671 109.462 19.1207 109.351 19.0423C109.239 18.9638 109.152 18.8563 109.098 18.7315C109.044 18.6067 109.026 18.4695 109.045 18.3348C109.064 18.2002 109.119 18.0734 109.205 17.9682C109.292 17.8631 109.405 17.7838 109.533 17.7389C109.605 17.7131 109.667 17.6658 109.711 17.6035C109.754 17.5413 109.778 17.4671 109.778 17.391V15.1035C109.778 15.0054 109.739 14.9112 109.669 14.8418C109.6 14.7724 109.506 14.7334 109.408 14.7334C109.309 14.7334 109.215 14.7724 109.146 14.8418C109.076 14.9112 109.037 15.0054 109.037 15.1035V16.214H103.485C103.387 16.214 103.293 16.253 103.224 16.3224C103.154 16.3918 103.115 16.4859 103.115 16.5841V18.4348C103.116 18.5707 103.079 18.7042 103.009 18.8206C102.938 18.9369 102.837 19.0317 102.717 19.0944C102.596 19.1572 102.461 19.1855 102.325 19.1763C102.189 19.1671 102.059 19.1207 101.948 19.0423C101.837 18.9638 101.749 18.8563 101.695 18.7315C101.642 18.6067 101.623 18.4695 101.642 18.3348C101.661 18.2002 101.716 18.0734 101.803 17.9682C101.889 17.8631 102.002 17.7838 102.131 17.7389C102.202 17.7131 102.264 17.6658 102.308 17.6035C102.351 17.5413 102.375 17.4671 102.375 17.391V15.1035C102.375 15.0054 102.336 14.9112 102.267 14.8418C102.197 14.7724 102.103 14.7334 102.005 14.7334C101.907 14.7334 101.813 14.7724 101.743 14.8418C101.674 14.9112 101.635 15.0054 101.635 15.1035V16.214H99.4139C99.0212 16.214 98.6446 16.3699 98.367 16.6476C98.0893 16.9253 97.9333 17.3018 97.9333 17.6945V29.539C97.9333 29.9316 98.0893 30.3082 98.367 30.5859C98.6446 30.8635 99.0212 31.0195 99.4139 31.0195H108.49C108.85 31.4594 109.299 31.819 109.806 32.075C110.314 32.3311 110.87 32.4779 111.438 32.5061C112.006 32.5342 112.573 32.4431 113.104 32.2386C113.634 32.034 114.116 31.7206 114.518 31.3185C114.921 30.9164 115.234 30.4346 115.438 29.904C115.643 29.3734 115.734 28.8058 115.706 28.2378C115.678 27.6699 115.531 27.1141 115.275 26.6064C115.019 26.0986 114.659 25.6501 114.219 25.2898ZM107.557 28.4285C107.557 28.8041 107.609 29.1778 107.712 29.539H99.4139V20.6556H112.739V24.5125C112.133 24.3392 111.496 24.3091 110.876 24.4245C110.257 24.5399 109.673 24.7977 109.171 25.1775C108.668 25.5572 108.261 26.0486 107.981 26.6128C107.701 27.177 107.556 27.7986 107.557 28.4285ZM112.998 29.7981C112.964 29.8327 112.923 29.8603 112.878 29.8791C112.832 29.8979 112.784 29.9075 112.735 29.9075C112.686 29.9075 112.638 29.8979 112.593 29.8791C112.548 29.8603 112.507 29.8327 112.472 29.7981L111.362 28.6876C111.295 28.6181 111.258 28.5251 111.258 28.4285V26.2077C111.258 26.1095 111.297 26.0154 111.367 25.946C111.436 25.8766 111.53 25.8376 111.628 25.8376C111.727 25.8376 111.821 25.8766 111.89 25.946C111.96 26.0154 111.999 26.1095 111.999 26.2077V28.2731L112.998 29.2725C113.033 29.3069 113.06 29.3478 113.079 29.3929C113.098 29.438 113.107 29.4864 113.107 29.5353C113.107 29.5841 113.098 29.6325 113.079 29.6776C113.06 29.7227 113.033 29.7636 112.998 29.7981Z" fill="url(#paint1_linear_353_86)"/>
</g>
<rect x="120.033" y="13.4333" width="133.033" height="21.2333" fill="url(#paint2_linear_353_86)"/>
<rect x="120.033" y="45.5" width="133.033" height="21.2333" fill="url(#paint3_linear_353_86)"/>
<path d="M132.579 51.2339V52.9121H130.301V59.8334H128.206V52.9121H125.927V51.2339H132.579ZM140.074 56.3054C140.074 56.5014 140.062 56.7055 140.037 56.9179H135.296C135.329 57.3425 135.464 57.6692 135.701 57.8979C135.946 58.1184 136.244 58.2286 136.595 58.2286C137.118 58.2286 137.481 58.0081 137.685 57.5671H139.915C139.8 58.0163 139.592 58.4205 139.29 58.7799C138.996 59.1392 138.624 59.421 138.175 59.6251C137.726 59.8293 137.224 59.9314 136.668 59.9314C135.999 59.9314 135.403 59.7885 134.88 59.5026C134.357 59.2168 133.949 58.8085 133.655 58.2776C133.361 57.7468 133.214 57.1261 133.214 56.4156C133.214 55.7051 133.357 55.0845 133.643 54.5536C133.937 54.0228 134.345 53.6145 134.868 53.3286C135.39 53.0428 135.991 52.8999 136.668 52.8999C137.33 52.8999 137.918 53.0387 138.432 53.3164C138.947 53.594 139.347 53.9901 139.633 54.5046C139.927 55.0191 140.074 55.6194 140.074 56.3054ZM137.93 55.7541C137.93 55.3948 137.808 55.109 137.563 54.8966C137.318 54.6843 137.011 54.5781 136.644 54.5781C136.293 54.5781 135.995 54.6802 135.75 54.8844C135.513 55.0885 135.366 55.3785 135.309 55.7541H137.93ZM140.762 56.4034C140.762 55.701 140.893 55.0845 141.154 54.5536C141.424 54.0228 141.787 53.6145 142.245 53.3286C142.702 53.0428 143.212 52.8999 143.776 52.8999C144.258 52.8999 144.678 52.9979 145.038 53.1939C145.405 53.3899 145.687 53.6471 145.883 53.9656V52.9979H147.978V59.8334H145.883V58.8656C145.679 59.1841 145.393 59.4414 145.025 59.6374C144.666 59.8334 144.246 59.9314 143.764 59.9314C143.208 59.9314 142.702 59.7885 142.245 59.5026C141.787 59.2086 141.424 58.7962 141.154 58.2654C140.893 57.7264 140.762 57.1057 140.762 56.4034ZM145.883 56.4156C145.883 55.893 145.736 55.4805 145.442 55.1784C145.156 54.8762 144.805 54.7251 144.388 54.7251C143.972 54.7251 143.617 54.8762 143.323 55.1784C143.037 55.4724 142.894 55.8807 142.894 56.4034C142.894 56.926 143.037 57.3425 143.323 57.6529C143.617 57.955 143.972 58.1061 144.388 58.1061C144.805 58.1061 145.156 57.955 145.442 57.6529C145.736 57.3507 145.883 56.9383 145.883 56.4156ZM153.303 58.0571V59.8334H152.237C151.478 59.8334 150.886 59.6496 150.461 59.2821C150.036 58.9065 149.824 58.298 149.824 57.4569V54.7374H148.991V52.9979H149.824V51.3319H151.919V52.9979H153.291V54.7374H151.919V57.4814C151.919 57.6855 151.968 57.8325 152.066 57.9224C152.164 58.0122 152.327 58.0571 152.556 58.0571H153.303ZM160.913 56.3054C160.913 56.5014 160.901 56.7055 160.876 56.9179H156.136C156.168 57.3425 156.303 57.6692 156.54 57.8979C156.785 58.1184 157.083 58.2286 157.434 58.2286C157.957 58.2286 158.32 58.0081 158.524 57.5671H160.754C160.64 58.0163 160.431 58.4205 160.129 58.7799C159.835 59.1392 159.464 59.421 159.014 59.6251C158.565 59.8293 158.063 59.9314 157.508 59.9314C156.838 59.9314 156.242 59.7885 155.719 59.5026C155.197 59.2168 154.788 58.8085 154.494 58.2776C154.2 57.7468 154.053 57.1261 154.053 56.4156C154.053 55.7051 154.196 55.0845 154.482 54.5536C154.776 54.0228 155.184 53.6145 155.707 53.3286C156.23 53.0428 156.83 52.8999 157.508 52.8999C158.169 52.8999 158.757 53.0387 159.272 53.3164C159.786 53.594 160.186 53.9901 160.472 54.5046C160.766 55.0191 160.913 55.6194 160.913 56.3054ZM158.769 55.7541C158.769 55.3948 158.647 55.109 158.402 54.8966C158.157 54.6843 157.851 54.5781 157.483 54.5781C157.132 54.5781 156.834 54.6802 156.589 54.8844C156.352 55.0885 156.205 55.3785 156.148 55.7541H158.769ZM164.113 54.1371C164.358 53.7615 164.664 53.4675 165.032 53.2551C165.399 53.0346 165.808 52.9244 166.257 52.9244V55.1416H165.681C165.158 55.1416 164.766 55.256 164.505 55.4846C164.244 55.7051 164.113 56.0971 164.113 56.6606V59.8334H162.018V52.9979H164.113V54.1371ZM175.207 58.3144H171.998L171.483 59.8334H169.291L172.402 51.2339H174.828L177.939 59.8334H175.722L175.207 58.3144ZM174.668 56.6974L173.603 53.5491L172.549 56.6974H174.668Z" fill="white"/>
<path d="M129.504 28.7191C128.875 28.7191 128.312 28.617 127.814 28.4128C127.316 28.2086 126.915 27.9065 126.613 27.5063C126.319 27.1061 126.164 26.6243 126.148 26.0608H128.377C128.41 26.3793 128.52 26.6243 128.708 26.7958C128.896 26.9591 129.141 27.0408 129.443 27.0408C129.753 27.0408 129.998 26.9714 130.178 26.8326C130.358 26.6856 130.448 26.4855 130.448 26.2323C130.448 26.02 130.374 25.8444 130.227 25.7056C130.088 25.5667 129.913 25.4524 129.7 25.3626C129.496 25.2727 129.202 25.1706 128.818 25.0563C128.263 24.8848 127.81 24.7133 127.459 24.5418C127.107 24.3703 126.805 24.1171 126.552 23.7823C126.299 23.4475 126.172 23.0106 126.172 22.4716C126.172 21.6712 126.462 21.0465 127.042 20.5973C127.622 20.14 128.377 19.9113 129.308 19.9113C130.256 19.9113 131.019 20.14 131.599 20.5973C132.179 21.0465 132.489 21.6753 132.53 22.4838H130.264C130.247 22.2061 130.145 21.9897 129.958 21.8346C129.77 21.6712 129.529 21.5895 129.235 21.5895C128.982 21.5895 128.777 21.659 128.622 21.7978C128.467 21.9285 128.39 22.1204 128.39 22.3735C128.39 22.6512 128.52 22.8676 128.782 23.0228C129.043 23.178 129.451 23.3454 130.007 23.5251C130.562 23.7129 131.011 23.8926 131.354 24.0641C131.705 24.2356 132.007 24.4846 132.261 24.8113C132.514 25.138 132.64 25.5586 132.64 26.0731C132.64 26.5631 132.514 27.0081 132.261 27.4083C132.016 27.8085 131.656 28.127 131.183 28.3638C130.709 28.6006 130.149 28.7191 129.504 28.7191ZM133.513 25.2033C133.513 24.501 133.644 23.8844 133.905 23.3536C134.174 22.8227 134.538 22.4144 134.995 22.1286C135.453 21.8427 135.963 21.6998 136.526 21.6998C137.008 21.6998 137.429 21.7978 137.788 21.9938C138.156 22.1898 138.437 22.4471 138.633 22.7655V21.7978H140.728V28.6333H138.633V27.6656C138.429 27.9841 138.143 28.2413 137.776 28.4373C137.417 28.6333 136.996 28.7313 136.514 28.7313C135.959 28.7313 135.453 28.5884 134.995 28.3026C134.538 28.0086 134.174 27.5961 133.905 27.0653C133.644 26.5263 133.513 25.9056 133.513 25.2033ZM138.633 25.2156C138.633 24.6929 138.486 24.2805 138.192 23.9783C137.907 23.6761 137.555 23.5251 137.139 23.5251C136.722 23.5251 136.367 23.6761 136.073 23.9783C135.787 24.2723 135.644 24.6806 135.644 25.2033C135.644 25.726 135.787 26.1425 136.073 26.4528C136.367 26.755 136.722 26.9061 137.139 26.9061C137.555 26.9061 137.907 26.755 138.192 26.4528C138.486 26.1506 138.633 25.7382 138.633 25.2156ZM144.338 22.7655C144.534 22.4471 144.816 22.1898 145.184 21.9938C145.551 21.7978 145.972 21.6998 146.445 21.6998C147.009 21.6998 147.519 21.8427 147.977 22.1286C148.434 22.4144 148.793 22.8227 149.055 23.3536C149.324 23.8844 149.459 24.501 149.459 25.2033C149.459 25.9056 149.324 26.5263 149.055 27.0653C148.793 27.5961 148.434 28.0086 147.977 28.3026C147.519 28.5884 147.009 28.7313 146.445 28.7313C145.964 28.7313 145.543 28.6374 145.184 28.4496C144.824 28.2536 144.543 27.9963 144.338 27.6778V28.6333H142.244V19.5683H144.338V22.7655ZM147.327 25.2033C147.327 24.6806 147.18 24.2723 146.886 23.9783C146.601 23.6761 146.245 23.5251 145.821 23.5251C145.404 23.5251 145.049 23.6761 144.755 23.9783C144.469 24.2805 144.326 24.6929 144.326 25.2156C144.326 25.7382 144.469 26.1506 144.755 26.4528C145.049 26.755 145.404 26.9061 145.821 26.9061C146.237 26.9061 146.592 26.755 146.886 26.4528C147.18 26.1425 147.327 25.726 147.327 25.2033ZM154.368 26.8571V28.6333H153.302C152.542 28.6333 151.95 28.4496 151.526 28.0821C151.101 27.7064 150.889 27.098 150.889 26.2568V23.5373H150.056V21.7978H150.889V20.1318H152.983V21.7978H154.355V23.5373H152.983V26.2813C152.983 26.4855 153.032 26.6325 153.13 26.7223C153.228 26.8121 153.392 26.8571 153.62 26.8571H154.368ZM162.284 21.7978V28.6333H160.189V27.7023C159.977 28.0045 159.687 28.2495 159.32 28.4373C158.96 28.617 158.56 28.7068 158.119 28.7068C157.597 28.7068 157.135 28.5925 156.735 28.3638C156.335 28.127 156.024 27.7881 155.804 27.3471C155.583 26.9061 155.473 26.3875 155.473 25.7913V21.7978H157.556V25.5096C157.556 25.9669 157.674 26.3221 157.911 26.5753C158.148 26.8285 158.466 26.9551 158.866 26.9551C159.275 26.9551 159.597 26.8285 159.834 26.5753C160.071 26.3221 160.189 25.9669 160.189 25.5096V21.7978H162.284ZM166.043 26.6978L164.683 30.2136H163.348L164.058 26.6978H166.043ZM169.473 21.6385V19.6908H172.866V28.6333H170.686V21.6385H169.473ZM178.722 22.104C178.656 21.8019 178.542 21.5773 178.379 21.4303C178.215 21.2751 177.982 21.1975 177.68 21.1975C177.215 21.1975 176.88 21.4017 176.676 21.81C176.472 22.2102 176.365 22.8472 176.357 23.7211C176.537 23.4352 176.794 23.2106 177.129 23.0473C177.472 22.884 177.848 22.8023 178.256 22.8023C179.056 22.8023 179.697 23.0555 180.179 23.5618C180.669 24.0681 180.914 24.7746 180.914 25.6811C180.914 26.2772 180.792 26.7999 180.547 27.2491C180.31 27.6982 179.959 28.0494 179.493 28.3026C179.036 28.5557 178.493 28.6823 177.864 28.6823C176.606 28.6823 175.733 28.2903 175.243 27.5063C174.753 26.7141 174.508 25.579 174.508 24.1008C174.508 22.5491 174.765 21.3976 175.279 20.6463C175.802 19.8868 176.635 19.507 177.778 19.507C178.391 19.507 178.905 19.6295 179.322 19.8745C179.746 20.1114 180.065 20.4258 180.277 20.8178C180.498 21.2098 180.628 21.6385 180.669 22.104H178.722ZM177.754 24.4561C177.403 24.4561 177.109 24.5622 176.872 24.7746C176.643 24.9787 176.529 25.2727 176.529 25.6566C176.529 26.0486 176.635 26.3548 176.847 26.5753C177.068 26.7958 177.378 26.9061 177.778 26.9061C178.138 26.9061 178.419 26.7999 178.624 26.5876C178.836 26.3671 178.942 26.069 178.942 25.6933C178.942 25.3095 178.84 25.0073 178.636 24.7868C178.432 24.5663 178.138 24.4561 177.754 24.4561ZM194.642 20.0338V28.6333H192.547V23.476L190.624 28.6333H188.934L186.998 23.4638V28.6333H184.903V20.0338H187.378L189.791 25.9873L192.18 20.0338H194.642ZM202.592 25.1053C202.592 25.3013 202.58 25.5055 202.555 25.7178H197.814C197.847 26.1425 197.982 26.4691 198.219 26.6978C198.464 26.9183 198.762 27.0286 199.113 27.0286C199.636 27.0286 199.999 26.8081 200.203 26.3671H202.433C202.318 26.8162 202.11 27.2205 201.808 27.5798C201.514 27.9391 201.142 28.2209 200.693 28.4251C200.244 28.6292 199.742 28.7313 199.186 28.7313C198.517 28.7313 197.921 28.5884 197.398 28.3026C196.875 28.0167 196.467 27.6084 196.173 27.0776C195.879 26.5467 195.732 25.9261 195.732 25.2156C195.732 24.5051 195.875 23.8844 196.161 23.3536C196.455 22.8227 196.863 22.4144 197.386 22.1286C197.908 21.8427 198.509 21.6998 199.186 21.6998C199.848 21.6998 200.436 21.8386 200.95 22.1163C201.465 22.394 201.865 22.79 202.151 23.3045C202.445 23.8191 202.592 24.4193 202.592 25.1053ZM200.448 24.5541C200.448 24.1947 200.326 23.9089 200.081 23.6966C199.836 23.4842 199.529 23.3781 199.162 23.3781C198.811 23.3781 198.513 23.4801 198.268 23.6843C198.031 23.8885 197.884 24.1784 197.827 24.5541H200.448ZM204.751 21.0873C204.383 21.0873 204.081 20.9811 203.844 20.7688C203.615 20.5483 203.501 20.2788 203.501 19.9603C203.501 19.6336 203.615 19.3641 203.844 19.1518C204.081 18.9313 204.383 18.821 204.751 18.821C205.11 18.821 205.404 18.9313 205.633 19.1518C205.869 19.3641 205.988 19.6336 205.988 19.9603C205.988 20.2788 205.869 20.5483 205.633 20.7688C205.404 20.9811 205.11 21.0873 204.751 21.0873ZM205.792 21.7978V28.6333H203.697V21.7978H205.792ZM209.624 26.9551C209.902 26.7346 210.028 26.6325 210.004 26.6488C210.804 25.9873 211.433 25.4442 211.89 25.0196C212.356 24.5949 212.748 24.1498 213.066 23.6843C213.385 23.2188 213.544 22.7655 213.544 22.3245C213.544 21.9897 213.466 21.7284 213.311 21.5405C213.156 21.3527 212.923 21.2588 212.613 21.2588C212.303 21.2588 212.058 21.3772 211.878 21.6141C211.707 21.8427 211.621 22.1694 211.621 22.594H209.6C209.616 21.8999 209.763 21.32 210.041 20.8545C210.326 20.389 210.698 20.046 211.155 19.8255C211.621 19.605 212.135 19.4948 212.699 19.4948C213.671 19.4948 214.402 19.7439 214.892 20.242C215.39 20.7402 215.639 21.3895 215.639 22.1898C215.639 23.0636 215.341 23.8762 214.745 24.6276C214.148 25.3707 213.389 26.0976 212.466 26.8081H215.774V28.5108H209.624V26.9551ZM216.696 24.0396C216.696 22.6349 216.965 21.5283 217.504 20.7198C218.051 19.9113 218.929 19.507 220.138 19.507C221.347 19.507 222.221 19.9113 222.76 20.7198C223.307 21.5283 223.58 22.6349 223.58 24.0396C223.58 25.4606 223.307 26.5753 222.76 27.3838C222.221 28.1923 221.347 28.5966 220.138 28.5966C218.929 28.5966 218.051 28.1923 217.504 27.3838C216.965 26.5753 216.696 25.4606 216.696 24.0396ZM221.522 24.0396C221.522 23.2147 221.432 22.5818 221.253 22.1408C221.073 21.6916 220.702 21.467 220.138 21.467C219.575 21.467 219.203 21.6916 219.023 22.1408C218.844 22.5818 218.754 23.2147 218.754 24.0396C218.754 24.5949 218.786 25.0563 218.852 25.4238C218.917 25.7831 219.048 26.0771 219.244 26.3058C219.448 26.5263 219.746 26.6366 220.138 26.6366C220.53 26.6366 220.824 26.5263 221.02 26.3058C221.224 26.0771 221.359 25.7831 221.424 25.4238C221.49 25.0563 221.522 24.5949 221.522 24.0396ZM224.614 26.9551C224.891 26.7346 225.018 26.6325 224.993 26.6488C225.794 25.9873 226.422 25.4442 226.88 25.0196C227.345 24.5949 227.737 24.1498 228.056 23.6843C228.374 23.2188 228.534 22.7655 228.534 22.3245C228.534 21.9897 228.456 21.7284 228.301 21.5405C228.146 21.3527 227.913 21.2588 227.603 21.2588C227.292 21.2588 227.047 21.3772 226.868 21.6141C226.696 21.8427 226.61 22.1694 226.61 22.594H224.589C224.605 21.8999 224.752 21.32 225.03 20.8545C225.316 20.389 225.687 20.046 226.145 19.8255C226.61 19.605 227.125 19.4948 227.688 19.4948C228.66 19.4948 229.391 19.7439 229.881 20.242C230.379 20.7402 230.628 21.3895 230.628 22.1898C230.628 23.0636 230.33 23.8762 229.734 24.6276C229.138 25.3707 228.378 26.0976 227.456 26.8081H230.763V28.5108H224.614V26.9551ZM236.108 22.104C236.042 21.8019 235.928 21.5773 235.765 21.4303C235.601 21.2751 235.368 21.1975 235.066 21.1975C234.601 21.1975 234.266 21.4017 234.062 21.81C233.858 22.2102 233.751 22.8472 233.743 23.7211C233.923 23.4352 234.18 23.2106 234.515 23.0473C234.858 22.884 235.234 22.8023 235.642 22.8023C236.442 22.8023 237.083 23.0555 237.565 23.5618C238.055 24.0681 238.3 24.7746 238.3 25.6811C238.3 26.2772 238.178 26.7999 237.933 27.2491C237.696 27.6982 237.345 28.0494 236.879 28.3026C236.422 28.5557 235.879 28.6823 235.25 28.6823C233.992 28.6823 233.119 28.2903 232.629 27.5063C232.139 26.7141 231.894 25.579 231.894 24.1008C231.894 22.5491 232.151 21.3976 232.665 20.6463C233.188 19.8868 234.021 19.507 235.164 19.507C235.777 19.507 236.291 19.6295 236.708 19.8745C237.132 20.1114 237.451 20.4258 237.663 20.8178C237.884 21.2098 238.014 21.6385 238.055 22.104H236.108ZM235.14 24.4561C234.789 24.4561 234.495 24.5622 234.258 24.7746C234.029 24.9787 233.915 25.2727 233.915 25.6566C233.915 26.0486 234.021 26.3548 234.233 26.5753C234.454 26.7958 234.764 26.9061 235.164 26.9061C235.524 26.9061 235.805 26.7999 236.01 26.5876C236.222 26.3671 236.328 26.069 236.328 25.6933C236.328 25.3095 236.226 25.0073 236.022 24.7868C235.818 24.5663 235.524 24.4561 235.14 24.4561Z" fill="white"/>
<path d="M45.9333 70.6144C63.4039 70.6144 77.5667 56.4559 77.5667 38.9905C77.5667 21.5251 63.4039 7.36658 45.9333 7.36658C28.4627 7.36658 14.3 21.5251 14.3 38.9905C14.3 56.4559 28.4627 70.6144 45.9333 70.6144Z" fill="#324EA1"/>
<path d="M48.5525 14.0227C46.7872 12.2579 44.467 13.1655 43.7104 14.0227V38.4781C45.0017 39.3252 47.1739 38.831 48.0986 38.4781L48.5525 14.0227Z" fill="url(#paint4_linear_353_86)"/>
<path d="M48.0986 41.1505C46.2424 39.9404 44.3998 40.6463 43.7104 41.1505V65.4546C45.5262 66.7454 47.3924 65.9924 48.0986 65.4546V41.1505Z" fill="url(#paint5_linear_353_86)"/>
<path d="M52.0328 34.5451V23.099C60.9503 23.099 63.7513 30.4944 64.0371 34.1921L52.0328 34.5451Z" fill="url(#paint6_linear_353_86)"/>
<path d="M50.3683 41.1505C48.8047 41.1505 48.7543 38.4781 50.3683 38.4781L70.6445 38.2764C73.116 38.2764 73.0151 40.9488 70.6445 40.9488C68.2739 40.9488 50.3683 41.1505 50.3683 41.1505Z" fill="url(#paint7_linear_353_86)"/>
<path d="M52.0328 57.7902V44.8314H64.0371C64.2893 48.4955 62.2415 56.217 52.0328 57.7902Z" fill="url(#paint8_linear_353_86)"/>
<path d="M69.9384 43.7221C67.9209 53.8572 59.6994 60.2753 50.3683 63.1351C49.2082 63.4906 49.1055 65.7193 50.7718 65.4546C58.388 64.2444 69.9384 57.286 72.2586 43.7221C72.2586 42.3103 70.2696 42.0581 69.9384 43.7221Z" fill="url(#paint9_linear_353_86)"/>
<path d="M69.9384 35.2006C67.1138 25.7714 60.7082 18.7625 50.7214 16.4935C49.2587 16.1612 49.2145 13.254 50.7214 13.4681C60.3047 14.8295 69.6862 23.6536 72.2586 35.2006C72.6068 36.7637 70.5124 37.1166 69.9384 35.2006Z" fill="url(#paint10_linear_353_86)"/>
<path d="M40.8859 13.8211C42.399 13.8211 43.7104 18.0085 40.8859 18.0062C36.3654 18.0026 32.0592 20.9812 30.8487 23.4015C30.2938 24.5109 27.8223 22.5443 28.8311 20.1744C29.6886 17.8549 36.6995 13.821 40.8859 13.8211Z" fill="url(#paint11_linear_353_86)"/>
<path d="M41.587 65.565C43.2061 65.565 43.1052 61.5216 41.587 61.3868C38.3788 61.102 36.5674 61.3868 34.5751 59.2674C33.8975 58.5466 32.2987 59.0209 33.0175 61.3868C33.6284 63.7025 38.6042 65.565 41.587 65.565Z" fill="url(#paint12_linear_353_86)"/>
<path d="M31.9583 59.7567C31.31 61.4711 28.2223 60.1568 29.1337 58.0423C33.0679 48.9157 34.7217 46.6938 39.4736 41.6043C40.933 40.0412 43.2565 41.9341 41.8946 43.47C37.0081 48.9811 35.116 51.406 31.9583 59.7567Z" fill="url(#paint13_linear_353_86)"/>
<path d="M27.0992 22.6635C26.0223 21.1802 23.8304 23.3986 25.1488 25.2864C30.7014 33.2367 33.9888 35.6834 39.9135 39.3425C41.7331 40.4663 43.476 38.0286 41.7577 36.9054C35.5921 32.875 32.3449 29.8885 27.0992 22.6635Z" fill="url(#paint14_linear_353_86)"/>
<path fill-rule="evenodd" clip-rule="evenodd" d="M22.7281 30.2087C17.7347 33.0828 17.8355 50.5293 26.4604 54.8657C31.706 54.8657 33.8103 44.5351 33.1183 39.89C32.4122 35.1501 26.8265 27.8497 22.7281 30.2087ZM24.9474 34.5451C20.9123 36.4107 22.7281 51.0335 26.1074 50.2267C31.7159 49.9242 30.7982 32.3264 24.9474 34.5451Z" fill="url(#paint15_linear_353_86)"/>
<path d="M105.914 45.5C101.761 45.5 98.3666 48.8941 98.3666 53.0473C98.3666 59.2102 105.914 66.4896 105.914 66.4896C105.914 66.4896 113.461 58.8976 113.461 53.0473C113.461 48.8941 110.067 45.5 105.914 45.5ZM105.914 57.2452C103.592 57.2452 101.716 55.3696 101.716 53.0473C101.716 50.7251 103.592 48.8494 105.914 48.8494C108.236 48.8494 110.112 50.7251 110.112 53.0473C110.112 55.3696 108.236 57.2452 105.914 57.2452Z" fill="url(#paint16_linear_353_86)"/>
<defs>
<linearGradient id="paint0_linear_353_86" x1="50.8128" y1="-5.27459" x2="80.5161" y2="98.8048" gradientUnits="userSpaceOnUse">
<stop stop-color="#EEC340"/>
<stop offset="0.364" stop-color="#FFFA8A"/>
<stop offset="0.694" stop-color="#DEAC17"/>
<stop offset="0.964" stop-color="#FFFF95"/>
</linearGradient>
<linearGradient id="paint1_linear_353_86" x1="108.979" y1="20.6473" x2="113.926" y2="38.7097" gradientUnits="userSpaceOnUse">
<stop stop-color="#243E88"/>
<stop offset="0.5" stop-color="#5190FC"/>
<stop offset="1" stop-color="#03F4FC"/>
</linearGradient>
<linearGradient id="paint2_linear_353_86" x1="120.033" y1="24.05" x2="253.067" y2="24.05" gradientUnits="userSpaceOnUse">
<stop offset="0.423077" stop-color="#243E88"/>
<stop offset="1" stop-color="#518DFC"/>
</linearGradient>
<linearGradient id="paint3_linear_353_86" x1="120.033" y1="56.1167" x2="253.067" y2="56.1167" gradientUnits="userSpaceOnUse">
<stop offset="0.423077" stop-color="#243E88"/>
<stop offset="1" stop-color="#518DFC"/>
</linearGradient>
<linearGradient id="paint4_linear_353_86" x1="29.6381" y1="9.41705" x2="55.5993" y2="33.2889" gradientUnits="userSpaceOnUse">
<stop stop-color="#EEC340"/>
<stop offset="0.364" stop-color="#FFFA8A"/>
<stop offset="0.694" stop-color="#DEAC17"/>
<stop offset="0.964" stop-color="#FFFF95"/>
</linearGradient>
<linearGradient id="paint5_linear_353_86" x1="29.6381" y1="9.41705" x2="55.5993" y2="33.2889" gradientUnits="userSpaceOnUse">
<stop stop-color="#EEC340"/>
<stop offset="0.364" stop-color="#FFFA8A"/>
<stop offset="0.694" stop-color="#DEAC17"/>
<stop offset="0.964" stop-color="#FFFF95"/>
</linearGradient>
<linearGradient id="paint6_linear_353_86" x1="29.6381" y1="9.41705" x2="55.5993" y2="33.2889" gradientUnits="userSpaceOnUse">
<stop stop-color="#EEC340"/>
<stop offset="0.364" stop-color="#FFFA8A"/>
<stop offset="0.694" stop-color="#DEAC17"/>
<stop offset="0.964" stop-color="#FFFF95"/>
</linearGradient>
<linearGradient id="paint7_linear_353_86" x1="29.6381" y1="9.41705" x2="55.5993" y2="33.2889" gradientUnits="userSpaceOnUse">
<stop stop-color="#EEC340"/>
<stop offset="0.364" stop-color="#FFFA8A"/>
<stop offset="0.694" stop-color="#DEAC17"/>
<stop offset="0.964" stop-color="#FFFF95"/>
</linearGradient>
<linearGradient id="paint8_linear_353_86" x1="29.6381" y1="9.41705" x2="55.5993" y2="33.2889" gradientUnits="userSpaceOnUse">
<stop stop-color="#EEC340"/>
<stop offset="0.364" stop-color="#FFFA8A"/>
<stop offset="0.694" stop-color="#DEAC17"/>
<stop offset="0.964" stop-color="#FFFF95"/>
</linearGradient>
<linearGradient id="paint9_linear_353_86" x1="29.6381" y1="9.41705" x2="55.5993" y2="33.2889" gradientUnits="userSpaceOnUse">
<stop stop-color="#EEC340"/>
<stop offset="0.364" stop-color="#FFFA8A"/>
<stop offset="0.694" stop-color="#DEAC17"/>
<stop offset="0.964" stop-color="#FFFF95"/>
</linearGradient>
<linearGradient id="paint10_linear_353_86" x1="29.6381" y1="9.41705" x2="55.5993" y2="33.2889" gradientUnits="userSpaceOnUse">
<stop stop-color="#EEC340"/>
<stop offset="0.364" stop-color="#FFFA8A"/>
<stop offset="0.694" stop-color="#DEAC17"/>
<stop offset="0.964" stop-color="#FFFF95"/>
</linearGradient>
<linearGradient id="paint11_linear_353_86" x1="29.6381" y1="9.41705" x2="55.5993" y2="33.2889" gradientUnits="userSpaceOnUse">
<stop stop-color="#EEC340"/>
<stop offset="0.364" stop-color="#FFFA8A"/>
<stop offset="0.694" stop-color="#DEAC17"/>
<stop offset="0.964" stop-color="#FFFF95"/>
</linearGradient>
<linearGradient id="paint12_linear_353_86" x1="29.6381" y1="9.41705" x2="55.5993" y2="33.2889" gradientUnits="userSpaceOnUse">
<stop stop-color="#EEC340"/>
<stop offset="0.364" stop-color="#FFFA8A"/>
<stop offset="0.694" stop-color="#DEAC17"/>
<stop offset="0.964" stop-color="#FFFF95"/>
</linearGradient>
<linearGradient id="paint13_linear_353_86" x1="29.6381" y1="9.41705" x2="55.5993" y2="33.2889" gradientUnits="userSpaceOnUse">
<stop stop-color="#EEC340"/>
<stop offset="0.364" stop-color="#FFFA8A"/>
<stop offset="0.694" stop-color="#DEAC17"/>
<stop offset="0.964" stop-color="#FFFF95"/>
</linearGradient>
<linearGradient id="paint14_linear_353_86" x1="29.6381" y1="9.41705" x2="55.5993" y2="33.2889" gradientUnits="userSpaceOnUse">
<stop stop-color="#EEC340"/>
<stop offset="0.364" stop-color="#FFFA8A"/>
<stop offset="0.694" stop-color="#DEAC17"/>
<stop offset="0.964" stop-color="#FFFF95"/>
</linearGradient>
<linearGradient id="paint15_linear_353_86" x1="29.6381" y1="9.41705" x2="55.5993" y2="33.2889" gradientUnits="userSpaceOnUse">
<stop stop-color="#EEC340"/>
<stop offset="0.364" stop-color="#FFFA8A"/>
<stop offset="0.694" stop-color="#DEAC17"/>
<stop offset="0.964" stop-color="#FFFF95"/>
</linearGradient>
<linearGradient id="paint16_linear_353_86" x1="107.745" y1="52.4824" x2="115.371" y2="72.5038" gradientUnits="userSpaceOnUse">
<stop stop-color="#243E88"/>
<stop offset="0.5" stop-color="#5190FC"/>
<stop offset="0.985577" stop-color="#03F4FC"/>
</linearGradient>
<clipPath id="clip0_353_86">
<rect width="17.7667" height="17.7667" fill="white" transform="translate(97.9333 14.7334)"/>
</clipPath>
</defs>
</svg>
