<svg width="266" height="39" viewBox="0 0 266 39" fill="none" xmlns="http://www.w3.org/2000/svg">
<path d="M0 19.5249C0 9.46575 8.15446 1.31116 18.214 1.31116H247.786C257.846 1.31116 266 9.46575 266 19.5249C266 29.5841 257.846 37.7388 247.786 37.7388H18.214C8.15446 37.7388 0 29.5841 0 19.5249Z" fill="white"/>
<path d="M75.4652 0H15.9879V38.7862H75.4652V0Z"/>
<path d="M158.921 6.0271H96.1766V33.8741H158.921V6.0271Z"/>
<path d="M223.978 7.59985H194.193V32.836H223.978V7.59985Z"/>
<path d="M259.713 2.35864H224.067V37.9957H259.713V2.35864Z"/>
<path d="M190.457 3.93079H163.003V34.6637H190.457V3.93079Z"/>
</svg>
