<svg width="300" height="112" viewBox="0 0 300 112" fill="none" xmlns="http://www.w3.org/2000/svg">
<g filter="url(#filter0_d_315_344)">
<rect x="19.0107" y="15.1847" width="270.424" height="48.6386" transform="rotate(-1.02669 19.0107 15.1847)" fill="#FFC300"/>
</g>
<path d="M42.818 20.1146L51.3923 20.1061C54.2856 20.1032 56.4564 20.8773 57.9046 22.4284C59.3529 23.9795 60.0785 26.2546 60.0815 29.2539L60.0851 32.9058C60.0881 35.9051 59.367 38.1817 57.9219 39.7356C56.4767 41.2896 54.3075 42.068 51.4141 42.0709L48.6619 42.0737L48.6769 57.158L42.8549 57.1638L42.818 20.1146ZM51.4089 36.7782C52.3616 36.7772 53.067 36.5119 53.5252 35.9822C54.0186 35.4524 54.2647 34.5524 54.2635 33.2821L54.2591 28.8892C54.2578 27.6189 54.0099 26.7194 53.5154 26.1906C53.0562 25.6618 52.3502 25.3979 51.3975 25.3988L48.6453 25.4016L48.6566 36.7809L51.4089 36.7782ZM63.2343 20.0943L79.1125 20.0785L79.1178 25.3712L69.0616 25.3812L69.0714 35.1728L77.0634 35.1648L77.0687 40.4575L69.0766 40.4655L69.088 51.8449L79.1442 51.8349L79.1494 57.1276L63.2712 57.1434L63.2343 20.0943ZM82.4618 20.0751L89.7658 20.0678L95.4511 42.2388L95.557 42.2387L95.5349 20.0621L100.722 20.0569L100.759 57.1061L94.7779 57.112L87.7645 30.0731L87.6587 30.0732L87.6856 57.1191L82.4988 57.1243L82.4618 20.0751ZM105.049 20.0526L113.941 20.0438C116.834 20.0409 119.005 20.815 120.453 22.3661C121.901 23.9172 122.627 26.1923 122.63 29.1916L122.649 47.9278C122.652 50.927 121.931 53.2036 120.485 54.7576C119.04 56.3116 116.871 57.09 113.978 57.0929L105.086 57.1018L105.049 20.0526ZM113.867 51.8003C114.819 51.7993 115.542 51.5163 116.036 50.9513C116.564 50.3862 116.828 49.4685 116.827 48.1983L116.808 28.9327C116.806 27.6625 116.541 26.7453 116.011 26.1813C115.517 25.6172 114.793 25.3357 113.84 25.3366L110.876 25.3396L110.903 51.8032L113.867 51.8003ZM130.946 20.0268L138.832 20.019L144.903 57.0621L139.081 57.0679L138.015 49.7121L138.015 49.8179L131.399 49.8245L130.348 57.0766L124.949 57.082L130.946 20.0268ZM137.322 44.7905L134.71 26.4802L134.605 26.4803L132.082 44.7957L137.322 44.7905ZM147.691 20.0101L163.093 19.9948L163.098 25.2875L153.518 25.2971L153.528 35.6179L161.044 35.6104L161.049 40.9032L153.533 40.9107L153.55 57.0535L147.728 57.0593L147.691 20.0101ZM170.958 25.2797L164.872 25.2858L164.866 19.993L182.862 19.9751L182.867 25.2678L176.78 25.2739L176.812 57.0303L170.99 57.0361L170.958 25.2797ZM187.75 19.9702L195.636 19.9624L201.707 57.0055L195.885 57.0113L194.819 49.6555L194.819 49.7613L188.203 49.7679L187.152 57.02L181.753 57.0254L187.75 19.9702ZM194.126 44.7339L191.514 26.4236L191.408 26.4237L188.886 44.7391L194.126 44.7339ZM204.495 19.9536L213.122 19.945C216.121 19.942 218.309 20.6455 219.687 22.0555C221.064 23.4303 221.754 25.5643 221.757 28.4577L221.76 30.7336C221.763 34.5796 220.496 37.0155 217.956 38.0413L217.956 38.1472C219.368 38.5692 220.357 39.4327 220.923 40.7377C221.524 42.0426 221.826 43.7889 221.828 45.9766L221.834 52.4866C221.835 53.5452 221.871 54.4096 221.943 55.08C222.014 55.715 222.191 56.35 222.474 56.9848L216.546 56.9907C216.334 56.3911 216.192 55.8267 216.121 55.2975C216.05 54.7683 216.014 53.8156 216.012 52.4395L216.005 45.6648C216.004 43.9711 215.72 42.7894 215.155 42.1195C214.625 41.4496 213.69 41.1154 212.349 41.1167L210.338 41.1187L210.353 56.9969L204.531 57.0027L204.495 19.9536ZM212.449 35.8239C213.614 35.8227 214.478 35.5219 215.042 34.9215C215.641 34.3211 215.94 33.3152 215.939 31.9038L215.936 29.0457C215.935 27.7049 215.687 26.7348 215.192 26.1354C214.733 25.536 213.991 25.2368 212.968 25.2379L210.322 25.2405L210.332 35.826L212.449 35.8239ZM230.34 19.9278L238.226 19.92L244.297 56.9631L238.475 56.9689L237.409 49.613L237.409 49.7189L230.793 49.7255L229.742 56.9776L224.343 56.983L230.34 19.9278ZM236.716 44.6915L234.104 26.3812L233.998 26.3813L231.476 44.6967L236.716 44.6915ZM247.084 19.9111L254.388 19.9039L260.074 42.0748L260.18 42.0747L260.158 19.8981L265.344 19.893L265.381 56.9421L259.401 56.9481L252.387 29.9091L252.281 29.9092L252.308 56.9551L247.121 56.9603L247.084 19.9111Z" fill="white"/>
<g filter="url(#filter1_d_315_344)">
<mask id="path-3-outside-1_315_344" maskUnits="userSpaceOnUse" x="16.8087" y="53.9515" width="275.063" height="48.842" fill="black">
<rect fill="white" x="16.8087" y="53.9515" width="275.063" height="48.842"/>
<path d="M22.7004 59.5631L29.5441 59.7595L31.9688 81.6859L32.056 81.6884L35.734 59.9371L42.5777 60.1335L41.7022 90.6469L37.1687 90.5168L37.8316 67.4138L37.7445 67.4113L33.5943 90.4143L29.584 90.2992L26.7596 67.0961L26.6724 67.0936L26.0095 90.1966L21.8248 90.0765L22.7004 59.5631ZM46.1559 60.2361L53.3919 60.4438C55.8621 60.5146 57.6471 61.1475 58.7471 62.3425C59.848 63.5084 60.3642 65.2828 60.2958 67.6657L60.2608 68.8863C60.2158 70.4555 59.9175 71.7267 59.3661 72.6997C58.8437 73.6736 58.0532 74.3635 56.9945 74.7694L56.992 74.8566C59.3516 75.7386 60.4822 77.8942 60.3838 81.3234L60.3088 83.9388C60.2412 86.2927 59.5647 88.0765 58.2793 89.2902C57.0237 90.4758 55.2045 91.0343 52.8215 90.966L45.2803 90.7496L46.1559 60.2361ZM52.4688 72.8508C53.4278 72.8783 54.1468 72.6518 54.626 72.1711C55.1342 71.6912 55.405 70.8701 55.4383 69.7077L55.4871 68.0076C55.5188 66.9033 55.3383 66.0983 54.9456 65.5926C54.582 65.0878 53.9788 64.8233 53.1361 64.7991L50.8258 64.7328L50.5944 72.797L52.4688 72.8508ZM52.9466 86.6069C53.7893 86.6311 54.4204 86.431 54.8398 86.0068C55.2599 85.5535 55.4859 84.7747 55.5176 83.6704L55.5939 81.0114C55.6339 79.6165 55.4144 78.6504 54.9354 78.1132C54.4862 77.5477 53.7095 77.2491 52.6052 77.2174L50.4693 77.1561L50.2004 86.5281L52.9466 86.6069ZM63.7794 60.7418L70.6232 60.9382L73.0479 82.8646L73.135 82.8671L76.813 61.1158L83.6568 61.3122L82.7812 91.8256L78.2478 91.6955L78.9107 68.5925L78.8235 68.59L74.6734 91.593L70.663 91.4779L67.8387 68.2748L67.7515 68.2723L67.0886 91.3753L62.9039 91.2553L63.7794 60.7418ZM90.8586 65.8815L85.8457 65.7376L85.9708 61.3786L100.792 61.8038L100.667 66.1629L95.6536 66.0191L94.9031 92.1734L90.1082 92.0358L90.8586 65.8815ZM110.094 62.0708L114.889 62.2084L114.139 88.3627L122.029 88.5891L121.904 92.9482L109.219 92.5842L110.094 62.0708ZM125.079 62.5007L131.922 62.6971L134.347 84.6236L134.434 84.6261L138.112 62.8747L144.956 63.0711L144.081 93.5845L139.547 93.4544L140.21 70.3514L140.123 70.3489L135.973 93.3519L131.962 93.2368L129.138 70.0337L129.051 70.0312L128.388 93.1342L124.203 93.0142L125.079 62.5007ZM148.534 63.1737L155.77 63.3814C158.24 63.4523 160.025 64.0852 161.125 65.2801C162.226 66.446 162.743 68.2204 162.674 70.6033L162.639 71.8239C162.594 73.3931 162.296 74.6643 161.744 75.6373C161.222 76.6112 160.432 77.3011 159.373 77.707L159.37 77.7942C161.73 78.6762 162.861 80.8318 162.762 84.261L162.687 86.8764C162.62 89.2303 161.943 91.0141 160.658 92.2279C159.402 93.4134 157.583 93.9719 155.2 93.9036L147.659 93.6872L148.534 63.1737ZM154.847 75.7884C155.806 75.816 156.525 75.5894 157.004 75.1087C157.513 74.6288 157.783 73.8077 157.817 72.6453L157.865 70.9453C157.897 69.841 157.717 69.036 157.324 68.5303C156.96 68.0254 156.357 67.7609 155.514 67.7367L153.204 67.6704L152.973 75.7347L154.847 75.7884ZM155.325 89.5445C156.168 89.5687 156.799 89.3687 157.218 88.9444C157.638 88.4911 157.864 87.7123 157.896 86.608L157.972 83.949C158.012 82.5541 157.793 81.588 157.314 81.0508C156.865 80.4853 156.088 80.1867 154.984 80.155L152.848 80.0937L152.579 89.4657L155.325 89.5445ZM173.139 63.8798L177.934 64.0173L177.059 94.5308L172.264 94.3932L173.139 63.8798ZM185.149 68.587L180.136 68.4432L180.261 64.0841L195.082 64.5094L194.957 68.8684L189.944 68.7246L189.193 94.879L184.398 94.7414L185.149 68.587ZM202.749 95.7042C200.424 95.6375 198.685 94.9332 197.531 93.5913C196.378 92.2203 195.836 90.2998 195.907 87.8296L195.957 86.086L200.491 86.2161L200.431 88.3084C200.374 90.2845 201.174 91.2963 202.83 91.3439C203.644 91.3672 204.261 91.1523 204.681 90.699C205.131 90.2174 205.372 89.4391 205.403 88.3638C205.439 87.0852 205.181 85.958 204.627 84.9823C204.074 83.9776 203.033 82.7698 201.503 81.3589C199.577 79.5586 198.241 77.9497 197.497 76.5323C196.753 75.0859 196.406 73.4763 196.457 71.7036C196.526 69.2916 197.19 67.4492 198.448 66.1765C199.707 64.8748 201.499 64.2572 203.824 64.3239C206.12 64.3898 207.829 65.1078 208.954 66.478C210.107 67.8199 210.649 69.7259 210.578 72.196L210.542 73.4601L206.008 73.3301L206.053 71.7608C206.083 70.7146 205.902 69.9532 205.508 69.4766C205.116 68.9709 204.527 68.7068 203.742 68.6843C202.144 68.6384 201.317 69.589 201.261 71.536C201.229 72.6403 201.49 73.6803 202.044 74.656C202.627 75.6325 203.683 76.8262 205.213 78.237C207.168 80.0382 208.503 81.6616 209.218 83.1072C209.933 84.5529 210.263 86.2347 210.208 88.1527C210.136 90.6519 209.456 92.5519 208.168 93.8529C206.909 95.1546 205.103 95.7717 202.749 95.7042ZM219.736 92.4397C219.798 90.2602 220.2 88.4103 220.942 86.8902C221.685 85.3409 222.984 83.6477 224.84 81.8104C226.667 79.9724 227.933 78.3945 228.64 77.0769C229.376 75.7602 229.765 74.3753 229.806 72.9223C229.844 71.6145 229.652 70.7074 229.23 70.2009C228.838 69.6661 228.236 69.3871 227.422 69.3637C225.765 69.3162 224.908 70.295 224.851 72.3002L224.757 75.5695L220.224 75.4394L220.309 72.4752C220.38 70.0051 221.044 68.1337 222.302 66.861C223.561 65.5592 225.353 64.9417 227.678 65.0084C230.003 65.0751 231.756 65.7944 232.938 67.1662C234.121 68.5089 234.677 70.4153 234.606 72.8855C234.553 74.7453 234.05 76.5487 233.099 78.2955C232.176 80.0432 230.592 82.0337 228.347 84.2669C226.879 85.7372 225.885 86.9447 225.363 87.8895C224.843 88.8053 224.567 89.8008 224.536 90.876L224.517 91.5299L233.628 91.7913L233.503 96.1504L219.641 95.7526L219.736 92.4397ZM244.1 96.8907C241.746 96.8232 239.963 96.1031 238.752 94.7304C237.541 93.3578 236.97 91.4509 237.04 89.0099L237.5 72.9685C237.57 70.5274 238.249 68.6564 239.537 67.3555C240.825 66.0546 242.646 65.4379 245 65.5055C247.354 65.573 249.137 66.2931 250.348 67.6657C251.559 69.0383 252.13 70.9452 252.06 73.3863L251.599 89.4276C251.529 91.8687 250.85 93.7397 249.562 95.0406C248.274 96.3416 246.454 96.9582 244.1 96.8907ZM244.225 92.5316C245.881 92.5792 246.738 91.6003 246.796 89.5952L247.273 72.9436C247.331 70.9384 246.532 69.912 244.875 69.8645C243.219 69.817 242.362 70.7958 242.304 72.801L241.826 89.4526C241.769 91.4578 242.568 92.4841 244.225 92.5316ZM254.642 93.4413C254.705 91.2618 255.107 89.4119 255.849 87.8917C256.591 86.3425 257.89 84.6493 259.746 82.812C261.573 80.974 262.84 79.3961 263.547 78.0785C264.283 76.7618 264.671 75.3769 264.713 73.9239C264.751 72.6161 264.558 71.709 264.137 71.2025C263.745 70.6677 263.142 70.3887 262.328 70.3653C260.672 70.3178 259.815 71.2966 259.757 73.3018L259.664 76.5711L255.13 76.441L255.215 73.4768C255.286 71.0067 255.951 69.1353 257.209 67.8626C258.468 66.5608 260.259 65.9433 262.584 66.01C264.909 66.0767 266.663 66.796 267.845 68.1678C269.028 69.5105 269.584 71.4169 269.513 73.8871C269.46 75.7469 268.957 77.5503 268.005 79.2971C267.083 81.0448 265.499 83.0353 263.253 85.2685C261.786 86.7388 260.791 87.9463 260.27 88.8911C259.749 89.8069 259.473 90.8024 259.443 91.8776L259.424 92.5315L268.534 92.7929L268.409 97.152L254.547 96.7542L254.642 93.4413ZM279.137 97.8961C276.783 97.8285 275.001 97.1084 273.789 95.7358C272.578 94.3632 272.007 92.4563 272.077 90.0152L272.53 74.2354C272.682 68.9464 275.199 66.372 280.081 66.5121C282.406 66.5788 284.159 67.298 285.342 68.6698C286.525 70.0126 287.081 71.919 287.01 74.3891L286.994 74.9558L282.46 74.8257L282.485 73.9539C282.543 71.9487 281.743 70.9224 280.087 70.8749C279.186 70.849 278.51 71.1059 278.058 71.6456C277.606 72.1852 277.36 73.1525 277.32 74.5474L277.153 80.3885L277.24 80.391C278.133 78.6425 279.612 77.7979 281.675 77.8571C283.419 77.9071 284.724 78.5408 285.591 79.7581C286.457 80.9754 286.858 82.7174 286.793 84.9842L286.637 90.433C286.567 92.8741 285.888 94.7451 284.6 96.046C283.312 97.3469 281.491 97.9636 279.137 97.8961ZM279.262 93.537C280.918 93.5845 281.775 92.6202 281.832 90.6441L281.987 85.2389C282.044 83.2337 281.245 82.2074 279.588 82.1598C277.932 82.1123 277.075 83.0911 277.018 85.0963L276.862 90.5015C276.806 92.4776 277.606 93.4895 279.262 93.537Z"/>
</mask>
<path d="M22.7004 59.5631L29.5441 59.7595L31.9688 81.6859L32.056 81.6884L35.734 59.9371L42.5777 60.1335L41.7022 90.6469L37.1687 90.5168L37.8316 67.4138L37.7445 67.4113L33.5943 90.4143L29.584 90.2992L26.7596 67.0961L26.6724 67.0936L26.0095 90.1966L21.8248 90.0765L22.7004 59.5631ZM46.1559 60.2361L53.3919 60.4438C55.8621 60.5146 57.6471 61.1475 58.7471 62.3425C59.848 63.5084 60.3642 65.2828 60.2958 67.6657L60.2608 68.8863C60.2158 70.4555 59.9175 71.7267 59.3661 72.6997C58.8437 73.6736 58.0532 74.3635 56.9945 74.7694L56.992 74.8566C59.3516 75.7386 60.4822 77.8942 60.3838 81.3234L60.3088 83.9388C60.2412 86.2927 59.5647 88.0765 58.2793 89.2902C57.0237 90.4758 55.2045 91.0343 52.8215 90.966L45.2803 90.7496L46.1559 60.2361ZM52.4688 72.8508C53.4278 72.8783 54.1468 72.6518 54.626 72.1711C55.1342 71.6912 55.405 70.8701 55.4383 69.7077L55.4871 68.0076C55.5188 66.9033 55.3383 66.0983 54.9456 65.5926C54.582 65.0878 53.9788 64.8233 53.1361 64.7991L50.8258 64.7328L50.5944 72.797L52.4688 72.8508ZM52.9466 86.6069C53.7893 86.6311 54.4204 86.431 54.8398 86.0068C55.2599 85.5535 55.4859 84.7747 55.5176 83.6704L55.5939 81.0114C55.6339 79.6165 55.4144 78.6504 54.9354 78.1132C54.4862 77.5477 53.7095 77.2491 52.6052 77.2174L50.4693 77.1561L50.2004 86.5281L52.9466 86.6069ZM63.7794 60.7418L70.6232 60.9382L73.0479 82.8646L73.135 82.8671L76.813 61.1158L83.6568 61.3122L82.7812 91.8256L78.2478 91.6955L78.9107 68.5925L78.8235 68.59L74.6734 91.593L70.663 91.4779L67.8387 68.2748L67.7515 68.2723L67.0886 91.3753L62.9039 91.2553L63.7794 60.7418ZM90.8586 65.8815L85.8457 65.7376L85.9708 61.3786L100.792 61.8038L100.667 66.1629L95.6536 66.0191L94.9031 92.1734L90.1082 92.0358L90.8586 65.8815ZM110.094 62.0708L114.889 62.2084L114.139 88.3627L122.029 88.5891L121.904 92.9482L109.219 92.5842L110.094 62.0708ZM125.079 62.5007L131.922 62.6971L134.347 84.6236L134.434 84.6261L138.112 62.8747L144.956 63.0711L144.081 93.5845L139.547 93.4544L140.21 70.3514L140.123 70.3489L135.973 93.3519L131.962 93.2368L129.138 70.0337L129.051 70.0312L128.388 93.1342L124.203 93.0142L125.079 62.5007ZM148.534 63.1737L155.77 63.3814C158.24 63.4523 160.025 64.0852 161.125 65.2801C162.226 66.446 162.743 68.2204 162.674 70.6033L162.639 71.8239C162.594 73.3931 162.296 74.6643 161.744 75.6373C161.222 76.6112 160.432 77.3011 159.373 77.707L159.37 77.7942C161.73 78.6762 162.861 80.8318 162.762 84.261L162.687 86.8764C162.62 89.2303 161.943 91.0141 160.658 92.2279C159.402 93.4134 157.583 93.9719 155.2 93.9036L147.659 93.6872L148.534 63.1737ZM154.847 75.7884C155.806 75.816 156.525 75.5894 157.004 75.1087C157.513 74.6288 157.783 73.8077 157.817 72.6453L157.865 70.9453C157.897 69.841 157.717 69.036 157.324 68.5303C156.96 68.0254 156.357 67.7609 155.514 67.7367L153.204 67.6704L152.973 75.7347L154.847 75.7884ZM155.325 89.5445C156.168 89.5687 156.799 89.3687 157.218 88.9444C157.638 88.4911 157.864 87.7123 157.896 86.608L157.972 83.949C158.012 82.5541 157.793 81.588 157.314 81.0508C156.865 80.4853 156.088 80.1867 154.984 80.155L152.848 80.0937L152.579 89.4657L155.325 89.5445ZM173.139 63.8798L177.934 64.0173L177.059 94.5308L172.264 94.3932L173.139 63.8798ZM185.149 68.587L180.136 68.4432L180.261 64.0841L195.082 64.5094L194.957 68.8684L189.944 68.7246L189.193 94.879L184.398 94.7414L185.149 68.587ZM202.749 95.7042C200.424 95.6375 198.685 94.9332 197.531 93.5913C196.378 92.2203 195.836 90.2998 195.907 87.8296L195.957 86.086L200.491 86.2161L200.431 88.3084C200.374 90.2845 201.174 91.2963 202.83 91.3439C203.644 91.3672 204.261 91.1523 204.681 90.699C205.131 90.2174 205.372 89.4391 205.403 88.3638C205.439 87.0852 205.181 85.958 204.627 84.9823C204.074 83.9776 203.033 82.7698 201.503 81.3589C199.577 79.5586 198.241 77.9497 197.497 76.5323C196.753 75.0859 196.406 73.4763 196.457 71.7036C196.526 69.2916 197.19 67.4492 198.448 66.1765C199.707 64.8748 201.499 64.2572 203.824 64.3239C206.12 64.3898 207.829 65.1078 208.954 66.478C210.107 67.8199 210.649 69.7259 210.578 72.196L210.542 73.4601L206.008 73.3301L206.053 71.7608C206.083 70.7146 205.902 69.9532 205.508 69.4766C205.116 68.9709 204.527 68.7068 203.742 68.6843C202.144 68.6384 201.317 69.589 201.261 71.536C201.229 72.6403 201.49 73.6803 202.044 74.656C202.627 75.6325 203.683 76.8262 205.213 78.237C207.168 80.0382 208.503 81.6616 209.218 83.1072C209.933 84.5529 210.263 86.2347 210.208 88.1527C210.136 90.6519 209.456 92.5519 208.168 93.8529C206.909 95.1546 205.103 95.7717 202.749 95.7042ZM219.736 92.4397C219.798 90.2602 220.2 88.4103 220.942 86.8902C221.685 85.3409 222.984 83.6477 224.84 81.8104C226.667 79.9724 227.933 78.3945 228.64 77.0769C229.376 75.7602 229.765 74.3753 229.806 72.9223C229.844 71.6145 229.652 70.7074 229.23 70.2009C228.838 69.6661 228.236 69.3871 227.422 69.3637C225.765 69.3162 224.908 70.295 224.851 72.3002L224.757 75.5695L220.224 75.4394L220.309 72.4752C220.38 70.0051 221.044 68.1337 222.302 66.861C223.561 65.5592 225.353 64.9417 227.678 65.0084C230.003 65.0751 231.756 65.7944 232.938 67.1662C234.121 68.5089 234.677 70.4153 234.606 72.8855C234.553 74.7453 234.05 76.5487 233.099 78.2955C232.176 80.0432 230.592 82.0337 228.347 84.2669C226.879 85.7372 225.885 86.9447 225.363 87.8895C224.843 88.8053 224.567 89.8008 224.536 90.876L224.517 91.5299L233.628 91.7913L233.503 96.1504L219.641 95.7526L219.736 92.4397ZM244.1 96.8907C241.746 96.8232 239.963 96.1031 238.752 94.7304C237.541 93.3578 236.97 91.4509 237.04 89.0099L237.5 72.9685C237.57 70.5274 238.249 68.6564 239.537 67.3555C240.825 66.0546 242.646 65.4379 245 65.5055C247.354 65.573 249.137 66.2931 250.348 67.6657C251.559 69.0383 252.13 70.9452 252.06 73.3863L251.599 89.4276C251.529 91.8687 250.85 93.7397 249.562 95.0406C248.274 96.3416 246.454 96.9582 244.1 96.8907ZM244.225 92.5316C245.881 92.5792 246.738 91.6003 246.796 89.5952L247.273 72.9436C247.331 70.9384 246.532 69.912 244.875 69.8645C243.219 69.817 242.362 70.7958 242.304 72.801L241.826 89.4526C241.769 91.4578 242.568 92.4841 244.225 92.5316ZM254.642 93.4413C254.705 91.2618 255.107 89.4119 255.849 87.8917C256.591 86.3425 257.89 84.6493 259.746 82.812C261.573 80.974 262.84 79.3961 263.547 78.0785C264.283 76.7618 264.671 75.3769 264.713 73.9239C264.751 72.6161 264.558 71.709 264.137 71.2025C263.745 70.6677 263.142 70.3887 262.328 70.3653C260.672 70.3178 259.815 71.2966 259.757 73.3018L259.664 76.5711L255.13 76.441L255.215 73.4768C255.286 71.0067 255.951 69.1353 257.209 67.8626C258.468 66.5608 260.259 65.9433 262.584 66.01C264.909 66.0767 266.663 66.796 267.845 68.1678C269.028 69.5105 269.584 71.4169 269.513 73.8871C269.46 75.7469 268.957 77.5503 268.005 79.2971C267.083 81.0448 265.499 83.0353 263.253 85.2685C261.786 86.7388 260.791 87.9463 260.27 88.8911C259.749 89.8069 259.473 90.8024 259.443 91.8776L259.424 92.5315L268.534 92.7929L268.409 97.152L254.547 96.7542L254.642 93.4413ZM279.137 97.8961C276.783 97.8285 275.001 97.1084 273.789 95.7358C272.578 94.3632 272.007 92.4563 272.077 90.0152L272.53 74.2354C272.682 68.9464 275.199 66.372 280.081 66.5121C282.406 66.5788 284.159 67.298 285.342 68.6698C286.525 70.0126 287.081 71.919 287.01 74.3891L286.994 74.9558L282.46 74.8257L282.485 73.9539C282.543 71.9487 281.743 70.9224 280.087 70.8749C279.186 70.849 278.51 71.1059 278.058 71.6456C277.606 72.1852 277.36 73.1525 277.32 74.5474L277.153 80.3885L277.24 80.391C278.133 78.6425 279.612 77.7979 281.675 77.8571C283.419 77.9071 284.724 78.5408 285.591 79.7581C286.457 80.9754 286.858 82.7174 286.793 84.9842L286.637 90.433C286.567 92.8741 285.888 94.7451 284.6 96.046C283.312 97.3469 281.491 97.9636 279.137 97.8961ZM279.262 93.537C280.918 93.5845 281.775 92.6202 281.832 90.6441L281.987 85.2389C282.044 83.2337 281.245 82.2074 279.588 82.1598C277.932 82.1123 277.075 83.0911 277.018 85.0963L276.862 90.5015C276.806 92.4776 277.606 93.4895 279.262 93.537Z" fill="white"/>
<path d="M22.7004 59.5631L22.8165 55.5154L18.7688 55.3993L18.6527 59.447L22.7004 59.5631ZM29.5441 59.7595L33.5689 59.3144L33.1817 55.8128L29.6603 55.7118L29.5441 59.7595ZM31.9688 81.6859L27.944 82.131L28.3312 85.6326L31.8527 85.7336L31.9688 81.6859ZM32.056 81.6884L31.9398 85.7361L35.4613 85.8372L36.0487 82.3636L32.056 81.6884ZM35.734 59.9371L35.8501 55.8894L32.3286 55.7883L31.7413 59.262L35.734 59.9371ZM42.5777 60.1335L46.6254 60.2496L46.7415 56.2019L42.6938 56.0858L42.5777 60.1335ZM41.7022 90.6469L41.586 94.6946L45.6337 94.8107L45.7499 90.763L41.7022 90.6469ZM37.1687 90.5168L33.121 90.4007L33.0049 94.4484L37.0526 94.5645L37.1687 90.5168ZM37.8316 67.4138L41.8793 67.5299L41.9955 63.4822L37.9478 63.3661L37.8316 67.4138ZM37.7445 67.4113L37.8606 63.3636L34.378 63.2637L33.7594 66.6923L37.7445 67.4113ZM33.5943 90.4143L33.4782 94.462L36.9607 94.5619L37.5793 91.1332L33.5943 90.4143ZM29.584 90.2992L25.5643 90.7885L25.9852 94.247L29.4678 94.3469L29.584 90.2992ZM26.7596 67.0961L30.7793 66.6068L30.3584 63.1483L26.8758 63.0484L26.7596 67.0961ZM26.6724 67.0936L26.7886 63.0459L22.7409 62.9297L22.6247 66.9774L26.6724 67.0936ZM26.0095 90.1966L25.8934 94.2443L29.9411 94.3605L30.0572 90.3128L26.0095 90.1966ZM21.8248 90.0765L17.7771 89.9604L17.661 94.0081L21.7087 94.1242L21.8248 90.0765ZM22.7004 59.5631L22.5842 63.6108L29.428 63.8072L29.5441 59.7595L29.6603 55.7118L22.8165 55.5154L22.7004 59.5631ZM29.5441 59.7595L25.5193 60.2046L27.944 82.131L31.9688 81.6859L35.9936 81.2409L33.5689 59.3144L29.5441 59.7595ZM31.9688 81.6859L31.8527 85.7336L31.9398 85.7361L32.056 81.6884L32.1721 77.6407L32.085 77.6382L31.9688 81.6859ZM32.056 81.6884L36.0487 82.3636L39.7267 60.6122L35.734 59.9371L31.7413 59.262L28.0633 81.0133L32.056 81.6884ZM35.734 59.9371L35.6178 63.9848L42.4616 64.1812L42.5777 60.1335L42.6938 56.0858L35.8501 55.8894L35.734 59.9371ZM42.5777 60.1335L38.53 60.0173L37.6545 90.5308L41.7022 90.6469L45.7499 90.763L46.6254 60.2496L42.5777 60.1335ZM41.7022 90.6469L41.8183 86.5992L37.2849 86.4691L37.1687 90.5168L37.0526 94.5645L41.586 94.6946L41.7022 90.6469ZM37.1687 90.5168L41.2164 90.633L41.8793 67.5299L37.8316 67.4138L33.7839 67.2976L33.121 90.4007L37.1687 90.5168ZM37.8316 67.4138L37.9478 63.3661L37.8606 63.3636L37.7445 67.4113L37.6283 71.459L37.7155 71.4615L37.8316 67.4138ZM37.7445 67.4113L33.7594 66.6923L29.6093 89.6953L33.5943 90.4143L37.5793 91.1332L41.7295 68.1303L37.7445 67.4113ZM33.5943 90.4143L33.7104 86.3666L29.7001 86.2515L29.584 90.2992L29.4678 94.3469L33.4782 94.462L33.5943 90.4143ZM29.584 90.2992L33.6037 89.8099L30.7793 66.6068L26.7596 67.0961L22.7399 67.5854L25.5643 90.7885L29.584 90.2992ZM26.7596 67.0961L26.8758 63.0484L26.7886 63.0459L26.6724 67.0936L26.5563 71.1413L26.6435 71.1438L26.7596 67.0961ZM26.6724 67.0936L22.6247 66.9774L21.9618 90.0805L26.0095 90.1966L30.0572 90.3128L30.7201 67.2097L26.6724 67.0936ZM26.0095 90.1966L26.1257 86.1489L21.941 86.0288L21.8248 90.0765L21.7087 94.1242L25.8934 94.2443L26.0095 90.1966ZM21.8248 90.0765L25.8725 90.1927L26.7481 59.6793L22.7004 59.5631L18.6527 59.447L17.7771 89.9604L21.8248 90.0765ZM46.1559 60.2361L46.272 56.1884L42.2243 56.0723L42.1082 60.12L46.1559 60.2361ZM58.7471 62.3425L55.7679 65.085L55.7853 65.1039L55.8028 65.1225L58.7471 62.3425ZM59.3661 72.6997L55.8431 70.7032L55.8199 70.7442L55.7977 70.7857L59.3661 72.6997ZM56.9945 74.7694L55.5449 70.9884L53.0242 71.9548L52.9468 74.6532L56.9945 74.7694ZM56.992 74.8566L52.9443 74.7404L52.8612 77.6354L55.5741 78.6496L56.992 74.8566ZM58.2793 89.2902L61.0593 92.2345L61.0593 92.2345L58.2793 89.2902ZM45.2803 90.7496L41.2326 90.6334L41.1165 94.6811L45.1642 94.7973L45.2803 90.7496ZM54.626 72.1711L51.8459 69.2268L51.8013 69.2689L51.758 69.3124L54.626 72.1711ZM54.9456 65.5926L51.6597 67.9592L51.7024 68.0184L51.7472 68.0762L54.9456 65.5926ZM50.8258 64.7328L50.9419 60.6851L46.8942 60.5689L46.7781 64.6166L50.8258 64.7328ZM50.5944 72.797L46.5467 72.6809L46.4305 76.7286L50.4782 76.8447L50.5944 72.797ZM54.8397 86.0068L57.7196 88.8535L57.7653 88.8073L57.8095 88.7597L54.8397 86.0068ZM54.9354 78.1132L51.7644 80.6316L51.8361 80.7219L51.9129 80.808L54.9354 78.1132ZM50.4693 77.1561L50.5854 73.1084L46.5377 72.9923L46.4216 77.04L50.4693 77.1561ZM50.2004 86.5281L46.1527 86.412L46.0365 90.4597L50.0842 90.5758L50.2004 86.5281ZM46.1559 60.2361L46.0397 64.2838L53.2758 64.4915L53.3919 60.4438L53.5081 56.3961L46.272 56.1884L46.1559 60.2361ZM53.3919 60.4438L53.2758 64.4915C55.216 64.5471 55.7165 65.0292 55.7679 65.085L58.7471 62.3425L61.7264 59.5999C59.5778 57.2659 56.5081 56.4821 53.5081 56.3961L53.3919 60.4438ZM58.7471 62.3425L55.8028 65.1225C55.8738 65.1977 56.3006 65.722 56.2481 67.5496L60.2958 67.6657L64.3435 67.7819C64.4278 64.8436 63.8221 61.819 61.6914 59.5625L58.7471 62.3425ZM60.2958 67.6657L56.2481 67.5496L56.2131 68.7701L60.2608 68.8863L64.3085 69.0024L64.3435 67.7819L60.2958 67.6657ZM60.2608 68.8863L56.2131 68.7701C56.1798 69.9304 55.9642 70.4896 55.8431 70.7032L59.3661 72.6997L62.8891 74.6962C63.8709 72.9638 64.2517 70.9807 64.3085 69.0024L60.2608 68.8863ZM59.3661 72.6997L55.7977 70.7857C55.755 70.8653 55.7268 70.8897 55.7189 70.8966C55.7098 70.9045 55.6661 70.9419 55.5449 70.9884L56.9945 74.7694L58.4441 78.5504C60.3844 77.8065 61.9399 76.4681 62.9345 74.6138L59.3661 72.6997ZM56.9945 74.7694L52.9468 74.6532L52.9443 74.7404L56.992 74.8566L61.0397 74.9727L61.0422 74.8855L56.9945 74.7694ZM56.992 74.8566L55.5741 78.6496C55.8563 78.7551 55.9386 78.8536 56.0236 79.0157C56.161 79.2776 56.3731 79.9181 56.3361 81.2072L60.3838 81.3234L64.4315 81.4395C64.4929 79.2994 64.1889 77.1476 63.1957 75.2539C62.1501 73.2604 60.4873 71.8401 58.4099 71.0636L56.992 74.8566ZM60.3838 81.3234L56.3361 81.2072L56.2611 83.8226L60.3088 83.9388L64.3565 84.0549L64.4315 81.4395L60.3838 81.3234ZM60.3088 83.9388L56.2611 83.8226C56.2138 85.4714 55.7715 86.0889 55.4993 86.346L58.2793 89.2902L61.0593 92.2345C63.358 90.0641 64.2687 87.114 64.3565 84.0549L60.3088 83.9388ZM58.2793 89.2902L55.4993 86.346C55.2829 86.5503 54.6639 86.9678 52.9377 86.9183L52.8215 90.966L52.7054 95.0137C55.7451 95.1009 58.7646 94.4013 61.0593 92.2345L58.2793 89.2902ZM52.8215 90.966L52.9377 86.9183L45.3965 86.7019L45.2803 90.7496L45.1642 94.7973L52.7054 95.0137L52.8215 90.966ZM45.2803 90.7496L49.328 90.8657L50.2036 60.3523L46.1559 60.2361L42.1082 60.12L41.2326 90.6334L45.2803 90.7496ZM52.4688 72.8508L52.3526 76.8985C53.9565 76.9446 55.9462 76.5825 57.4939 75.0298L54.626 72.1711L51.758 69.3124C52.0291 69.0405 52.3168 68.9003 52.5103 68.8394C52.6809 68.7856 52.73 68.8073 52.5849 68.8031L52.4688 72.8508ZM54.626 72.1711L57.406 75.1154C59.0771 73.5375 59.4412 71.3855 59.486 69.8238L55.4383 69.7077L51.3906 69.5915C51.3816 69.9067 51.3432 69.9919 51.3645 69.9272C51.3905 69.8485 51.5084 69.5455 51.8459 69.2268L54.626 72.1711ZM55.4383 69.7077L59.486 69.8238L59.5348 68.1238L55.4871 68.0076L51.4394 67.8915L51.3906 69.5915L55.4383 69.7077ZM55.4871 68.0076L59.5348 68.1238C59.5757 66.6981 59.4027 64.7302 58.144 63.1091L54.9456 65.5926L51.7472 68.0762C51.4886 67.7431 51.4281 67.4789 51.4242 67.4616C51.4211 67.4477 51.428 67.474 51.434 67.5502C51.4398 67.6258 51.4438 67.7378 51.4394 67.8915L55.4871 68.0076ZM54.9456 65.5926L58.2315 63.2261C56.889 61.362 54.8747 60.7979 53.2522 60.7514L53.1361 64.7991L53.0199 68.8468C53.0603 68.8479 52.8825 68.8505 52.5942 68.724C52.273 68.5832 51.9262 68.3292 51.6597 67.9592L54.9456 65.5926ZM53.1361 64.7991L53.2522 60.7514L50.9419 60.6851L50.8258 64.7328L50.7096 68.7805L53.0199 68.8468L53.1361 64.7991ZM50.8258 64.7328L46.7781 64.6166L46.5467 72.6809L50.5944 72.797L54.6421 72.9132L54.8735 64.8489L50.8258 64.7328ZM50.5944 72.797L50.4782 76.8447L52.3526 76.8985L52.4688 72.8508L52.5849 68.8031L50.7105 68.7493L50.5944 72.797ZM52.9466 86.6069L52.8304 90.6546C54.321 90.6974 56.2303 90.3602 57.7196 88.8535L54.8397 86.0068L51.9599 83.1601C52.2609 82.8556 52.5877 82.6912 52.8284 82.6149C53.0458 82.546 53.1485 82.5617 53.0627 82.5592L52.9466 86.6069ZM54.8397 86.0068L57.8095 88.7597C59.252 87.2035 59.5254 85.1771 59.5653 83.7866L55.5176 83.6704L51.4699 83.5543C51.4654 83.7082 51.4551 83.8177 51.4454 83.8887C51.4355 83.9606 51.4283 83.9787 51.4353 83.9545C51.4454 83.9199 51.539 83.6111 51.87 83.254L54.8397 86.0068ZM55.5176 83.6704L59.5653 83.7866L59.6416 81.1276L55.5939 81.0114L51.5462 80.8953L51.4699 83.5543L55.5176 83.6704ZM55.5939 81.0114L59.6416 81.1276C59.6869 79.5472 59.5346 77.1868 57.9578 75.4183L54.9354 78.1132L51.9129 80.808C51.7324 80.6055 51.6286 80.4212 51.5737 80.3028C51.5199 80.1871 51.5071 80.1228 51.5105 80.1378C51.5137 80.1519 51.5274 80.2191 51.5375 80.3526C51.5475 80.4847 51.5528 80.6635 51.5462 80.8953L55.5939 81.0114ZM54.9354 78.1132L58.1063 75.5947C56.5927 73.6889 54.3821 73.2173 52.7214 73.1697L52.6052 77.2174L52.4891 81.2651C52.7245 81.2719 52.7161 81.3037 52.563 81.2448C52.3807 81.1747 52.0544 80.9967 51.7644 80.6316L54.9354 78.1132ZM52.6052 77.2174L52.7214 73.1697L50.5854 73.1084L50.4693 77.1561L50.3532 81.2038L52.4891 81.2651L52.6052 77.2174ZM50.4693 77.1561L46.4216 77.04L46.1527 86.412L50.2004 86.5281L54.2481 86.6442L54.517 77.2723L50.4693 77.1561ZM50.2004 86.5281L50.0842 90.5758L52.8304 90.6546L52.9466 86.6069L53.0627 82.5592L50.3165 82.4804L50.2004 86.5281ZM63.7794 60.7418L63.8956 56.6941L59.8479 56.578L59.7317 60.6257L63.7794 60.7418ZM70.6232 60.9382L74.648 60.4931L74.2608 56.9915L70.7393 56.8905L70.6232 60.9382ZM73.0479 82.8646L69.023 83.3097L69.4103 86.8113L72.9317 86.9123L73.0479 82.8646ZM73.135 82.8671L73.0189 86.9148L76.5404 87.0159L77.1277 83.5423L73.135 82.8671ZM76.813 61.1158L76.9292 57.0681L73.4077 56.9671L72.8203 60.4407L76.813 61.1158ZM83.6568 61.3122L87.7045 61.4283L87.8206 57.3806L83.7729 57.2645L83.6568 61.3122ZM82.7812 91.8256L82.6651 95.8733L86.7128 95.9895L86.8289 91.9418L82.7812 91.8256ZM78.2478 91.6955L74.2001 91.5794L74.0839 95.6271L78.1316 95.7432L78.2478 91.6955ZM78.9107 68.5925L82.9584 68.7086L83.0745 64.6609L79.0268 64.5448L78.9107 68.5925ZM78.8235 68.59L78.9397 64.5423L75.4571 64.4424L74.8385 67.871L78.8235 68.59ZM74.6734 91.593L74.5572 95.6407L78.0398 95.7406L78.6584 92.3119L74.6734 91.593ZM70.663 91.4779L66.6433 91.9672L67.0643 95.4257L70.5469 95.5256L70.663 91.4779ZM67.8387 68.2748L71.8584 67.7855L71.4374 64.327L67.9548 64.2271L67.8387 68.2748ZM67.7515 68.2723L67.8676 64.2246L63.8199 64.1085L63.7038 68.1562L67.7515 68.2723ZM67.0886 91.3753L66.9724 95.423L71.0201 95.5392L71.1363 91.4915L67.0886 91.3753ZM62.9039 91.2553L58.8562 91.1391L58.74 95.1868L62.7877 95.303L62.9039 91.2553ZM63.7794 60.7418L63.6633 64.7895L70.507 64.9859L70.6232 60.9382L70.7393 56.8905L63.8956 56.6941L63.7794 60.7418ZM70.6232 60.9382L66.5983 61.3833L69.023 83.3097L73.0479 82.8646L77.0727 82.4196L74.648 60.4931L70.6232 60.9382ZM73.0479 82.8646L72.9317 86.9123L73.0189 86.9148L73.135 82.8671L73.2512 78.8194L73.164 78.8169L73.0479 82.8646ZM73.135 82.8671L77.1277 83.5423L80.8057 61.7909L76.813 61.1158L72.8203 60.4407L69.1424 82.192L73.135 82.8671ZM76.813 61.1158L76.6969 65.1635L83.5406 65.3599L83.6568 61.3122L83.7729 57.2645L76.9292 57.0681L76.813 61.1158ZM83.6568 61.3122L79.6091 61.196L78.7335 91.7095L82.7812 91.8256L86.8289 91.9418L87.7045 61.4283L83.6568 61.3122ZM82.7812 91.8256L82.8974 87.7779L78.3639 87.6478L78.2478 91.6955L78.1316 95.7432L82.6651 95.8733L82.7812 91.8256ZM78.2478 91.6955L82.2955 91.8117L82.9584 68.7086L78.9107 68.5925L74.863 68.4764L74.2001 91.5794L78.2478 91.6955ZM78.9107 68.5925L79.0268 64.5448L78.9397 64.5423L78.8235 68.59L78.7074 72.6377L78.7946 72.6402L78.9107 68.5925ZM78.8235 68.59L74.8385 67.871L70.6883 90.874L74.6734 91.593L78.6584 92.3119L82.8085 69.309L78.8235 68.59ZM74.6734 91.593L74.7895 87.5453L70.7792 87.4302L70.663 91.4779L70.5469 95.5256L74.5572 95.6407L74.6734 91.593ZM70.663 91.4779L74.6827 90.9886L71.8584 67.7855L67.8387 68.2748L63.819 68.7641L66.6433 91.9672L70.663 91.4779ZM67.8387 68.2748L67.9548 64.2271L67.8676 64.2246L67.7515 68.2723L67.6354 72.32L67.7225 72.3225L67.8387 68.2748ZM67.7515 68.2723L63.7038 68.1562L63.0409 91.2592L67.0886 91.3753L71.1363 91.4915L71.7992 68.3884L67.7515 68.2723ZM67.0886 91.3753L67.2047 87.3276L63.02 87.2076L62.9039 91.2553L62.7877 95.303L66.9724 95.423L67.0886 91.3753ZM62.9039 91.2553L66.9516 91.3714L67.8271 60.858L63.7794 60.7418L59.7317 60.6257L58.8562 91.1391L62.9039 91.2553ZM90.8586 65.8815L94.9063 65.9976L95.0225 61.9499L90.9748 61.8338L90.8586 65.8815ZM85.8457 65.7376L81.798 65.6215L81.6819 69.6692L85.7296 69.7853L85.8457 65.7376ZM85.9708 61.3786L86.0869 57.3309L82.0392 57.2147L81.9231 61.2624L85.9708 61.3786ZM100.792 61.8038L104.839 61.92L104.955 57.8723L100.908 57.7561L100.792 61.8038ZM100.667 66.1629L100.55 70.2106L104.598 70.3267L104.714 66.279L100.667 66.1629ZM95.6536 66.0191L95.7698 61.9714L91.7221 61.8552L91.6059 65.9029L95.6536 66.0191ZM94.9031 92.1734L94.787 96.2211L98.8347 96.3373L98.9509 92.2896L94.9031 92.1734ZM90.1082 92.0358L86.0605 91.9197L85.9443 95.9674L89.992 96.0835L90.1082 92.0358ZM90.8586 65.8815L90.9748 61.8338L85.9619 61.6899L85.8457 65.7376L85.7296 69.7853L90.7425 69.9292L90.8586 65.8815ZM85.8457 65.7376L89.8934 65.8538L90.0185 61.4947L85.9708 61.3786L81.9231 61.2624L81.798 65.6215L85.8457 65.7376ZM85.9708 61.3786L85.8547 65.4263L100.675 65.8515L100.792 61.8038L100.908 57.7561L86.0869 57.3309L85.9708 61.3786ZM100.792 61.8038L96.7439 61.6877L96.6188 66.0468L100.667 66.1629L104.714 66.279L104.839 61.92L100.792 61.8038ZM100.667 66.1629L100.783 62.1152L95.7698 61.9714L95.6536 66.0191L95.5375 70.0668L100.55 70.2106L100.667 66.1629ZM95.6536 66.0191L91.6059 65.9029L90.8555 92.0573L94.9031 92.1734L98.9509 92.2896L99.7013 66.1352L95.6536 66.0191ZM94.9031 92.1734L95.0193 88.1257L90.2243 87.9881L90.1082 92.0358L89.992 96.0835L94.787 96.2211L94.9031 92.1734ZM90.1082 92.0358L94.1559 92.152L94.9063 65.9976L90.8586 65.8815L86.8109 65.7653L86.0605 91.9197L90.1082 92.0358ZM110.094 62.0708L110.211 58.0231L106.163 57.9069L106.047 61.9546L110.094 62.0708ZM114.889 62.2084L118.937 62.3245L119.053 58.2768L115.006 58.1607L114.889 62.2084ZM114.139 88.3627L110.091 88.2466L109.975 92.2943L114.023 92.4104L114.139 88.3627ZM122.029 88.5891L126.077 88.7053L126.193 84.6576L122.145 84.5414L122.029 88.5891ZM121.904 92.9482L121.788 96.9959L125.835 97.112L125.952 93.0643L121.904 92.9482ZM109.219 92.5842L105.171 92.4681L105.055 96.5158L109.103 96.6319L109.219 92.5842ZM110.094 62.0708L109.978 66.1185L114.773 66.2561L114.889 62.2084L115.006 58.1607L110.211 58.0231L110.094 62.0708ZM114.889 62.2084L110.842 62.0922L110.091 88.2466L114.139 88.3627L118.187 88.4789L118.937 62.3245L114.889 62.2084ZM114.139 88.3627L114.023 92.4104L121.913 92.6368L122.029 88.5891L122.145 84.5414L114.255 84.315L114.139 88.3627ZM122.029 88.5891L117.981 88.473L117.856 92.832L121.904 92.9482L125.952 93.0643L126.077 88.7053L122.029 88.5891ZM121.904 92.9482L122.02 88.9005L109.335 88.5365L109.219 92.5842L109.103 96.6319L121.788 96.9959L121.904 92.9482ZM109.219 92.5842L113.267 92.7003L114.142 62.1869L110.094 62.0708L106.047 61.9546L105.171 92.4681L109.219 92.5842ZM125.079 62.5007L125.195 58.453L121.147 58.3369L121.031 62.3846L125.079 62.5007ZM131.922 62.6971L135.947 62.252L135.56 58.7504L132.039 58.6494L131.922 62.6971ZM134.347 84.6236L130.322 85.0686L130.71 88.5702L134.231 88.6713L134.347 84.6236ZM134.434 84.6261L134.318 88.6738L137.84 88.7748L138.427 85.3012L134.434 84.6261ZM138.112 62.8747L138.228 58.827L134.707 58.726L134.12 62.1996L138.112 62.8747ZM144.956 63.0711L149.004 63.1872L149.12 59.1395L145.072 59.0234L144.956 63.0711ZM144.081 93.5845L143.964 97.6322L148.012 97.7484L148.128 93.7007L144.081 93.5845ZM139.547 93.4544L135.499 93.3383L135.383 97.386L139.431 97.5021L139.547 93.4544ZM140.21 70.3514L144.258 70.4675L144.374 66.4198L140.326 66.3037L140.21 70.3514ZM140.123 70.3489L140.239 66.3012L136.756 66.2013L136.138 69.6299L140.123 70.3489ZM135.973 93.3519L135.857 97.3996L139.339 97.4995L139.958 94.0708L135.973 93.3519ZM131.962 93.2368L127.943 93.7261L128.364 97.1846L131.846 97.2845L131.962 93.2368ZM129.138 70.0337L133.158 69.5444L132.737 66.0859L129.254 65.986L129.138 70.0337ZM129.051 70.0312L129.167 65.9835L125.119 65.8674L125.003 69.9151L129.051 70.0312ZM128.388 93.1342L128.272 97.1819L132.319 97.2981L132.436 93.2504L128.388 93.1342ZM124.203 93.0142L120.156 92.898L120.039 96.9457L124.087 97.0619L124.203 93.0142ZM125.079 62.5007L124.963 66.5484L131.806 66.7448L131.922 62.6971L132.039 58.6494L125.195 58.453L125.079 62.5007ZM131.922 62.6971L127.898 63.1422L130.322 85.0686L134.347 84.6236L138.372 84.1785L135.947 62.252L131.922 62.6971ZM134.347 84.6236L134.231 88.6713L134.318 88.6738L134.434 84.6261L134.551 80.5784L134.463 80.5759L134.347 84.6236ZM134.434 84.6261L138.427 85.3012L142.105 63.5498L138.112 62.8747L134.12 62.1996L130.442 83.9509L134.434 84.6261ZM138.112 62.8747L137.996 66.9224L144.84 67.1188L144.956 63.0711L145.072 59.0234L138.228 58.827L138.112 62.8747ZM144.956 63.0711L140.908 62.9549L140.033 93.4684L144.081 93.5845L148.128 93.7007L149.004 63.1872L144.956 63.0711ZM144.081 93.5845L144.197 89.5368L139.663 89.4067L139.547 93.4544L139.431 97.5021L143.964 97.6322L144.081 93.5845ZM139.547 93.4544L143.595 93.5706L144.258 70.4675L140.21 70.3514L136.162 70.2353L135.499 93.3383L139.547 93.4544ZM140.21 70.3514L140.326 66.3037L140.239 66.3012L140.123 70.3489L140.007 74.3966L140.094 74.3991L140.21 70.3514ZM140.123 70.3489L136.138 69.6299L131.988 92.6329L135.973 93.3519L139.958 94.0708L144.108 71.0679L140.123 70.3489ZM135.973 93.3519L136.089 89.3042L132.078 89.1891L131.962 93.2368L131.846 97.2845L135.857 97.3996L135.973 93.3519ZM131.962 93.2368L135.982 92.7475L133.158 69.5444L129.138 70.0337L125.118 70.523L127.943 93.7261L131.962 93.2368ZM129.138 70.0337L129.254 65.986L129.167 65.9835L129.051 70.0312L128.935 74.0789L129.022 74.0814L129.138 70.0337ZM129.051 70.0312L125.003 69.9151L124.34 93.0181L128.388 93.1342L132.436 93.2504L133.099 70.1473L129.051 70.0312ZM128.388 93.1342L128.504 89.0865L124.319 88.9665L124.203 93.0142L124.087 97.0619L128.272 97.1819L128.388 93.1342ZM124.203 93.0142L128.251 93.1303L129.126 62.6169L125.079 62.5007L121.031 62.3846L120.156 92.898L124.203 93.0142ZM148.534 63.1737L148.65 59.126L144.603 59.0099L144.487 63.0576L148.534 63.1737ZM161.126 65.2801L158.146 68.0226L158.164 68.0415L158.181 68.0601L161.126 65.2801ZM161.744 75.6373L158.221 73.6408L158.198 73.6818L158.176 73.7233L161.744 75.6373ZM159.373 77.707L157.923 73.926L155.403 74.8924L155.325 77.5909L159.373 77.707ZM159.37 77.7942L155.323 77.678L155.24 80.5731L157.952 81.5872L159.37 77.7942ZM160.658 92.2279L163.438 95.1721L163.438 95.1721L160.658 92.2279ZM147.659 93.6872L143.611 93.571L143.495 97.6187L147.543 97.7349L147.659 93.6872ZM157.004 75.1087L154.224 72.1644L154.18 72.2065L154.136 72.25L157.004 75.1087ZM157.324 68.5303L154.038 70.8968L154.081 70.9561L154.126 71.0138L157.324 68.5303ZM153.204 67.6704L153.32 63.6227L149.273 63.5066L149.156 67.5543L153.204 67.6704ZM152.973 75.7347L148.925 75.6185L148.809 79.6662L152.857 79.7824L152.973 75.7347ZM157.218 88.9444L160.098 91.7912L160.144 91.7449L160.188 91.6973L157.218 88.9444ZM157.314 81.0508L154.143 83.5692L154.215 83.6595L154.291 83.7456L157.314 81.0508ZM152.848 80.0937L152.964 76.046L148.916 75.9299L148.8 79.9776L152.848 80.0937ZM152.579 89.4657L148.531 89.3496L148.415 93.3973L152.463 93.5134L152.579 89.4657ZM148.534 63.1737L148.418 67.2214L155.654 67.4291L155.77 63.3814L155.886 59.3337L148.65 59.126L148.534 63.1737ZM155.77 63.3814L155.654 67.4291C157.594 67.4847 158.095 67.9668 158.146 68.0226L161.126 65.2801L164.105 62.5376C161.956 60.2035 158.886 59.4198 155.886 59.3337L155.77 63.3814ZM161.126 65.2801L158.181 68.0601C158.252 68.1353 158.679 68.6596 158.626 70.4872L162.674 70.6033L166.722 70.7195C166.806 67.7812 166.2 64.7566 164.07 62.5001L161.126 65.2801ZM162.674 70.6033L158.626 70.4872L158.591 71.7077L162.639 71.8239L166.687 71.94L166.722 70.7195L162.674 70.6033ZM162.639 71.8239L158.591 71.7077C158.558 72.868 158.343 73.4272 158.221 73.6408L161.744 75.6373L165.267 77.6339C166.249 75.9014 166.63 73.9183 166.687 71.94L162.639 71.8239ZM161.744 75.6373L158.176 73.7233C158.133 73.8029 158.105 73.8273 158.097 73.8342C158.088 73.8421 158.044 73.8795 157.923 73.926L159.373 77.707L160.822 81.488C162.763 80.7441 164.318 79.4057 165.313 77.5514L161.744 75.6373ZM159.373 77.707L155.325 77.5909L155.323 77.678L159.37 77.7942L163.418 77.9103L163.421 77.8231L159.373 77.707ZM159.37 77.7942L157.952 81.5872C158.235 81.6927 158.317 81.7912 158.402 81.9533C158.539 82.2152 158.751 82.8558 158.714 84.1448L162.762 84.261L166.81 84.3771C166.871 82.237 166.567 80.0852 165.574 78.1916C164.528 76.1981 162.866 74.7777 160.788 74.0012L159.37 77.7942ZM162.762 84.261L158.714 84.1448L158.639 86.7603L162.687 86.8764L166.735 86.9926L166.81 84.3771L162.762 84.261ZM162.687 86.8764L158.639 86.7603C158.592 88.409 158.15 89.0265 157.878 89.2836L160.658 92.2279L163.438 95.1721C165.736 93.0017 166.647 90.0516 166.735 86.9926L162.687 86.8764ZM160.658 92.2279L157.878 89.2836C157.661 89.4879 157.042 89.9054 155.316 89.8559L155.2 93.9036L155.084 97.9513C158.123 98.0385 161.143 97.3389 163.438 95.1721L160.658 92.2279ZM155.2 93.9036L155.316 89.8559L147.775 89.6395L147.659 93.6872L147.543 97.7349L155.084 97.9513L155.2 93.9036ZM147.659 93.6872L151.706 93.8033L152.582 63.2899L148.534 63.1737L144.487 63.0576L143.611 93.571L147.659 93.6872ZM154.847 75.7884L154.731 79.8361C156.335 79.8822 158.325 79.5201 159.872 77.9674L157.004 75.1087L154.136 72.25C154.407 71.9781 154.695 71.838 154.889 71.777C155.059 71.7232 155.108 71.7449 154.963 71.7407L154.847 75.7884ZM157.004 75.1087L159.784 78.053C161.456 76.4751 161.82 74.3231 161.864 72.7614L157.817 72.6453L153.769 72.5291C153.76 72.8443 153.722 72.9295 153.743 72.8648C153.769 72.7861 153.887 72.4831 154.224 72.1644L157.004 75.1087ZM157.817 72.6453L161.864 72.7614L161.913 71.0614L157.865 70.9453L153.818 70.8291L153.769 72.5291L157.817 72.6453ZM157.865 70.9453L161.913 71.0614C161.954 69.6358 161.781 67.6678 160.522 66.0468L157.324 68.5303L154.126 71.0138C153.867 70.6807 153.806 70.4166 153.803 70.3992C153.799 70.3853 153.806 70.4116 153.812 70.4878C153.818 70.5634 153.822 70.6754 153.818 70.8291L157.865 70.9453ZM157.324 68.5303L160.61 66.1637C159.267 64.2997 157.253 63.7355 155.631 63.689L155.514 67.7367L155.398 71.7844C155.439 71.7855 155.261 71.7881 154.973 71.6616C154.651 71.5208 154.305 71.2668 154.038 70.8968L157.324 68.5303ZM155.514 67.7367L155.631 63.689L153.32 63.6227L153.204 67.6704L153.088 71.7181L155.398 71.7844L155.514 67.7367ZM153.204 67.6704L149.156 67.5543L148.925 75.6185L152.973 75.7347L157.02 75.8508L157.252 67.7865L153.204 67.6704ZM152.973 75.7347L152.857 79.7824L154.731 79.8361L154.847 75.7884L154.963 71.7407L153.089 71.687L152.973 75.7347ZM155.325 89.5445L155.209 93.5922C156.699 93.635 158.609 93.2978 160.098 91.7912L157.218 88.9444L154.338 86.0977C154.639 85.7932 154.966 85.6288 155.207 85.5525C155.424 85.4836 155.527 85.4993 155.441 85.4968L155.325 89.5445ZM157.218 88.9444L160.188 91.6973C161.63 90.1411 161.904 88.1147 161.944 86.7242L157.896 86.608L153.848 86.4919C153.844 86.6458 153.833 86.7553 153.824 86.8264C153.814 86.8982 153.807 86.9163 153.814 86.8921C153.824 86.8575 153.917 86.5487 154.248 86.1916L157.218 88.9444ZM157.896 86.608L161.944 86.7242L162.02 84.0652L157.972 83.949L153.925 83.8329L153.848 86.4919L157.896 86.608ZM157.972 83.949L162.02 84.0652C162.065 82.4849 161.913 80.1244 160.336 78.356L157.314 81.0508L154.291 83.7456C154.111 83.5431 154.007 83.3588 153.952 83.2404C153.898 83.1247 153.885 83.0604 153.889 83.0754C153.892 83.0896 153.906 83.1567 153.916 83.2902C153.926 83.4224 153.931 83.6011 153.925 83.8329L157.972 83.949ZM157.314 81.0508L160.485 78.5323C158.971 76.6265 156.76 76.155 155.1 76.1073L154.984 80.155L154.867 84.2027C155.103 84.2095 155.094 84.2413 154.941 84.1824C154.759 84.1123 154.433 83.9343 154.143 83.5692L157.314 81.0508ZM154.984 80.155L155.1 76.1073L152.964 76.046L152.848 80.0937L152.732 84.1414L154.867 84.2027L154.984 80.155ZM152.848 80.0937L148.8 79.9776L148.531 89.3496L152.579 89.4657L156.626 89.5819L156.895 80.2099L152.848 80.0937ZM152.579 89.4657L152.463 93.5134L155.209 93.5922L155.325 89.5445L155.441 85.4968L152.695 85.418L152.579 89.4657ZM173.139 63.8798L173.255 59.8321L169.208 59.7159L169.091 63.7636L173.139 63.8798ZM177.934 64.0173L181.982 64.1335L182.098 60.0858L178.05 59.9696L177.934 64.0173ZM177.059 94.5308L176.942 98.5785L180.99 98.6946L181.106 94.6469L177.059 94.5308ZM172.264 94.3932L168.216 94.277L168.1 98.3247L172.147 98.4409L172.264 94.3932ZM173.139 63.8798L173.023 67.9275L177.818 68.065L177.934 64.0173L178.05 59.9696L173.255 59.8321L173.139 63.8798ZM177.934 64.0173L173.886 63.9012L173.011 94.4146L177.059 94.5308L181.106 94.6469L181.982 64.1335L177.934 64.0173ZM177.059 94.5308L177.175 90.4831L172.38 90.3455L172.264 94.3932L172.147 98.4409L176.942 98.5785L177.059 94.5308ZM172.264 94.3932L176.311 94.5093L177.187 63.9959L173.139 63.8798L169.091 63.7636L168.216 94.277L172.264 94.3932ZM185.149 68.587L189.197 68.7032L189.313 64.6555L185.265 64.5393L185.149 68.587ZM180.136 68.4432L176.088 68.327L175.972 72.3747L180.02 72.4909L180.136 68.4432ZM180.261 64.0841L180.377 60.0364L176.33 59.9203L176.213 63.968L180.261 64.0841ZM195.082 64.5094L199.13 64.6255L199.246 60.5778L195.198 60.4617L195.082 64.5094ZM194.957 68.8684L194.841 72.9161L198.888 73.0323L199.005 68.9846L194.957 68.8684ZM189.944 68.7246L190.06 64.6769L186.012 64.5608L185.896 68.6085L189.944 68.7246ZM189.193 94.879L189.077 98.9267L193.125 99.0428L193.241 94.9951L189.193 94.879ZM184.398 94.7414L180.351 94.6252L180.235 98.6729L184.282 98.7891L184.398 94.7414ZM185.149 68.587L185.265 64.5393L180.252 64.3955L180.136 68.4432L180.02 72.4909L185.033 72.6347L185.149 68.587ZM180.136 68.4432L184.184 68.5593L184.309 64.2003L180.261 64.0841L176.213 63.968L176.088 68.327L180.136 68.4432ZM180.261 64.0841L180.145 68.1318L194.966 68.5571L195.082 64.5094L195.198 60.4617L180.377 60.0364L180.261 64.0841ZM195.082 64.5094L191.034 64.3932L190.909 68.7523L194.957 68.8684L199.005 68.9846L199.13 64.6255L195.082 64.5094ZM194.957 68.8684L195.073 64.8207L190.06 64.6769L189.944 68.7246L189.828 72.7723L194.841 72.9161L194.957 68.8684ZM189.944 68.7246L185.896 68.6085L185.146 94.7628L189.193 94.879L193.241 94.9951L193.992 68.8407L189.944 68.7246ZM189.193 94.879L189.31 90.8313L184.515 90.6937L184.398 94.7414L184.282 98.7891L189.077 98.9267L189.193 94.879ZM184.398 94.7414L188.446 94.8575L189.197 68.7032L185.149 68.587L181.101 68.4709L180.351 94.6252L184.398 94.7414ZM197.531 93.5913L194.432 96.1978L194.446 96.2147L194.46 96.2315L197.531 93.5913ZM195.957 86.086L196.073 82.0383L192.026 81.9221L191.91 85.9698L195.957 86.086ZM200.491 86.2161L204.538 86.3322L204.655 82.2845L200.607 82.1684L200.491 86.2161ZM204.681 90.699L201.723 87.9338L201.717 87.94L201.711 87.9461L204.681 90.699ZM204.627 84.9823L201.079 86.9345L201.092 86.9578L201.105 86.9809L204.627 84.9823ZM201.503 81.3589L198.738 84.3172L198.748 84.3266L198.758 84.3359L201.503 81.3589ZM197.497 76.5323L193.895 78.384L193.904 78.3998L193.912 78.4155L197.497 76.5323ZM198.448 66.1765L201.328 69.0232L201.344 69.0075L201.359 68.9915L198.448 66.1765ZM208.954 66.478L205.823 69.0463L205.853 69.0826L205.883 69.1182L208.954 66.478ZM210.542 73.4601L210.426 77.5078L214.473 77.624L214.59 73.5763L210.542 73.4601ZM206.008 73.3301L201.961 73.2139L201.845 77.2616L205.892 77.3778L206.008 73.3301ZM205.508 69.4766L202.31 71.9601L202.347 72.0079L202.386 72.0546L205.508 69.4766ZM202.044 74.656L198.522 76.6546L198.544 76.6931L198.567 76.7311L202.044 74.656ZM205.213 78.237L202.468 81.214L202.47 81.2153L205.213 78.237ZM209.218 83.1072L205.588 84.9019V84.9019L209.218 83.1072ZM208.168 93.8529L205.29 91.0039L205.274 91.0208L205.257 91.0379L208.168 93.8529ZM202.749 95.7042L202.865 91.6565C201.302 91.6116 200.797 91.1794 200.601 90.951L197.531 93.5913L194.46 96.2315C196.572 98.6869 199.546 99.6633 202.633 99.7519L202.749 95.7042ZM197.531 93.5913L200.63 90.9848C200.324 90.621 199.902 89.8008 199.955 87.9458L195.907 87.8296L191.86 87.7135C191.771 90.7987 192.431 93.8196 194.432 96.1978L197.531 93.5913ZM195.907 87.8296L199.955 87.9458L200.005 86.2021L195.957 86.086L191.91 85.9698L191.86 87.7135L195.907 87.8296ZM195.957 86.086L195.841 90.1337L200.375 90.2638L200.491 86.2161L200.607 82.1684L196.073 82.0383L195.957 86.086ZM200.491 86.2161L196.443 86.0999L196.383 88.1923L200.431 88.3084L204.478 88.4246L204.538 86.3322L200.491 86.2161ZM200.431 88.3084L196.383 88.1923C196.341 89.6472 196.578 91.5007 197.811 93.0606C199.155 94.7606 201.056 95.344 202.714 95.3916L202.83 91.3439L202.946 87.2962C202.926 87.2956 203.091 87.2965 203.352 87.4091C203.638 87.5323 203.933 87.7447 204.165 88.0381C204.598 88.5862 204.463 88.9457 204.478 88.4246L200.431 88.3084ZM202.83 91.3439L202.714 95.3916C204.303 95.4372 206.204 95.0125 207.651 93.4518L204.681 90.699L201.711 87.9461C201.977 87.6595 202.291 87.4738 202.571 87.3763C202.826 87.2873 202.977 87.2971 202.946 87.2962L202.83 91.3439ZM204.681 90.699L207.639 93.4641C209.077 91.9262 209.408 89.9572 209.45 88.48L205.403 88.3638L201.355 88.2477C201.347 88.5287 201.314 88.6108 201.33 88.5588C201.349 88.4977 201.443 88.2337 201.723 87.9338L204.681 90.699ZM205.403 88.3638L209.45 88.48C209.505 86.5675 209.117 84.6893 208.149 82.9837L204.627 84.9823L201.105 86.9809C201.245 87.2267 201.373 87.6028 201.355 88.2477L205.403 88.3638ZM204.627 84.9823L208.175 83.0302C207.305 81.4498 205.882 79.889 204.248 78.382L201.503 81.3589L198.758 84.3359C200.183 85.6506 200.843 86.5055 201.079 86.9345L204.627 84.9823ZM201.503 81.3589L204.268 78.4007C202.488 76.7368 201.523 75.4889 201.081 74.6491L197.497 76.5323L193.912 78.4155C194.96 80.4106 196.665 82.3804 198.738 84.3172L201.503 81.3589ZM197.497 76.5323L201.098 74.6806C200.694 73.8958 200.472 72.9726 200.505 71.8197L196.457 71.7036L192.41 71.5874C192.341 73.98 192.811 76.2759 193.895 78.384L197.497 76.5323ZM196.457 71.7036L200.505 71.8197C200.555 70.0692 201.012 69.3434 201.328 69.0232L198.448 66.1765L195.568 63.3298C193.369 65.555 192.498 68.5139 192.41 71.5874L196.457 71.7036ZM198.448 66.1765L201.359 68.9915C201.616 68.7258 202.177 68.3277 203.708 68.3716L203.824 64.3239L203.94 60.2762C200.821 60.1868 197.798 61.0238 195.537 63.3615L198.448 66.1765ZM203.824 64.3239L203.708 68.3716C205.202 68.4145 205.649 68.8339 205.823 69.0463L208.954 66.478L212.084 63.9096C210.01 61.3817 207.037 60.3651 203.94 60.2762L203.824 64.3239ZM208.954 66.478L205.883 69.1182C206.158 69.4378 206.584 70.2178 206.53 72.0799L210.578 72.196L214.626 72.3122C214.714 69.234 214.057 66.2019 212.024 63.8377L208.954 66.478ZM210.578 72.196L206.53 72.0799L206.494 73.344L210.542 73.4601L214.59 73.5763L214.626 72.3122L210.578 72.196ZM210.542 73.4601L210.658 69.4124L206.125 69.2824L206.008 73.3301L205.892 77.3778L210.426 77.5078L210.542 73.4601ZM206.008 73.3301L210.056 73.4462L210.101 71.8769L206.053 71.7608L202.006 71.6447L201.961 73.2139L206.008 73.3301ZM206.053 71.7608L210.101 71.8769C210.141 70.4766 209.957 68.5048 208.631 66.8986L205.508 69.4766L202.386 72.0546C202.098 71.7067 202.016 71.41 202.001 71.3453C201.987 71.2864 202.014 71.3656 202.006 71.6447L206.053 71.7608ZM205.508 69.4766L208.707 66.9931C207.405 65.3174 205.552 64.6852 203.858 64.6366L203.742 68.6843L203.626 72.732C203.599 72.7312 203.399 72.7213 203.115 72.5938C202.809 72.4566 202.523 72.2352 202.31 71.9601L205.508 69.4766ZM203.742 68.6843L203.858 64.6366C202.201 64.589 200.284 65.0777 198.868 66.7048C197.583 68.1825 197.254 69.9952 197.213 71.4199L201.261 71.536L205.309 71.6522C205.324 71.1298 205.437 71.4937 204.978 72.0208C204.729 72.3069 204.415 72.5145 204.103 72.6307C203.817 72.7376 203.63 72.7321 203.626 72.732L203.742 68.6843ZM201.261 71.536L197.213 71.4199C197.16 73.2759 197.609 75.0458 198.522 76.6546L202.044 74.656L205.566 72.6574C205.371 72.3148 205.299 72.0048 205.309 71.6522L201.261 71.536ZM202.044 74.656L198.567 76.7311C199.45 78.2117 200.847 79.7194 202.468 81.214L205.213 78.237L207.958 75.2601C206.519 73.933 205.803 73.0533 205.521 72.5809L202.044 74.656ZM205.213 78.237L202.47 81.2153C204.265 82.8693 205.191 84.098 205.588 84.9019L209.218 83.1072L212.848 81.3126C211.816 79.2252 210.072 77.2071 207.957 75.2588L205.213 78.237ZM209.218 83.1072L205.588 84.9019C205.959 85.6514 206.199 86.6549 206.16 88.0365L210.208 88.1527L214.255 88.2688C214.326 85.8145 213.907 83.4544 212.848 81.3126L209.218 83.1072ZM210.208 88.1527L206.16 88.0365C206.107 89.89 205.626 90.6644 205.29 91.0039L208.168 93.8529L211.046 96.7018C213.285 94.4395 214.165 91.4138 214.255 88.2688L210.208 88.1527ZM208.168 93.8529L205.257 91.0379C205.01 91.2937 204.443 91.7018 202.865 91.6565L202.749 95.7042L202.633 99.7519C205.763 99.8417 208.808 99.0156 211.079 96.6679L208.168 93.8529ZM220.942 86.8902L224.581 88.6657L224.588 88.653L224.594 88.6402L220.942 86.8902ZM224.84 81.8104L227.689 84.6882L227.7 84.6767L227.712 84.665L224.84 81.8104ZM228.64 77.0769L225.105 75.1016L225.088 75.1321L225.072 75.1629L228.64 77.0769ZM229.23 70.2009L225.964 72.5942L226.038 72.6954L226.118 72.7918L229.23 70.2009ZM224.757 75.5695L224.641 79.6172L228.689 79.7333L228.805 75.6856L224.757 75.5695ZM220.224 75.4394L216.176 75.3232L216.06 79.3709L220.107 79.4871L220.224 75.4394ZM222.302 66.861L225.182 69.7077L225.198 69.6919L225.213 69.676L222.302 66.861ZM232.938 67.1662L229.871 69.8096L229.885 69.8264L229.9 69.8431L232.938 67.1662ZM233.099 78.2955L229.543 76.3582L229.53 76.3815L229.518 76.405L233.099 78.2955ZM228.347 84.2669L225.491 81.3958L225.486 81.4011L225.48 81.4064L228.347 84.2669ZM225.363 87.8895L228.883 89.8911L228.896 89.8689L228.908 89.8465L225.363 87.8895ZM224.517 91.5299L220.47 91.4137L220.353 95.4614L224.401 95.5776L224.517 91.5299ZM233.628 91.7913L237.675 91.9074L237.792 87.8597L233.744 87.7436L233.628 91.7913ZM233.503 96.1504L233.386 100.198L237.434 100.314L237.55 96.2665L233.503 96.1504ZM219.641 95.7526L215.593 95.6365L215.477 99.6842L219.525 99.8003L219.641 95.7526ZM219.736 92.4397L223.784 92.5559C223.834 90.7923 224.154 89.5413 224.581 88.6657L220.942 86.8902L217.303 85.1146C216.247 87.2793 215.763 89.7281 215.688 92.3236L219.736 92.4397ZM220.942 86.8902L224.594 88.6402C225.059 87.6688 226.009 86.3506 227.689 84.6882L224.84 81.8104L221.991 78.9326C219.958 80.9447 218.31 83.013 217.29 85.1401L220.942 86.8902ZM224.84 81.8104L227.712 84.665C229.644 82.7206 231.229 80.8172 232.209 78.991L228.64 77.0769L225.072 75.1629C224.638 75.9719 223.689 77.2241 221.968 78.9558L224.84 81.8104ZM228.64 77.0769L232.175 79.0522C233.217 77.1883 233.793 75.1684 233.854 73.0384L229.806 72.9223L225.759 72.8061C225.736 73.5822 225.535 74.332 225.105 75.1016L228.64 77.0769ZM229.806 72.9223L233.854 73.0384C233.896 71.5761 233.777 69.3336 232.342 67.6099L229.23 70.2009L226.118 72.7918C225.94 72.5777 225.84 72.3869 225.789 72.2687C225.738 72.1522 225.726 72.0872 225.729 72.1001C225.731 72.1116 225.743 72.1737 225.752 72.2985C225.761 72.422 225.765 72.5892 225.759 72.8061L229.806 72.9223ZM229.23 70.2009L232.497 67.8075C231.198 66.0349 229.285 65.3661 227.538 65.316L227.422 69.3637L227.306 73.4114C227.285 73.4108 227.078 73.4018 226.783 73.2652C226.464 73.1175 226.174 72.8806 225.964 72.5942L229.23 70.2009ZM227.422 69.3637L227.538 65.316C225.86 65.2679 223.923 65.7576 222.49 67.3947C221.183 68.8873 220.845 70.7256 220.803 72.184L224.851 72.3002L228.899 72.4163C228.914 71.8696 229.033 72.2159 228.583 72.7296C228.34 73.0078 228.034 73.2072 227.736 73.3176C227.463 73.4188 227.292 73.411 227.306 73.4114L227.422 69.3637ZM224.851 72.3002L220.803 72.184L220.709 75.4533L224.757 75.5695L228.805 75.6856L228.899 72.4163L224.851 72.3002ZM224.757 75.5695L224.873 71.5218L220.34 71.3917L220.224 75.4394L220.107 79.4871L224.641 79.6172L224.757 75.5695ZM220.224 75.4394L224.271 75.5555L224.356 72.5914L220.309 72.4752L216.261 72.3591L216.176 75.3232L220.224 75.4394ZM220.309 72.4752L224.356 72.5914C224.409 70.7522 224.881 70.012 225.182 69.7077L222.302 66.861L219.422 64.0142C217.207 66.2554 216.35 69.2579 216.261 72.3591L220.309 72.4752ZM222.302 66.861L225.213 69.676C225.47 69.4102 226.031 69.0122 227.562 69.0561L227.678 65.0084L227.794 60.9607C224.675 60.8712 221.652 61.7082 219.391 64.046L222.302 66.861ZM227.678 65.0084L227.562 69.0561C229.092 69.1 229.629 69.5296 229.871 69.8096L232.938 67.1662L236.006 64.5227C233.883 62.0592 230.913 61.0502 227.794 60.9607L227.678 65.0084ZM232.938 67.1662L229.9 69.8431C230.183 70.1641 230.611 70.9302 230.559 72.7693L234.606 72.8855L238.654 73.0016C238.743 69.9005 238.06 66.8537 235.977 64.4893L232.938 67.1662ZM234.606 72.8855L230.559 72.7693C230.525 73.9482 230.211 75.1316 229.543 76.3582L233.099 78.2955L236.655 80.2329C237.89 77.9658 238.581 75.5425 238.654 73.0016L234.606 72.8855ZM233.099 78.2955L229.518 76.405C228.866 77.6405 227.599 79.2995 225.491 81.3958L228.347 84.2669L231.202 87.138C233.585 84.7679 235.487 82.4459 236.68 80.1861L233.099 78.2955ZM228.347 84.2669L225.48 81.4064C223.944 82.9457 222.621 84.4775 221.818 85.9326L225.363 87.8895L228.908 89.8465C229.148 89.412 229.814 88.5286 231.213 87.1273L228.347 84.2669ZM225.363 87.8895L221.843 85.888C220.988 87.3921 220.538 89.037 220.488 90.7599L224.536 90.876L228.584 90.9922C228.596 90.5646 228.697 90.2185 228.883 89.8911L225.363 87.8895ZM224.536 90.876L220.488 90.7599L220.47 91.4137L224.517 91.5299L228.565 91.646L228.584 90.9922L224.536 90.876ZM224.517 91.5299L224.401 95.5776L233.512 95.839L233.628 91.7913L233.744 87.7436L224.633 87.4822L224.517 91.5299ZM233.628 91.7913L229.58 91.6752L229.455 96.0342L233.503 96.1504L237.55 96.2665L237.675 91.9074L233.628 91.7913ZM233.503 96.1504L233.619 92.1027L219.757 91.7049L219.641 95.7526L219.525 99.8003L233.386 100.198L233.503 96.1504ZM219.641 95.7526L223.688 95.8688L223.784 92.5559L219.736 92.4397L215.688 92.3236L215.593 95.6365L219.641 95.7526ZM238.752 94.7304L241.788 92.0512V92.0512L238.752 94.7304ZM239.537 67.3555L242.415 70.2045V70.2045L239.537 67.3555ZM250.348 67.6657L247.312 70.345V70.345L250.348 67.6657ZM249.562 95.0406L246.685 92.1917V92.1917L249.562 95.0406ZM244.1 96.8907L244.216 92.843C242.643 92.7979 242.059 92.3584 241.788 92.0512L238.752 94.7304L235.716 97.4097C237.867 99.8477 240.848 100.848 243.983 100.938L244.1 96.8907ZM238.752 94.7304L241.788 92.0512C241.457 91.6762 241.037 90.8913 241.088 89.126L237.04 89.0099L232.992 88.8937C232.903 92.0106 233.624 95.0394 235.716 97.4097L238.752 94.7304ZM237.04 89.0099L241.088 89.126L241.548 73.0847L237.5 72.9685L233.453 72.8524L232.992 88.8937L237.04 89.0099ZM237.5 72.9685L241.548 73.0847C241.599 71.3194 242.063 70.5598 242.415 70.2045L239.537 67.3555L236.66 64.5066C234.436 66.7531 233.542 69.7355 233.453 72.8524L237.5 72.9685ZM239.537 67.3555L242.415 70.2045C242.703 69.9133 243.312 69.508 244.884 69.5532L245 65.5054L245.116 61.4577C241.981 61.3678 238.947 62.1959 236.66 64.5066L239.537 67.3555ZM245 65.5054L244.884 69.5532C246.456 69.5983 247.041 70.0377 247.312 70.345L250.348 67.6657L253.384 64.9865C251.233 62.5484 248.252 61.5477 245.116 61.4577L245 65.5054ZM250.348 67.6657L247.312 70.345C247.642 70.7199 248.063 71.5049 248.012 73.2701L252.06 73.3863L256.107 73.5024C256.197 70.3855 255.476 67.3568 253.384 64.9865L250.348 67.6657ZM252.06 73.3863L248.012 73.2701L247.552 89.3115L251.599 89.4276L255.647 89.5438L256.107 73.5024L252.06 73.3863ZM251.599 89.4276L247.552 89.3115C247.501 91.0767 247.037 91.8363 246.685 92.1917L249.562 95.0406L252.44 97.8896C254.664 95.6431 255.558 92.6607 255.647 89.5438L251.599 89.4276ZM249.562 95.0406L246.685 92.1917C246.396 92.4829 245.788 92.8881 244.216 92.843L244.1 96.8907L243.983 100.938C247.119 101.028 250.152 100.2 252.44 97.8896L249.562 95.0406ZM244.225 92.5316L244.109 96.5793C245.786 96.6275 247.723 96.1377 249.156 94.5006C250.463 93.0081 250.802 91.1697 250.843 89.7113L246.796 89.5952L242.748 89.479C242.732 90.0258 242.613 89.6794 243.063 89.1657C243.307 88.8876 243.612 88.6882 243.91 88.5777C244.183 88.4766 244.355 88.4843 244.341 88.4839L244.225 92.5316ZM246.796 89.5952L250.843 89.7113L251.321 73.0597L247.273 72.9436L243.226 72.8274L242.748 89.479L246.796 89.5952ZM247.273 72.9436L251.321 73.0597C251.363 71.6013 251.131 69.7466 249.912 68.1816C248.575 66.465 246.669 65.8649 244.991 65.8168L244.875 69.8645L244.759 73.9122C244.773 73.9126 244.601 73.9105 244.334 73.7939C244.043 73.6665 243.75 73.4499 243.522 73.1583C243.103 72.6196 243.241 72.2807 243.226 72.8274L247.273 72.9436ZM244.875 69.8645L244.991 65.8168C243.314 65.7687 241.377 66.2584 239.943 67.8955C238.637 69.3881 238.298 71.2264 238.256 72.6848L242.304 72.801L246.352 72.9171C246.368 72.3704 246.486 72.7167 246.037 73.2304C245.793 73.5086 245.488 73.708 245.19 73.8184C244.917 73.9196 244.745 73.9118 244.759 73.9122L244.875 69.8645ZM242.304 72.801L238.256 72.6848L237.779 89.3364L241.826 89.4526L245.874 89.5687L246.352 72.9171L242.304 72.801ZM241.826 89.4526L237.779 89.3364C237.737 90.7949 237.969 92.6496 239.188 94.2146C240.525 95.9312 242.431 96.5312 244.109 96.5793L244.225 92.5316L244.341 88.4839C244.327 88.4835 244.499 88.4856 244.765 88.6023C245.057 88.7296 245.35 88.9462 245.577 89.2379C245.997 89.7765 245.858 90.1155 245.874 89.5687L241.826 89.4526ZM255.849 87.8917L259.488 89.6673L259.494 89.6546L259.5 89.6418L255.849 87.8917ZM259.746 82.812L262.595 85.6898L262.607 85.6783L262.618 85.6666L259.746 82.812ZM263.547 78.0785L260.012 76.1032L259.995 76.1337L259.978 76.1645L263.547 78.0785ZM264.137 71.2025L260.87 73.5958L260.944 73.697L261.025 73.7934L264.137 71.2025ZM259.664 76.5711L259.547 80.6188L263.595 80.7349L263.711 76.6872L259.664 76.5711ZM255.13 76.441L251.083 76.3248L250.966 80.3725L255.014 80.4887L255.13 76.441ZM257.209 67.8626L260.089 70.7093L260.104 70.6935L260.12 70.6776L257.209 67.8626ZM267.845 68.1678L264.777 70.8112L264.792 70.828L264.806 70.8447L267.845 68.1678ZM268.005 79.2971L264.449 77.3598L264.437 77.3831L264.424 77.4066L268.005 79.2971ZM263.253 85.2685L260.398 82.3974L260.392 82.4027L260.387 82.408L263.253 85.2685ZM260.27 88.8911L263.79 90.8927L263.803 90.8705L263.815 90.8481L260.27 88.8911ZM259.424 92.5315L255.376 92.4153L255.26 96.463L259.308 96.5792L259.424 92.5315ZM268.534 92.7929L272.582 92.909L272.698 88.8613L268.65 88.7452L268.534 92.7929ZM268.409 97.152L268.293 101.2L272.341 101.316L272.457 97.2681L268.409 97.152ZM254.547 96.7542L250.5 96.6381L250.383 100.686L254.431 100.802L254.547 96.7542ZM254.642 93.4413L258.69 93.5575C258.741 91.7939 259.061 90.5429 259.488 89.6673L255.849 87.8917L252.209 86.1162C251.153 88.2809 250.669 90.7297 250.595 93.3252L254.642 93.4413ZM255.849 87.8917L259.5 89.6418C259.966 88.6704 260.916 87.3522 262.595 85.6898L259.746 82.812L256.898 79.9342C254.865 81.9463 253.216 84.0146 252.197 86.1417L255.849 87.8917ZM259.746 82.812L262.618 85.6666C264.551 83.7222 266.136 81.8188 267.115 79.9926L263.547 78.0785L259.978 76.1645C259.544 76.9735 258.595 78.2257 256.874 79.9574L259.746 82.812ZM263.547 78.0785L267.082 80.0538C268.123 78.1899 268.7 76.17 268.761 74.04L264.713 73.9239L260.665 73.8077C260.643 74.5838 260.442 75.3336 260.012 76.1032L263.547 78.0785ZM264.713 73.9239L268.761 74.04C268.803 72.5777 268.684 70.3352 267.249 68.6115L264.137 71.2025L261.025 73.7934C260.846 73.5793 260.747 73.3885 260.696 73.2703C260.645 73.1538 260.633 73.0888 260.636 73.1017C260.638 73.1132 260.65 73.1753 260.659 73.3001C260.667 73.4236 260.672 73.5908 260.665 73.8077L264.713 73.9239ZM264.137 71.2025L267.403 68.8091C266.104 67.0365 264.192 66.3677 262.445 66.3176L262.328 70.3653L262.212 74.413C262.191 74.4124 261.985 74.4034 261.69 74.2668C261.37 74.1191 261.08 73.8822 260.87 73.5958L264.137 71.2025ZM262.328 70.3653L262.445 66.3176C260.767 66.2695 258.83 66.7592 257.397 68.3963C256.09 69.8889 255.752 71.7272 255.71 73.1856L259.757 73.3018L263.805 73.4179C263.821 72.8712 263.94 73.2175 263.49 73.7312C263.246 74.0094 262.941 74.2088 262.643 74.3192C262.37 74.4204 262.198 74.4126 262.212 74.413L262.328 70.3653ZM259.757 73.3018L255.71 73.1856L255.616 76.4549L259.664 76.5711L263.711 76.6872L263.805 73.4179L259.757 73.3018ZM259.664 76.5711L259.78 72.5234L255.246 72.3933L255.13 76.441L255.014 80.4887L259.547 80.6188L259.664 76.5711ZM255.13 76.441L259.178 76.5571L259.263 73.593L255.215 73.4768L251.168 73.3607L251.083 76.3248L255.13 76.441ZM255.215 73.4768L259.263 73.593C259.316 71.7538 259.788 71.0136 260.089 70.7093L257.209 67.8626L254.329 65.0158C252.113 67.257 251.257 70.2595 251.168 73.3607L255.215 73.4768ZM257.209 67.8626L260.12 70.6776C260.377 70.4118 260.937 70.0138 262.468 70.0577L262.584 66.01L262.7 61.9623C259.582 61.8728 256.559 62.7098 254.298 65.0476L257.209 67.8626ZM262.584 66.01L262.468 70.0577C263.999 70.1016 264.536 70.5312 264.777 70.8112L267.845 68.1678L270.912 65.5243C268.789 63.0608 265.819 62.0518 262.7 61.9623L262.584 66.01ZM267.845 68.1678L264.806 70.8447C265.089 71.1657 265.518 71.9318 265.465 73.7709L269.513 73.8871L273.561 74.0032C273.65 70.9021 272.966 67.8553 270.883 65.4909L267.845 68.1678ZM269.513 73.8871L265.465 73.7709C265.431 74.9498 265.118 76.1332 264.449 77.3598L268.005 79.2971L271.561 81.2345C272.796 78.9674 273.488 76.5441 273.561 74.0032L269.513 73.8871ZM268.005 79.2971L264.424 77.4066C263.772 78.6421 262.505 80.3011 260.398 82.3974L263.253 85.2685L266.109 88.1396C268.492 85.7695 270.393 83.4475 271.586 81.1877L268.005 79.2971ZM263.253 85.2685L260.387 82.408C258.851 83.9473 257.528 85.4791 256.725 86.9342L260.27 88.8911L263.815 90.8481C264.055 90.4136 264.721 89.5302 266.119 88.1289L263.253 85.2685ZM260.27 88.8911L256.75 86.8896C255.895 88.3937 255.444 90.0386 255.395 91.7615L259.443 91.8776L263.49 91.9938C263.503 91.5662 263.604 91.2201 263.79 90.8927L260.27 88.8911ZM259.443 91.8776L255.395 91.7615L255.376 92.4153L259.424 92.5315L263.471 92.6476L263.49 91.9938L259.443 91.8776ZM259.424 92.5315L259.308 96.5792L268.418 96.8406L268.534 92.7929L268.65 88.7452L259.54 88.4838L259.424 92.5315ZM268.534 92.7929L264.487 92.6768L264.361 97.0358L268.409 97.152L272.457 97.2681L272.582 92.909L268.534 92.7929ZM268.409 97.152L268.525 93.1043L254.663 92.7065L254.547 96.7542L254.431 100.802L268.293 101.2L268.409 97.152ZM254.547 96.7542L258.595 96.8704L258.69 93.5575L254.642 93.4413L250.595 93.3252L250.5 96.6381L254.547 96.7542ZM273.789 95.7358L270.753 98.415L273.789 95.7358ZM285.342 68.6698L282.274 71.3133L282.289 71.3301L282.303 71.3467L285.342 68.6698ZM286.994 74.9558L286.877 79.0035L290.925 79.1197L291.041 75.072L286.994 74.9558ZM282.46 74.8257L278.412 74.7096L278.296 78.7573L282.344 78.8734L282.46 74.8257ZM277.153 80.3885L273.105 80.2724L272.989 84.3201L277.036 84.4362L277.153 80.3885ZM277.24 80.391L277.124 84.4387L279.681 84.5121L280.846 82.2338L277.24 80.391ZM284.6 96.046L287.477 98.8949V98.8949L284.6 96.046ZM279.137 97.896L279.253 93.8483C277.681 93.8032 277.097 93.3638 276.826 93.0565L273.789 95.7358L270.753 98.415C272.904 100.853 275.885 101.854 279.021 101.944L279.137 97.896ZM273.789 95.7358L276.826 93.0565C276.495 92.6816 276.075 91.8966 276.125 90.1314L272.077 90.0152L268.03 89.8991C267.94 93.016 268.661 96.0447 270.753 98.415L273.789 95.7358ZM272.077 90.0152L276.125 90.1314L276.578 74.3516L272.53 74.2354L268.483 74.1193L268.03 89.8991L272.077 90.0152ZM272.53 74.2354L276.578 74.3516C276.638 72.2542 277.152 71.4498 277.427 71.1686C277.644 70.9471 278.235 70.5101 279.965 70.5598L280.081 66.5121L280.197 62.4644C277.045 62.3739 273.937 63.1541 271.636 65.507C269.394 67.8003 268.574 70.9277 268.483 74.1193L272.53 74.2354ZM280.081 66.5121L279.965 70.5598C281.496 70.6037 282.033 71.0332 282.274 71.3133L285.342 68.6698L288.409 66.0263C286.286 63.5628 283.316 62.5538 280.197 62.4644L280.081 66.5121ZM285.342 68.6698L282.303 71.3467C282.586 71.6677 283.015 72.4339 282.962 74.273L287.01 74.3891L291.058 74.5053C291.147 71.4041 290.463 68.3574 288.38 65.9929L285.342 68.6698ZM287.01 74.3891L282.962 74.273L282.946 74.8397L286.994 74.9558L291.041 75.072L291.058 74.5053L287.01 74.3891ZM286.994 74.9558L287.11 70.9081L282.576 70.778L282.46 74.8257L282.344 78.8734L286.877 79.0035L286.994 74.9558ZM282.46 74.8257L286.508 74.9419L286.533 74.0701L282.485 73.9539L278.437 73.8378L278.412 74.7096L282.46 74.8257ZM282.485 73.9539L286.533 74.0701C286.575 72.6116 286.342 70.7569 285.123 69.1919C283.786 67.4753 281.88 66.8753 280.203 66.8272L280.087 70.8749L279.971 74.9226C279.985 74.923 279.813 74.9209 279.546 74.8042C279.255 74.6769 278.961 74.4603 278.734 74.1686C278.315 73.63 278.453 73.291 278.437 73.8378L282.485 73.9539ZM280.087 70.8749L280.203 66.8272C278.442 66.7766 276.415 67.2994 274.953 69.0463L278.058 71.6456L281.163 74.2448C280.931 74.5219 280.633 74.7231 280.342 74.8336C280.079 74.9336 279.924 74.9212 279.971 74.9226L280.087 70.8749ZM278.058 71.6456L274.953 69.0463C273.568 70.7004 273.317 72.882 273.273 74.4312L277.32 74.5474L281.368 74.6635C281.375 74.4181 281.39 74.2214 281.409 74.0679C281.428 73.9133 281.448 73.8188 281.459 73.7734C281.471 73.7266 281.468 73.7538 281.432 73.8317C281.396 73.9102 281.315 74.063 281.163 74.2448L278.058 71.6456ZM277.32 74.5474L273.273 74.4312L273.105 80.2724L277.153 80.3885L281.2 80.5047L281.368 74.6635L277.32 74.5474ZM277.153 80.3885L277.036 84.4362L277.124 84.4387L277.24 80.391L277.356 76.3433L277.269 76.3408L277.153 80.3885ZM277.24 80.391L280.846 82.2338C280.923 82.0825 280.983 82.0094 281.008 81.9822C281.029 81.9583 281.035 81.9581 281.028 81.9622C280.996 81.9803 281.113 81.892 281.559 81.9048L281.675 77.8571L281.791 73.8094C280.174 73.763 278.52 74.0674 277.01 74.9301C275.487 75.8002 274.383 77.083 273.634 78.5482L277.24 80.391ZM281.675 77.8571L281.559 81.9048C281.971 81.9166 282.15 81.9916 282.193 82.0126C282.216 82.0237 282.226 82.0313 282.232 82.0364C282.238 82.0419 282.259 82.0606 282.292 82.1067L285.591 79.7581L288.889 77.4095C287.158 74.9771 284.563 73.8889 281.791 73.8094L281.675 77.8571ZM285.591 79.7581L282.292 82.1067C282.443 82.3194 282.798 83.0506 282.745 84.868L286.793 84.9842L290.841 85.1003C290.919 82.3843 290.471 79.6314 288.889 77.4095L285.591 79.7581ZM286.793 84.9842L282.745 84.868L282.589 90.3168L286.637 90.433L290.684 90.5491L290.841 85.1003L286.793 84.9842ZM286.637 90.433L282.589 90.3168C282.538 92.0821 282.074 92.8417 281.722 93.197L284.6 96.046L287.477 98.8949C289.701 96.6484 290.595 93.666 290.684 90.5491L286.637 90.433ZM284.6 96.046L281.722 93.197C281.434 93.4882 280.826 93.8935 279.253 93.8483L279.137 97.896L279.021 101.944C282.156 102.034 285.19 101.206 287.477 98.8949L284.6 96.046ZM279.262 93.537L279.146 97.5847C280.804 97.6323 282.735 97.1588 284.174 95.5387C285.495 94.0521 285.838 92.2152 285.879 90.7603L281.832 90.6441L277.784 90.528C277.769 91.0491 277.655 90.6825 278.119 90.1602C278.368 89.8806 278.674 89.6854 278.967 89.5788C279.234 89.4813 279.398 89.4899 279.378 89.4893L279.262 93.537ZM281.832 90.6441L285.879 90.7603L286.035 85.355L281.987 85.2389L277.939 85.1227L277.784 90.528L281.832 90.6441ZM281.987 85.2389L286.035 85.355C286.076 83.8966 285.844 82.0419 284.625 80.4769C283.288 78.7603 281.382 78.1603 279.705 78.1121L279.588 82.1598L279.472 86.2075C279.486 86.2079 279.315 86.2058 279.048 86.0892C278.757 85.9618 278.463 85.7452 278.236 85.4536C277.816 84.915 277.955 84.576 277.939 85.1227L281.987 85.2389ZM279.588 82.1598L279.705 78.1121C278.027 78.064 276.09 78.5538 274.657 80.1909C273.35 81.6834 273.012 83.5217 272.97 84.9802L277.018 85.0963L281.065 85.2124C281.081 84.6657 281.2 85.012 280.75 85.5258C280.507 85.8039 280.201 86.0033 279.903 86.1137C279.63 86.2149 279.459 86.2071 279.472 86.2075L279.588 82.1598ZM277.018 85.0963L272.97 84.9802L272.815 90.3854L276.862 90.5015L280.91 90.6177L281.065 85.2124L277.018 85.0963ZM276.862 90.5015L272.815 90.3854C272.773 91.8403 273.01 93.6938 274.243 95.2537C275.587 96.9537 277.488 97.5371 279.146 97.5847L279.262 93.537L279.378 89.4893C279.358 89.4887 279.523 89.4896 279.784 89.6022C280.069 89.7254 280.365 89.9379 280.596 90.2312C281.03 90.7793 280.895 91.1388 280.91 90.6177L276.862 90.5015Z" fill="#243E88" mask="url(#path-3-outside-1_315_344)"/>
</g>
<defs>
<filter id="filter0_d_315_344" x="2.0504e-05" y="-5.24521e-05" width="299.935" height="82.1592" filterUnits="userSpaceOnUse" color-interpolation-filters="sRGB">
<feFlood flood-opacity="0" result="BackgroundImageFix"/>
<feColorMatrix in="SourceAlpha" type="matrix" values="0 0 0 0 0 0 0 0 0 0 0 0 0 0 0 0 0 0 127 0" result="hardAlpha"/>
<feOffset dx="-4.6693" dy="4.00226"/>
<feGaussianBlur stdDeviation="7.17071"/>
<feComposite in2="hardAlpha" operator="out"/>
<feColorMatrix type="matrix" values="0 0 0 0 0.141176 0 0 0 0 0.243137 0 0 0 0 0.533333 0 0 0 0.82 0"/>
<feBlend mode="normal" in2="BackgroundImageFix" result="effect1_dropShadow_315_344"/>
<feBlend mode="normal" in="SourceGraphic" in2="effect1_dropShadow_315_344" result="shape"/>
</filter>
<filter id="filter1_d_315_344" x="9.40653" y="51.5057" width="286.798" height="59.9451" filterUnits="userSpaceOnUse" color-interpolation-filters="sRGB">
<feFlood flood-opacity="0" result="BackgroundImageFix"/>
<feColorMatrix in="SourceAlpha" type="matrix" values="0 0 0 0 0 0 0 0 0 0 0 0 0 0 0 0 0 0 127 0" result="hardAlpha"/>
<feOffset dx="-1.55745" dy="2.80341"/>
<feGaussianBlur stdDeviation="3.34851"/>
<feComposite in2="hardAlpha" operator="out"/>
<feColorMatrix type="matrix" values="0 0 0 0 0.141176 0 0 0 0 0.243137 0 0 0 0 0.533333 0 0 0 1 0"/>
<feBlend mode="normal" in2="BackgroundImageFix" result="effect1_dropShadow_315_344"/>
<feBlend mode="normal" in="SourceGraphic" in2="effect1_dropShadow_315_344" result="shape"/>
</filter>
</defs>
</svg>
