<svg width="393" height="571" viewBox="0 0 393 571" fill="none" xmlns="http://www.w3.org/2000/svg">
<path opacity="0.5" d="M-183.296 370.785C-184.816 366.583 -180.031 366.583 -176.862 366.745L-184.105 365.129C-185.172 359.731 -179.966 361.67 -176.862 359.924C-186.045 360.7 -187.5 353.718 -177.67 354.688C-178.188 351.973 -183.652 353.557 -184.105 353.072C-185.139 346.963 -179.869 350.777 -177.67 347.448C-186.885 347.997 -186.336 342.858 -177.67 341.403C-179.222 339.302 -185.333 341.242 -184.072 337.395C-183.426 335.423 -177.67 335.682 -177.67 334.971C-187.112 334.68 -185.818 330.769 -177.67 329.347C-177.509 327.052 -181.13 328.539 -182.779 328.021C-183.975 327.633 -184.46 326.47 -184.105 325.339C-183.361 322.947 -177.767 325.5 -176.862 322.526C-179.643 323.108 -186.691 322.591 -183.749 318.454C-182.326 316.45 -176.959 319.423 -177.67 316.094C-188.502 317.581 -183.911 312.959 -176.83 311.569C-177.185 309.92 -176.474 301.193 -176.862 300.805C-177.444 300.223 -184.169 302.583 -184.169 297.185C-184.169 292.983 -179.966 294.599 -176.862 294.373V225.266C-179.546 224.716 -196.229 224.36 -196.973 223.649C-197.167 223.488 -197.167 219.221 -196.973 218.542C-196.456 216.344 -178.802 216.732 -177.703 215.536C-177.573 215.407 -177.541 212.498 -177.638 212.368C-178.188 211.819 -190.313 212.11 -193.158 210.591C-194.936 209.653 -194.968 208.231 -196.229 207.197C-197.62 206.033 -200.303 207.391 -197.814 202.251C-172.465 191.552 -147.342 180.239 -121.928 169.637C-114.168 166.405 -89.9834 154.801 -83.6461 154.057C-76.3065 153.217 -65.3133 156.999 -57.5857 156.902C-40.6433 152.441 -24.1858 145.75 -7.27568 141.225C-5.9177 140.869 -4.59204 140.805 -3.20172 140.869C-10.0563 134.922 -9.08634 134.049 -2.32875 129.298C45.33 95.8429 100.943 68.562 149.668 36.1741C159.271 29.7417 170.394 23.5033 179.964 17.4912C181.84 16.3275 186.302 14.2265 187.11 12.578C188.468 9.83056 188.306 0.941644 191.701 0.295178C203.438 -1.96745 197.618 9.37804 202.242 13.871C266.972 53.4994 332.253 92.4166 395.916 133.661C397.307 136.215 394.073 137.896 392.78 139.221C392.198 139.835 391.939 139.641 392.23 140.902L445.806 156.934C454.698 155.997 463.783 154.251 472.642 154.122C507.821 169.572 545.133 182.663 579.955 198.728C582.057 199.698 587.133 202.057 587.586 203.997C588.459 207.811 586.325 206.292 584.741 207.552C583.835 208.263 583.577 209.944 582.768 210.429C580.311 211.884 566.666 211.69 565.891 212.465C565.794 212.562 565.794 215.439 565.923 215.601C566.958 216.732 583.189 216.571 585.614 218.025C586.972 223.779 586.163 224.07 580.731 224.49C578.468 224.651 567.119 223.94 566.634 225.783L565.891 294.373C579.761 292.207 578.694 302.227 565.891 300.805V311.569C566.02 312.538 567.119 311.892 567.507 312.054C567.96 314.478 566.279 313.605 564.727 313.67C538.537 314.704 512.121 312.894 485.899 313.67L484.703 315.286C511.668 315.383 538.634 315.383 565.503 314.478C567.054 314.413 568.736 315.286 568.283 312.862C569.803 313.411 573.165 312.377 573.101 316.062C572.842 316.288 563.627 315.415 566.667 317.678C570.417 317.613 573.844 316.708 573.101 321.686C572.454 322.365 566.473 320.296 566.667 322.882C568.51 325.306 573.553 322.526 573.068 326.89C572.195 329.702 565.179 326.211 565.826 329.702C568.574 328.603 575.946 331.965 572.131 334.421C570.838 335.262 566.57 333.387 565.826 335.326C567.831 335.132 574.071 335.682 573.036 338.947C572.389 341.048 564.112 339.302 566.602 341.759C567.216 342.341 573.618 342.47 573.036 345.379C572.616 347.448 563.983 345.799 566.602 348.191C567.248 348.773 574.426 348.579 573.036 351.811C571.84 354.559 565.955 351.197 566.602 354.623C570.902 352.555 576.075 357.92 571.711 359.343C570.191 359.828 567.022 358.599 566.602 360.248C569.027 359.375 575.396 362.543 573.036 365.064C572.616 365.516 566.343 365.129 565.794 366.68C575.008 365.937 576.075 372.951 565.794 371.496C566.02 372.789 565.47 374.729 565.761 375.828C566.117 377.121 579.891 378.381 582.089 379.512C583.286 380.127 583.383 382.001 583.48 383.133C583.641 384.846 583.221 397.484 582.671 398.001C582.413 398.228 579.697 397.581 578.597 398.357C577.692 398.971 577.369 413.355 577.821 415.165C578.112 416.393 580.828 415.812 581.119 417.04C580.99 438.438 581.184 459.836 581.022 481.266C581.022 482.947 581.895 483.852 581.863 483.981C581.831 484.693 579.373 484.563 580.634 485.598L585.872 488.022L583.48 489.606C587.748 489.864 592.953 496.717 596.348 492.03L586.713 487.957C586.81 487.602 587.521 487.278 587.521 487.214C594.699 490.22 605.983 494.228 611.642 499.27C610.833 499.206 610.025 499.27 609.217 499.27L610.025 501.662L542.934 515.335L543.031 513.719L604.399 501.662C604.787 499.788 604.14 500.369 603.364 499.852C597.641 496.167 589.397 494.26 583.512 490.414C584.838 494.713 580.958 493.646 580.408 494.551C579.503 495.941 581.669 500.628 578.953 501.533L510.763 514.527L311.851 514.947L313.144 517.824H524.472L540.509 514.559C541.609 515.464 539.345 515.949 538.828 516.111C535.886 516.919 532.329 517.242 529.257 517.792L530.874 518.632L612.644 502.341L614.067 500.951C612.612 501.145 612.321 499.917 611.642 499.335C612.806 499.4 616.718 500.434 617.138 501.08C617.817 502.179 617.817 508.256 615.36 508.256C591.725 513.428 567.895 518.309 544.13 522.64L540.929 523.448C538.472 523.868 533.816 525.872 531.682 525.872H313.467C313.467 525.872 313.209 528.07 311.851 527.877C315.245 532.111 312.53 539.254 313.629 544.555C315.245 552.378 325.592 565.953 327.952 574.422C328.955 577.945 328.793 580.919 328.728 584.507H57.0345L64.6328 582.859H327.112V577.267H55.4503C55.7736 579.561 57.8429 584.313 54.6419 583.699C51.2146 573.065 68.7391 554.705 69.9031 543.133C70.4851 537.25 69.1917 531.012 70.7114 525.064L-144.206 524.967L-225.814 507.319C-226.04 507.06 -226.105 501.63 -225.749 501.113C-224.779 499.561 -196.908 487.505 -192.931 485.727C-192.931 485.792 -192.026 485.953 -192.123 486.503L-208.193 493.775C-208.387 495.262 -206.511 494.486 -205.768 494.196C-200.497 492.289 -195.292 488.054 -189.731 486.503C-189.407 486.082 -190.474 484.175 -190.507 483.335C-191.606 461.84 -189.666 439.44 -190.507 417.848C-190.83 415.65 -187.5 416.296 -187.209 415.359C-186.853 414.098 -187.047 399.359 -187.726 398.874C-188.728 398.195 -191.832 398.325 -192.058 398.131C-192.673 397.517 -192.737 383.294 -192.543 381.258C-190.733 379.318 -177.444 377.832 -176.862 377.25C-176.668 377.056 -176.7 371.916 -176.862 371.69C-177.153 371.367 -178.64 371.819 -179.222 371.658C-180.419 371.302 -181.518 370.268 -183.232 370.85L-183.296 370.785ZM199.494 14.7114C198.362 13.3861 198.459 3.46286 196.939 2.39619C196.228 1.91134 191.766 1.78205 191.346 2.13761C190.796 2.62246 188.177 15.0346 188.856 15.7134L200.076 16.1659C261.185 56.1499 325.301 91.9318 386.119 132.336C387.025 132.918 387.251 134.243 387.607 134.437C388.9 135.213 392.198 134.34 393.847 134.631C332.091 94.2268 268.072 57.3135 205.701 17.8144C204.408 17.0063 199.752 15.0023 199.526 14.7437L199.494 14.7114ZM188.048 14.9053L-5.65903 134.599L-0.873749 134.178L184.75 18.4609C185.396 18.0084 189.179 16.0043 188.048 14.9376V14.9053ZM1.58354 134.599H253.975L246.344 51.0428L255.591 134.599H386.604L303.412 82.3964C304.543 97.1359 310.622 111.164 313.306 125.548C313.597 127.1 313.209 126.55 311.851 126.582L300.631 81.1358L200.076 17.7498C197.521 16.877 190.861 16.9417 188.274 17.9437L1.58354 134.599ZM393.006 136.215H-4.85071C-3.68672 138.025 -2.03775 140.223 0.322556 140.288L389.773 139.835L393.006 136.247V136.215ZM4.78452 141.031C-1.45574 139.673 -4.78604 143.778 -9.66832 146.267C-30.0057 156.675 -50.2138 167.374 -70.5836 177.75L-71.5859 180.368L4.75218 141.031H4.78452ZM362.484 141.839C357.666 141.904 352.816 141.839 348.031 141.839C346.414 141.839 344.83 141.839 343.214 141.839C335.195 141.871 327.112 141.839 319.093 141.839C317.218 141.839 315.342 141.839 313.467 141.839C289.638 141.839 265.776 141.839 241.947 141.839H237.937C161.179 141.839 84.3882 141.871 7.62981 141.807C6.11016 142.001 -2.32875 146.397 -3.1694 147.463L-6.37036 149.079C-6.62902 149.144 -6.92002 149.015 -7.17868 149.079C-8.85999 149.5 -10.0887 150.954 -11.188 151.504C-11.7376 151.762 -12.255 152.053 -12.8046 152.312C-15.5206 153.605 -18.1719 154.995 -20.8555 156.32C-27.0958 159.391 -33.1744 162.785 -39.35 165.952C-40.9343 166.76 -42.5833 167.536 -44.1676 168.376C-46.2692 169.443 -48.0475 170.704 -49.7935 171.576C-54.5465 174.033 -59.4611 176.328 -64.2464 178.817C-65.3133 179.366 -66.8653 179.69 -68.2556 180.433C-69.3873 181.047 -71.1009 181.37 -71.4566 182.825C-70.3896 182.857 -69.3226 182.825 -68.2556 182.825C-63.2117 183.019 -58.0384 182.825 -52.9945 182.825C-43.9089 182.857 -34.7587 182.825 -25.6731 182.825C-22.9895 182.825 -20.3059 182.825 -17.6222 182.825C-8.79533 182.825 0.0638971 182.825 8.89079 182.825C91.4045 182.857 173.951 182.825 256.464 182.825C262.898 182.825 269.333 182.825 275.767 182.825C282.201 182.825 288.636 182.825 295.07 182.825C318.382 182.825 341.694 182.922 365.006 182.825C370.082 182.825 375.191 182.922 380.267 182.825C382.142 182.825 384.018 182.825 385.893 182.825C385.246 181.726 385.279 180.789 385.085 179.625C387.025 180.142 386.216 182.631 387.186 182.89C409.884 182.179 432.743 183.665 455.409 182.825C456.379 182.793 458.416 183.439 458.222 182.017L380.299 141.419C375.934 139.932 370.438 141.774 366.623 141.839C366.073 141.839 365.556 141.839 365.006 141.839C364.909 140.643 362.71 140.643 362.581 141.839H362.484ZM458.804 178.882L388.932 141.451L382.563 141.031L457.737 181.177C459.289 181.791 459.289 179.56 458.804 178.882ZM-12.0933 145.039L-56.7774 158.615C-66.0246 158.162 -75.1425 156.255 -84.3574 156.32L-98.0989 191.617L-93.2813 192.425L-80.0248 157.063C-78.1818 158.227 -79.8955 160.684 -80.4128 162.3C-83.8725 172.869 -89.1104 183.342 -92.473 194.009L-60.3341 197.209L-75.2395 190.033C-75.7245 189.29 -75.9185 184.086 -75.6599 183.213C-75.3689 182.211 -73.4936 183.051 -73.2026 182.76C-72.5882 182.146 -74.0755 179.269 -73.8492 178.429C-73.4612 176.748 -62.2417 172.934 -60.7544 170.704C-59.4611 168.764 -59.0407 163.334 -57.1008 161.104C-62.8237 160.683 -69.5166 160.522 -75.0779 159.391C-75.9832 159.197 -78.0849 159.164 -77.9879 157.904L-57.5534 160.263L-28.9711 151.471C-28.7771 152.635 -30.3291 152.538 -31.1697 152.861C-38.9296 155.932 -47.2715 158.162 -55.2901 160.49L-58.2971 169.928L-12.061 145.039H-12.0933ZM468.568 156.288C467.695 155.415 448.684 159.035 444.933 158.647C433.713 157.419 418.097 148.304 406.715 147.011C405.228 146.849 404.614 146.17 403.482 147.851L447.293 171.544C447.52 169.249 444.448 161.847 442.831 160.748C433.261 157.225 423.011 155.124 413.505 151.504C412.277 151.019 409.496 150.405 409.108 149.079L444.933 160.296L466.952 157.904C467.049 159.132 464.915 159.261 464.074 159.423C458.157 160.49 451.27 160.974 445.256 161.136C447.358 163.722 448.069 170.154 449.718 172.352C451.238 174.356 460.388 177.686 461.261 178.914C461.617 179.399 459.838 182.89 460.517 183.601C460.776 183.859 462.684 183.374 462.91 183.601C463.169 183.859 461.778 189.775 461.714 190.841L450.85 196.465L481.372 194.849L468.504 156.288H468.568ZM473.354 156.352C471.931 156.061 469.377 156.061 469.506 158.13L482.278 192.425L487.095 191.617L473.386 156.32L473.354 156.352ZM-86.0387 157.096C-122.543 171.383 -158.335 187.447 -194.516 202.478L-196.941 204.482C-160.502 189.451 -124.256 173.904 -87.7847 158.906C-86.5884 158.421 -85.5861 159.391 -86.0064 157.096H-86.0387ZM585.937 204.482L583.512 202.478C547.331 187.415 511.571 171.286 475.035 157.096C474.582 159.391 475.649 158.389 476.781 158.906C491.46 165.629 507.465 171.286 522.435 177.589C542.481 186.057 562.302 195.334 582.445 203.577C583.609 204.061 584.579 204.74 585.969 204.482H585.937ZM-87.6554 160.296L-189.731 203.674L-101.85 194.72L-87.6554 160.296ZM578.694 202.898L476.619 160.328L490.813 194.752C502.809 195.69 514.869 196.724 526.832 198.114C542.126 199.859 558.163 202.671 573.456 203.706C574.556 203.77 578.436 204.385 578.662 202.93L578.694 202.898ZM460.517 184.409H-73.9785L-73.8815 189.128C-68.1909 191.035 -62.9207 193.944 -57.4564 196.401C-56.7127 196.724 -56.0015 195.916 -56.2924 197.694C-56.4864 198.987 -60.5604 203.189 -61.692 203.544C-64.8607 204.482 -76.3712 202.025 -77.2118 202.898C-77.3088 203.027 -77.2765 205.063 -77.1149 205.613C-76.2742 208.102 -72.5559 206.13 -70.4219 206.098C-47.9182 205.451 -25.2851 206.809 -2.91074 206.971C121.83 207.94 247.282 206.777 371.667 206.098C402.868 205.936 434.231 205.71 465.335 206.938V202.93C464.785 202.381 452.952 204.708 449.783 203.609C449.46 203.512 445.353 198.76 445.289 198.405C444.707 195.14 459.353 191.617 460.388 189.936C461.035 188.934 460.259 185.863 460.517 184.441V184.409ZM-94.0573 194.849C-95.3183 191.908 -98.7779 191.326 -98.8749 194.849H-94.0573ZM487.871 192.425C487.58 192.134 481.954 192.49 483.054 194.817C484.088 194.106 487.709 195.011 487.871 194.817C487.936 194.72 487.968 192.49 487.871 192.425ZM-97.2906 195.657L-194.548 206.486C-193.416 208.49 -192.77 209.75 -190.151 209.362C-161.666 205.16 -132.695 204.061 -104.145 200.441C-102.787 200.28 -97.5493 199.892 -97.2906 199.633C-97.0643 199.407 -97.42 196.498 -97.2906 195.625V195.657ZM-58.7174 198.082L-95.7063 195.657V199.698C-85.9094 200.086 -76.1125 201.476 -66.348 202.09C-61.401 202.413 -61.3041 202.316 -58.7174 198.082ZM484.638 195.657C476.231 196.239 467.728 197.467 459.321 198.049C456.12 198.276 452.855 197.823 449.686 198.049C448.781 198.114 447.035 197.597 447.681 199.245C448.134 200.377 450.656 202.316 452.046 202.122L482.633 200.474C485.22 200.215 484.67 197.661 484.638 195.657ZM583.512 206.098L486.254 195.657C486.416 196.756 485.866 198.76 486.384 199.568C487.095 200.732 508.209 201.766 511.571 202.09C534.948 204.385 558.422 207.358 581.734 209.136L583.512 206.098ZM-122.219 203.674C-123.739 203.738 -126.164 203.092 -127.037 204.482C-128.104 204.482 -129.203 204.417 -130.238 204.482C-131.984 204.611 -133.762 205.257 -134.247 205.29C-135.573 205.387 -136.931 205.16 -138.256 205.29C-139.744 205.419 -141.296 206.065 -141.457 206.098C-142.783 206.227 -144.173 205.969 -145.467 206.098C-147.051 206.259 -149.056 206.874 -149.476 206.906C-150.543 207.003 -151.642 206.841 -152.677 206.906C-154.197 207.003 -156.589 206.292 -157.495 207.714C-158.303 207.714 -159.111 207.682 -159.92 207.714C-162.442 207.843 -164.317 208.328 -166.354 208.522C-167.388 208.619 -168.585 208.36 -169.555 208.522C-171.365 208.781 -171.527 208.49 -173.564 209.33C-173.952 209.492 -174.987 208.845 -175.213 209.847C-175.601 211.431 -174.922 213.985 -175.181 215.762C-162.603 214.599 -149.993 213.629 -137.416 212.53C-135.993 212.401 -135.896 211.722 -135.799 211.722C-127.134 210.979 -115.494 209.33 -107.217 209.298C-104.63 209.298 -89.1104 211.657 -88.3667 210.946C-89.0781 207.52 -86.3944 202.251 -90.5654 201.508C-99.1983 199.989 -112.746 203.35 -122.122 203.706L-122.219 203.674ZM564.177 209.33C536.726 206.777 509.308 203.189 481.825 201.282C474.615 201.896 478.107 204.966 477.395 210.914L497.894 209.233L563.013 215.762C565.438 215.892 563.821 210.946 564.177 209.33ZM-86.8471 298.866V385.234L-37.022 382.034C-37.119 370.397 -36.925 358.696 -36.9897 347.06C-37.1513 317.71 -37.1837 288.652 -36.9897 259.561C-36.8927 243.625 -37.119 227.657 -36.9897 211.722L-77.4705 208.393C-79.7662 207.843 -78.2788 203.48 -78.8285 202.898C-79.1195 202.607 -86.5561 201.766 -86.8147 202.057V212.498L-106.926 211.69C-106.829 212.336 -107.087 213.92 -106.926 214.082C-105.697 215.375 -89.9834 214.373 -86.8794 215.73V294.405C-89.5307 294.793 -96.2883 292.789 -95.674 297.217C-95.5123 298.446 -87.5584 296.409 -86.8147 298.833L-86.8471 298.866ZM425.178 211.722V382.034L475.811 385.234V297.67H484.67C486.093 292.11 479.465 295.181 475.811 294.47V215.73L495.922 214.114V211.722L475.811 212.53V202.09C474.421 202.478 467.275 202.575 466.984 202.898C466.596 203.286 467.922 207.94 465.658 208.425L425.178 211.754V211.722ZM-16.9109 207.714H-58.7174L-36.634 210.171L-24.5738 209.298L-16.9432 207.682L-16.9109 207.714ZM337.555 207.714H47.3994C47.3994 207.714 47.2377 210.914 47.3994 210.914H337.555C337.555 210.914 337.652 207.811 337.555 207.714ZM446.065 207.714H401.865L410.304 209.298L423.949 210.171L446.065 207.682V207.714ZM-1.64975 209.298V252.676L53.8013 251.868V244.627H40.9328C38.3138 232.441 46.0414 220.643 45.7504 208.49L-1.68207 209.298H-1.64975ZM-176.862 209.298C-178.931 209.459 -182.262 208.393 -183.296 210.882C-181.55 210.364 -176.215 212.369 -176.862 209.298ZM-21.7285 210.106C-24.2505 210.3 -25.8671 210.558 -28.1628 210.914C-30.4584 211.27 -32.9804 211.69 -35.4053 211.722V253.484C-29.5531 253.29 -23.5715 253.775 -17.7192 253.484C-16.2966 253.419 -16.1996 252.676 -16.1026 252.676C-11.8023 252.417 -7.40502 253.322 -3.23407 251.868V209.298C-9.31266 209.621 -15.6823 209.621 -21.7285 210.106ZM388.997 209.298H339.172C339.689 220.967 346.35 232.958 343.99 244.66H331.929C333.223 247.148 332.673 249.993 332.738 252.708H388.997V209.33V209.298ZM397.048 209.298C394.914 209.33 392.748 209.298 390.614 209.298V252.676L423.561 253.484V211.722C417.45 210.914 411.21 210.494 405.066 210.106C403.256 208.684 399.505 209.265 397.016 209.298H397.048ZM571.452 209.33C569.738 209.783 565.179 207.94 565.826 210.914C566.182 211.173 571.452 210.979 571.452 209.33ZM-108.542 210.914L-195.356 218.962V222.162L-110.547 214.954C-108.284 214.76 -108.413 212.853 -108.542 210.946V210.914ZM584.32 218.962L497.506 210.914C496.989 214.308 497.927 214.631 501.128 214.922C527.317 217.249 554.606 220.546 580.699 222.195C584.32 222.421 584.741 222.777 584.353 218.962H584.32ZM47.3994 212.53L41.7734 237.419H343.181L338.008 212.465C337.103 211.14 326.368 211.754 323.878 211.722C323.329 211.722 322.811 211.722 322.262 211.722C320.645 211.722 319.061 211.722 317.444 211.722C235.254 211.076 152.869 211.173 70.679 211.722C70.1294 211.722 69.6121 211.722 69.0624 211.722C67.4458 211.722 65.8615 211.722 64.2448 211.722C60.7852 211.754 57.2609 211.593 53.8013 211.722C53.2516 211.722 52.7343 211.69 52.1846 211.722C51.1823 211.787 49.7596 211.528 48.9836 211.722L47.367 212.53H47.3994ZM-96.4823 216.538C-100.783 216.538 -104.533 215.665 -108.93 215.73C-130.012 216.15 -152.709 221.128 -174.049 221.354L-184.913 222.938C-180.613 224.134 -177.153 223.132 -173.241 222.938C-154.164 222.13 -135.314 219.35 -116.205 218.898L-96.5146 216.506L-96.4823 216.538ZM573.068 222.162L487.063 215.73C487.063 217.088 489.714 217.249 490.652 217.346C514.514 219.577 544.357 223.585 567.734 223.682C568.445 223.682 572.81 223.165 573.036 222.162H573.068ZM-88.4314 217.346C-89.563 217.217 -94.0573 217.12 -94.0573 218.542V268.74C-101.332 270.098 -108.769 269.355 -116.141 269.548C-118.048 269.613 -130.206 271.843 -130.206 269.128V221.322H-136.64V265.896C-136.64 266.639 -137.771 270.777 -138.741 271.003L-170.395 271.908V224.522H-175.213V294.405L-88.399 292.789V217.282L-88.4314 217.346ZM477.428 217.346V292.854L564.242 294.47V224.587H560.232V270.777C560.232 271.229 558.874 272.005 558.228 271.973C547.655 271.746 536.985 271.488 526.477 270.357V221.354H519.234V269.161C519.234 271.843 508.5 269.613 506.754 269.581C498.832 269.355 490.943 269.678 483.054 268.773V220.158C483.054 216.732 480.047 217.12 477.428 217.346ZM-95.674 218.154H-101.3V218.93H-95.674V218.154ZM492.689 218.154C490.943 218.187 489.197 218.057 487.451 218.154C486.481 218.187 484.476 217.54 484.638 218.962C486.384 218.93 488.13 219.059 489.876 218.962C490.846 218.93 492.85 219.577 492.689 218.154ZM-102.108 218.962C-103.854 218.995 -105.6 218.865 -107.346 218.962C-108.316 218.995 -110.321 218.348 -110.159 219.771C-108.413 219.738 -106.667 219.868 -104.921 219.771C-103.951 219.738 -101.947 220.385 -102.108 218.962ZM500.707 218.962C499.123 219.415 494.984 217.928 494.273 219.738C495.857 219.286 499.996 220.773 500.707 218.962ZM-110.967 219.771C-112.552 220.223 -116.69 218.736 -117.402 220.546C-115.817 220.094 -111.679 221.581 -110.967 219.771ZM498.315 221.354L484.638 219.738V233.379L498.315 234.187V221.322V221.354ZM-95.674 220.546L-109.351 221.354V234.219H-96.9026C-96.9026 234.219 -95.7063 233.088 -95.7063 233.023V220.579L-95.674 220.546ZM-127.845 268.74V221.354H-128.654V268.74H-127.845ZM-125.42 222.971V235.835L-110.159 235.027C-109.609 230.405 -111.161 225.977 -110.967 221.354L-125.42 222.971ZM514.384 235.803V223.358C514.384 221.742 502.001 221.839 499.899 221.354L499.155 234.154C504.135 235.771 509.405 234.251 514.352 235.835L514.384 235.803ZM517.617 268.74V221.354H516.809V268.74H517.617ZM-139.097 223.779L-151.157 224.587V225.783L-150.381 237.064C-146.663 237.839 -142.686 237.678 -139.097 236.643V223.779ZM540.121 224.554C538.763 224.554 527.188 222.809 527.253 224.167C528.74 228.142 527.867 232.474 528.061 236.611L540.121 237.419V224.554ZM-168.035 224.554H-169.652V270.357H-168.035V224.554ZM-151.933 224.554C-155.231 225.233 -162.345 224.619 -165.06 225.492C-167.485 226.268 -165.642 228.918 -165.578 230.599C-165.481 233.411 -165.642 236.223 -165.578 239.035L-151.933 238.227V224.587V224.554ZM555.382 225.362L541.706 224.554V237.419L555.382 238.227V225.362ZM558.583 270.357V224.554H557.775V270.357H558.583ZM-95.674 235.027L-108.995 236.579C-110.353 241.169 -108.154 245.662 -108.542 250.284H-95.674V235.027ZM498.315 235.803L484.638 234.995V249.443L498.315 250.251V235.803ZM511.183 236.611C507.174 236.32 503.1 236.773 499.123 235.803V250.251L514.384 251.06C513.705 247.633 515.289 240.199 514.384 237.387C514.287 237.064 514.416 236.708 513.899 236.643C512.994 236.417 512.056 236.643 511.151 236.579L511.183 236.611ZM-110.159 236.611L-125.42 237.419V251.868L-110.159 251.06V236.611ZM-139.097 238.227C-142.751 239.423 -146.566 239.003 -150.349 239.035V253.484L-139.097 252.676V238.227ZM540.121 239.035L528.061 238.227V251.868L540.121 252.676V239.035ZM-151.933 239.035L-166.418 240.651C-165.319 245.144 -165.61 249.702 -165.61 254.292C-164.737 254.583 -163.864 253.484 -163.605 253.484H-151.966V239.035H-151.933ZM343.181 239.035H41.7734L43.0667 243.108C142.782 242.914 242.593 243.237 342.276 242.946L343.181 239.035ZM555.382 239.843L541.706 239.035V252.676L555.382 253.484V239.843ZM57.0345 244.66H55.4179V267.157H67.8661C68.7391 267.157 71.358 265.54 73.0717 266.348V265.54H57.0022V244.66H57.0345ZM58.6512 263.924V244.66H57.8429V263.924H58.6512ZM71.5197 244.66H59.4595C59.2332 245.241 60.2679 245.629 60.2679 245.855V262.308H71.5197C72.231 256.199 72.6514 250.769 71.5197 244.627V244.66ZM76.3373 244.66H74.7207V264.732H76.3373V244.66ZM105.663 244.66H77.9216V264.732L114.878 263.924L105.631 244.66H105.663ZM114.911 254.292C113.811 252.32 111.192 247.666 109.964 245.985C109.414 245.241 108.573 243.722 107.668 245.047L116.624 263.407C118.047 265.476 118.952 265.508 118.92 263.116C120.116 264.15 124.481 265.153 125.742 263.957C128.426 261.403 131.174 248.635 134.181 245.047C133.243 243.722 132.435 245.209 131.95 246.049C129.428 250.51 127.973 257.039 125.483 261.274C124.837 262.373 124.513 263.439 122.897 263.116L130.948 244.66H110.869C112.421 247.763 113.617 251.06 114.878 254.292H114.911ZM169.553 244.66H135.798L127.747 263.924H169.553V244.66ZM192.057 244.66H171.978V263.924H192.057V244.66ZM214.593 244.66H193.706V263.924H214.593V244.66ZM253.554 244.66H216.986V264.732H259.6C259.18 262.049 250.935 247.051 251.582 246.276C252.843 244.789 253.328 247.407 253.587 247.86C255.365 250.898 259.73 263.763 261.637 264.732C262.543 265.185 263.189 264.506 262.834 263.536L253.587 244.627L253.554 244.66ZM275.67 244.66H255.591C256.658 247.278 263.48 263.601 264.838 263.924C266.099 264.215 266.487 262.858 267.005 262.082C270.303 257.007 272.437 249.928 275.67 244.66ZM278.063 244.66C275.929 244.239 276.672 245.112 276.09 246.276C273.245 252.126 270.788 258.235 267.619 263.924C269.43 263.989 269.397 264.506 270.238 262.922C273.083 257.589 275.993 250.316 278.063 244.66ZM308.617 244.66H279.679C278.063 251.35 273.665 257.298 271.628 263.924H308.617V244.66ZM311.042 263.924V244.66H310.234V263.924H311.042ZM326.303 244.66C322.294 244.53 318.253 244.756 314.243 244.66V262.34H326.303V245.468C328.146 250.769 326.627 257.427 327.112 263.148H312.659V263.957H328.728V244.66C327.92 244.66 327.112 244.66 326.303 244.66ZM331.121 244.66H329.504V265.54H312.627V266.348H331.121V244.66ZM-126.229 252.676V268.74H-118.21C-118.63 266.93 -125.453 268.417 -125.453 267.932V254.68C-125.453 254.68 -124.321 253.484 -124.256 253.484H-110.191V266.736C-110.191 266.93 -111.388 267.609 -111 267.932H-109.383V253.872C-109.383 253.581 -108.51 252.934 -108.057 252.805L-99.7479 251.868L-126.261 252.676H-126.229ZM497.506 251.868V267.932H500.707V267.124C500.255 267.027 499.091 267.189 499.091 267.124V252.676C501.095 252.611 503.132 252.773 505.137 252.676C506.107 252.643 508.112 253.29 507.95 251.868H497.506ZM496.698 253.484L484.638 252.676V265.54L496.698 266.348V253.484ZM515.192 252.676H511.992C511.474 254.066 514.384 253.322 514.384 253.484V268.74H515.192V252.676ZM-95.674 253.484L-107.734 254.292V266.348L-95.674 265.54V253.484ZM-1.64975 257.492H53.8013V253.484C35.3392 253.775 16.7477 252.773 -1.64975 254.292C-1.52042 255.068 -1.84375 257.298 -1.64975 257.492ZM388.997 253.484H333.126C331.897 253.484 331.703 257.169 331.929 258.3H388.997V253.484ZM536.08 253.484C534.334 253.516 532.588 253.387 530.842 253.484C529.872 253.516 527.867 252.87 528.029 254.292C529.775 254.26 531.521 254.389 533.267 254.292C534.237 254.26 536.241 254.906 536.08 253.484ZM-151.933 255.1V269.548H-150.317V255.1C-148.571 255.068 -146.825 255.165 -145.079 255.1C-144.4 255.1 -142.201 255.423 -143.494 254.292H-153.55L-151.933 255.1ZM-110.967 254.292H-123.416C-123.416 254.292 -124.612 255.423 -124.612 255.488V267.124H-112.164C-112.164 267.124 -110.967 265.993 -110.967 265.928V254.292ZM-3.23407 254.292C-4.33339 253.128 -31.4284 256.037 -35.4053 255.1V259.14L-3.23407 257.524C-3.3634 256.748 -3.04007 254.518 -3.23407 254.324V254.292ZM423.561 255.1L390.614 254.292V258.332L423.561 259.14V255.1ZM513.576 254.292H500.707L499.899 266.348H513.576V254.292ZM548.948 254.292H537.696C537.179 255.682 540.121 254.938 540.121 255.1V269.548H540.929V256.296C540.929 254.518 547.461 255.165 548.948 255.068V254.26V254.292ZM-167.227 255.1V270.357H-163.217V269.548H-166.418V255.876C-166.418 255.423 -160.243 256.845 -159.984 255.068H-167.227V255.1ZM538.505 255.908C535.013 255.682 531.294 256.619 528.061 255.1V267.965H538.505V255.908ZM556.191 255.1H549.756V255.908C550.5 256.134 555.382 255.649 555.382 255.908V270.357H556.191V255.1ZM-149.541 256.716V267.965C-146.857 267.447 -141.845 268.643 -139.582 268.029C-137.642 267.48 -139.711 257.88 -139.097 255.94L-149.541 256.748V256.716ZM542.514 256.716V267.932L554.574 268.773C553.733 259.754 558.325 256.361 547.331 256.716C546.523 255.391 543.258 255.423 542.514 256.716ZM-152.742 256.716H-164.381C-166.451 256.716 -165.319 266.801 -165.578 268.773H-152.709V256.716H-152.742ZM-3.23407 259.108L-35.4053 260.724V263.924C-31.3314 263.569 -4.36572 263.472 -3.3634 262.211C-2.94308 261.694 -3.39573 259.981 -3.2664 259.108H-3.23407ZM54.6419 259.108H-1.61742V263.116C17.2004 263.633 35.8241 261.791 54.6419 262.308C54.5126 261.532 54.8359 259.302 54.6419 259.108ZM388.997 259.108H331.929V263.116H388.997V259.108ZM423.561 260.724L390.614 259.108V263.116C394.688 262.114 422.429 265.088 423.561 263.924C423.755 263.73 423.432 261.5 423.561 260.724ZM-1.64975 264.732V346.672H53.8013V314.93C53.8013 314.93 54.9329 313.734 54.9976 313.734H72.2634V268.74H54.9976C53.5749 268.74 54.1569 264.829 53.3486 264.668H-1.64975V264.732ZM-3.23407 264.732L-35.373 265.54V345.864L-3.23407 346.672V264.732ZM388.997 264.732H332.738C332.576 264.732 332.738 267.932 331.541 267.932H313.467V313.734H332.77V347.48H389.029V264.732H388.997ZM404.258 264.732C399.699 264.732 395.14 264.732 390.581 264.732V347.48L423.529 345.864V265.54C421.395 265.508 419.228 265.605 417.094 265.54C413.505 264.054 408.332 264.732 404.226 264.732H404.258ZM106.86 266.348H74.7207V395.674H106.86V266.348ZM278.063 266.348H108.476V410.155H118.92V395.706H266.423C266.423 395.706 267.619 396.838 267.619 396.902V410.155H277.254L278.063 266.348ZM311.851 266.348H279.712V395.674H311.851V266.348ZM-96.4823 294.47L-182.488 296.086V299.286L-98.4869 298.478C-96.1913 298.284 -96.353 296.377 -96.4823 294.47ZM573.877 296.054L486.254 294.437V297.637C511.797 298.607 537.502 297.637 563.045 298.413C566.57 298.51 574.329 301.742 573.844 296.054H573.877ZM-88.4314 299.286L-175.245 300.094V312.151H-90.048C-89.66 313.831 -90.0804 316.159 -92.0527 316.159H-123.804C-123.901 318.033 -124.095 317.581 -122.607 317.775C-117.175 318.454 -109.803 317.613 -104.081 317.743C-99.4569 317.84 -95.0596 319.456 -90.048 317.775C-90.2097 318.842 -89.757 320.393 -89.9834 321.298C-90.1774 322.009 -98.0666 323.302 -99.3599 323.334C-100.944 323.367 -102.432 322.559 -104.048 322.591C-110.612 322.623 -117.208 322.623 -123.771 322.623V325.015H-90.0157C-88.5931 328.829 -93.7987 329.67 -96.8703 329.864C-99.6186 330.025 -101.656 329.023 -104.048 329.023C-110.612 328.991 -117.208 329.12 -123.771 329.056V331.448H-90.0157C-89.369 334.648 -90.2097 336.264 -93.637 336.264H-120.958C-121.152 336.264 -121.896 335.65 -122.607 335.488C-124.838 335.003 -124.386 337.492 -120.15 337.88H-90.0157C-89.369 341.08 -90.2097 342.696 -93.637 342.696H-124.58L-123.383 344.312L-90.0157 345.12C-90.1774 346.122 -89.66 348.514 -90.1127 349.064C-92.0527 351.391 -118.986 348.999 -123.771 349.549C-124.224 351.133 -119.503 351.456 -118.533 351.553C-109.157 352.232 -99.4246 351.617 -90.0157 352.361C-88.5931 356.175 -93.7987 357.015 -96.8703 357.177C-99.6186 357.339 -101.656 356.337 -104.048 356.337C-110.644 356.272 -117.24 356.563 -123.771 355.981C-124.321 357.856 -122.058 357.145 -120.958 357.177C-110.579 357.565 -100.298 358.373 -89.9834 359.149C-87.7524 362.898 -92.5377 363.351 -95.2536 363.577C-104.792 364.417 -114.265 361.605 -123.771 363.189C-112.616 364.805 -101.268 365.387 -90.0157 365.193C-89.5954 369.234 -89.8217 369.492 -93.734 369.912C-103.822 371.011 -113.813 368.426 -123.804 369.621C-112.681 371.108 -101.235 372.013 -90.048 371.626C-88.9164 376.797 -92.085 375.763 -96.062 377.12L-175.278 371.626L-175.148 378.737L-88.4637 385.266V299.318L-88.4314 299.286ZM501.516 384.426C505.59 382.001 533.881 381.807 541.285 381.193C548.689 380.579 556.546 379.351 564.145 378.737V371.529L490.684 376.377C486.157 375.86 477.428 378.478 478.204 371.529C489.552 372.143 501.386 370.656 512.768 369.525C512.768 367.682 482.86 372.013 479.012 368.716C478.139 367.973 477.88 365.452 478.204 365.096C478.753 364.547 491.395 365.226 493.885 365.096C500.125 364.741 506.56 363.739 512.8 363.092C512.8 362.155 495.696 362.64 493.885 362.672C491.525 362.672 489.326 363.577 486.675 363.577C484.541 363.577 478.43 363.157 478.204 360.7C477.816 356.563 480.855 358.761 482.569 358.599C492.01 357.823 501.386 357.694 510.795 357.08C512.412 356.983 513.123 357.726 512.8 355.464L485.123 357.08C481.76 356.401 478.204 356.789 479.044 352.264L505.169 351.456L512.832 349.452C507.336 348.029 481.308 352.199 478.624 348.288C478.042 347.448 478.042 346.64 478.624 345.799C479.756 344.151 507.4 344.765 511.636 344.215C513.091 344.021 512.929 344.474 512.832 342.599H481.89C481.437 342.599 478.495 341.145 478.301 340.563C477.04 336.49 482.245 338.494 483.506 338.429C491.428 337.977 503.941 338.753 510.892 337.007C512.25 336.684 513.252 337.815 512.832 335.391C508.112 335.585 480.984 337.46 479.174 335.294C478.721 334.745 479.271 332.385 479.077 331.351H512.832V328.959C504.393 328.086 495.76 330.284 487.483 329.799C483.151 329.541 477.719 329.767 479.077 324.143C479.95 323.852 480.823 324.951 481.081 324.951H512.832V322.526H481.081C478.689 322.526 478.85 319.52 479.077 317.71H512.832V316.094H481.081C479.109 316.094 478.689 313.767 479.077 312.086H565.082L564.274 300.029L477.46 299.221V385.169C485.478 384.749 493.529 384.62 501.58 384.361C501.548 384.361 501.807 385.072 501.128 385.201C499.285 385.492 495.437 384.199 494.37 385.977C517.326 385.945 540.218 383.068 563.11 381.161C565.761 380.935 568.477 381.355 571.129 381.161C572.228 381.064 575.978 380.773 576.366 379.577C572.616 380.514 566.44 375.601 565.147 379.965C544.098 381.969 522.823 383.714 501.645 384.393L501.516 384.426ZM-95.674 313.734H-178.058C-178.446 313.734 -180.516 314.736 -180.063 315.351H-95.674V313.734ZM73.104 317.743C73.4274 317.064 72.425 315.318 71.9077 315.318H55.4179V317.743H73.104ZM331.929 315.351H313.435V317.775H330.701C331.218 317.775 332.253 316.062 331.897 315.351H331.929ZM-154.358 316.159H-175.245V317.775H-154.358V316.159ZM-125.42 316.159H-152.742V317.775H-125.42V316.159ZM541.706 316.159H514.384V317.775H541.706V316.159ZM564.209 316.159H543.322V317.775H564.209V316.159ZM-154.358 318.551H-178.058C-178.77 318.551 -180.968 320.038 -182.488 319.359C-182.747 319.553 -181.453 320.943 -181.292 320.943H-154.358V318.518V318.551ZM57.0345 318.551H55.4179V361.12H73.104V359.504H57.0345V318.551ZM328.728 318.551H312.659V320.167C312.982 320.555 313.694 319.359 313.855 319.359H327.112V338.623H313.435V339.432H327.112V357.92H328.728V318.551ZM331.121 318.551H329.504V358.729H313.823C313.306 358.729 312.271 360.442 312.627 361.153H331.121V318.583V318.551ZM516.389 320.975C524.504 320.038 534.237 321.686 542.514 320.975V318.583C533.073 317.969 523.793 319.682 514.384 319.391V321.783C515.289 322.074 516.065 321.007 516.389 320.975ZM567.831 318.551C560.265 317.646 551.082 319.229 543.322 318.551V320.975H570.255C570.255 320.975 571.516 319.908 571.452 319.391C570.061 319.876 568.703 318.68 567.831 318.583V318.551ZM-125.42 319.359H-153.55V320.975H-125.42V319.359ZM-95.674 319.359H-123.804V321.783H-96.8703C-96.353 321.783 -95.3183 320.07 -95.674 319.359ZM-91.6647 319.359C-93.152 319.165 -94.4453 319.359 -94.8656 320.943H-91.6647V319.359ZM483.021 319.359L479.82 319.747C480.693 320.975 481.534 321.137 483.021 320.943V319.359ZM512.768 319.359H484.638V321.783H512.768V319.359ZM326.303 320.167H314.243V337.848H326.303V320.167ZM71.5197 320.975H60.2679V337.848H71.5197V320.975ZM-154.358 324.175C-154.035 323.496 -155.037 321.751 -155.555 321.751H-175.245V324.175H-154.358ZM565.018 321.783H543.322V324.207H563.821C564.339 324.207 565.373 322.494 565.018 321.783ZM-125.42 322.559H-152.742C-152.839 324.433 -153.033 323.981 -151.545 324.175C-143.721 325.177 -133.536 323.981 -125.388 324.983V322.591L-125.42 322.559ZM541.706 322.559H514.384V324.951C522.5 323.981 532.717 325.145 540.509 324.143C541.673 323.981 542.999 323.528 541.706 322.526V322.559ZM-155.555 324.983C-159.014 323.981 -174.696 324.983 -179.675 324.983C-179.837 324.983 -182.811 325.726 -182.488 326.567C-173.241 328.086 -163.735 327.116 -154.358 327.375C-154.1 326.502 -154.876 325.177 -155.555 324.983ZM569.447 324.983C561.59 323.884 551.438 325.791 543.322 324.983V327.375C552.699 327.343 562.14 327.763 571.452 326.567C571.743 325.759 569.77 325.015 569.447 324.983ZM-125.42 325.791H-152.742C-152.839 327.666 -153.033 327.213 -151.545 327.407C-148.571 327.795 -144.949 327.181 -141.845 327.375C-136.478 327.698 -130.982 328.829 -125.388 328.215V325.823L-125.42 325.791ZM-95.674 326.599H-121.799C-122.769 326.599 -124.256 323.949 -123.804 328.215H-95.674V326.599ZM-90.8564 325.791C-92.3113 325.532 -96.3206 326.761 -94.8656 328.183C-94.1867 328.862 -90.242 326.244 -90.8564 325.791ZM483.83 328.183C483.151 326.502 481.663 325.468 479.82 325.791C479.174 327.957 481.922 328.054 483.83 328.183ZM511.571 326.599C503.456 327.698 493.044 325.791 484.638 326.599V328.215H506.754C507.821 328.215 510.86 326.567 512.768 327.407V325.791C512.444 325.403 511.797 326.567 511.571 326.599ZM541.706 325.791H514.384V327.407H541.706V325.791ZM-154.358 330.607C-154.035 329.928 -155.037 328.183 -155.555 328.183H-175.245V330.607H-154.358ZM-125.42 328.991C-131.693 328.797 -138.062 329.217 -144.335 328.991C-147.277 328.894 -153.13 326.114 -153.55 330.575L-125.42 331.383V328.991ZM536.5 328.991C529.16 329.314 521.724 328.765 514.384 328.991V331.383C523.761 331.286 533.073 330.09 542.514 330.575C542.223 326.179 538.181 328.894 536.5 328.959V328.991ZM565.018 328.183H543.322V330.607H563.821C564.339 330.607 565.373 328.894 565.018 328.183ZM-125.42 332.223C-142.912 333.613 -161.633 329.993 -178.931 331.383C-180.354 331.48 -182.035 331.221 -182.52 333.031L-125.938 334.648L-125.453 332.223H-125.42ZM570.255 331.415H543.322V333.807C552.666 333.193 562.011 332.741 571.452 332.999C571.452 332.482 570.514 331.48 570.255 331.415ZM-123.804 334.615H-95.674C-95.577 332.741 -95.383 333.193 -96.8703 332.999C-101.882 332.353 -108.478 333.225 -113.813 333.031C-117.014 332.934 -120.409 331.545 -123.836 332.191V334.583L-123.804 334.615ZM509.146 333.031C501.031 333.452 492.753 332.741 484.638 333.031V335.423C487.806 336.038 490.878 334.68 493.853 334.583C497.021 334.486 512.089 335.359 513.188 333.807C515.096 331.124 509.405 332.999 509.146 332.999V333.031ZM541.706 332.223H514.384V333.84H541.706V332.223ZM-90.8564 333.031C-92.3437 332.934 -94.3807 332.805 -94.8656 334.615C-93.3783 334.712 -91.3413 334.842 -90.8564 333.031ZM483.83 334.615C483.345 332.773 481.308 332.934 479.82 333.031C480.305 334.874 482.342 334.712 483.83 334.615ZM565.018 333.84L515.581 335.456L514.384 337.072C530.842 337.201 547.428 336.684 563.821 335.456L565.018 333.872V333.84ZM-154.358 334.615H-175.245V336.231H-154.358V334.615ZM-150.737 337.04C-143.106 338.074 -133.31 336.264 -125.42 337.04C-125.323 335.165 -125.129 335.617 -126.617 335.423C-130.076 334.971 -134.312 335.65 -137.933 335.456C-142.977 335.197 -148.28 333.937 -153.582 334.615C-154.294 336.231 -151.578 336.91 -150.769 337.007L-150.737 337.04ZM-154.358 337.848C-155.393 336.587 -182.456 336.49 -182.488 338.236C-181.744 339.108 -179.966 339.367 -178.867 339.432C-171.139 340.046 -162.636 339.819 -154.811 340.24C-153.97 340.304 -154.261 337.945 -154.326 337.848H-154.358ZM571.452 337.848C567.572 337.072 546.006 336.135 544.098 337.427C543.193 338.042 542.999 339.949 543.322 340.24C543.872 340.789 548.689 339.464 550.112 339.399C555.997 339.173 563.045 340.078 568.671 339.464C569.868 339.335 571.161 339.302 571.452 337.848ZM-125.42 338.656L-153.55 337.848V340.24L-125.42 341.048V338.656ZM541.706 337.848H518.814C518.07 337.848 515.871 339.335 514.384 338.656C513.543 343.375 517.617 340.272 519.622 340.272H541.738V337.848H541.706ZM-95.674 339.432L-124.612 338.623V341.015L-95.674 341.823V339.432ZM513.576 338.656L484.638 339.464V341.856L511.571 341.048L513.576 338.656ZM-90.8564 339.464C-92.3437 339.367 -94.3807 339.238 -94.8656 341.048C-93.3783 341.145 -91.3413 341.274 -90.8564 339.464ZM483.021 339.432L479.82 339.819C480.693 341.048 481.534 341.209 483.021 341.015V339.432ZM-175.245 342.664H-159.564C-157.559 342.664 -153.485 345.767 -154.326 341.048C-161.375 341.565 -168.261 340.337 -175.245 340.24V342.632V342.664ZM326.303 340.24H314.243V356.304H326.303V340.24ZM565.018 340.24L543.322 341.048V343.44C549.368 341.856 557.452 343.634 563.013 342.632C564.403 342.373 565.276 341.759 565.018 340.24ZM-153.55 343.472H-131.434C-130.335 343.472 -127.328 345.12 -125.388 344.28V341.888C-134.829 342.341 -144.141 341.339 -153.518 341.08V343.472H-153.55ZM71.5197 341.048H60.2679V356.304H71.5197V341.048ZM538.893 341.856C531.165 342.664 522.241 341.274 514.384 341.856V344.248C516.324 345.088 519.331 343.44 520.398 343.44H541.706C542.126 339.173 540.639 341.662 538.893 341.823V341.856ZM-154.358 344.28C-163.767 344.926 -173.208 342.05 -182.488 344.28C-182.197 345.735 -180.904 345.767 -179.707 345.896C-171.98 346.769 -162.312 345.799 -154.358 346.672V344.28ZM571.452 344.28C569.318 342.244 547.655 343.989 543.322 344.28V346.672C551.664 345.735 562.237 346.898 570.255 345.864C571.355 345.735 572.648 345.379 571.452 344.28ZM-125.42 345.056H-148.312C-150.317 345.056 -154.391 341.953 -153.55 346.672C-151.157 345.799 -147.439 347.48 -145.919 347.48H-125.42V345.056ZM541.706 344.28L514.384 345.088V347.48L541.706 346.672V344.28ZM513.576 347.48C516.065 344.151 507.433 345.896 506.786 345.928C503.553 345.961 485.802 345.476 484.638 346.704C484.476 346.866 484.735 348.45 484.638 349.096C488.679 347.803 512.412 349.064 513.576 347.48ZM-95.674 346.672C-104.307 346.931 -114.039 344.765 -122.607 345.864C-123.739 345.993 -124.935 346.284 -123.804 347.448C-122.381 348.935 -106.667 348.126 -103.272 348.223C-100.653 348.288 -95.9326 350.906 -95.674 346.64V346.672ZM-90.8564 346.672H-94.0573V348.256C-92.57 348.45 -91.2767 348.256 -90.8564 346.672ZM483.83 348.256C483.345 346.413 481.308 346.575 479.82 346.672C480.305 348.514 482.342 348.353 483.83 348.256ZM543.322 349.096H563.821C564.306 349.096 565.373 347.448 565.018 346.704C559.068 347.221 551.923 346.834 546.103 347.48C544.906 347.609 543.613 347.642 543.322 349.129V349.096ZM-155.555 347.48C-159.855 346.219 -170.201 348.417 -175.245 347.48V349.096H-157.98C-157.527 349.096 -155.134 350.648 -154.358 349.904C-153.906 349.484 -154.876 347.706 -155.555 347.512V347.48ZM-3.23407 348.288C-7.21102 349.387 -34.2737 346.316 -35.4053 347.48C-35.5023 347.609 -35.5023 350.583 -35.4053 350.68C-34.2737 351.811 -7.01702 352.361 -3.23407 352.296V348.256V348.288ZM423.561 347.48L391.81 348.288C389.256 348.288 388.771 352.749 391.454 352.781C402.124 352.813 412.859 350.906 423.561 351.52V347.48ZM514.384 350.68C522.467 350.518 530.874 350.518 538.925 349.904C543.775 349.549 543.322 347.351 538.99 347.512C531.844 347.836 522.403 347.803 515.581 349.064C514.255 349.322 514.19 348.547 514.384 350.648V350.68ZM-125.42 349.096L-153.55 348.288L-152.354 349.904C-144.044 349.678 -134.829 351.747 -126.617 350.712C-125.453 350.551 -124.127 350.098 -125.42 349.096ZM53.8336 348.288H-1.61742V352.296H53.8336V348.288ZM388.997 348.288H331.929C331.703 349.419 331.929 353.104 333.126 353.104H388.997V348.288ZM-154.358 350.68C-156.848 351.714 -182.585 348.288 -182.488 351.068C-173.532 352.91 -164.026 352.781 -154.811 353.104L-154.326 350.68H-154.358ZM571.452 350.712C562.14 348.644 552.731 351.003 543.322 350.712C543.419 351.359 543.16 352.943 543.322 353.104C543.969 353.783 559.489 351.165 562.205 352.296L571.452 350.712ZM-125.42 352.296L-153.55 350.68V353.072C-144.788 352.425 -135.314 354.979 -126.617 353.88C-125.453 353.718 -124.127 353.266 -125.42 352.264V352.296ZM514.384 353.912H533.267C535.045 353.912 539.087 352.232 541.706 353.104V350.712C537.761 350.001 533.752 351.423 530.066 351.553C526.024 351.682 519.978 350.874 516.389 351.553C514.998 351.811 514.125 352.425 514.384 353.945V353.912ZM-95.674 353.104L-124.612 352.716C-123.06 356.24 -115.72 354.527 -112.164 354.72C-106.764 355.044 -101.235 356.11 -95.674 355.496V353.104ZM-3.23407 353.912L-35.4053 352.296V356.337C-31.4284 355.464 -4.36572 358.308 -3.23407 357.145C-3.13707 357.015 -3.13707 354.042 -3.23407 353.945V353.912ZM423.561 352.296L390.614 353.912V357.953L423.561 356.337V352.296ZM512.768 352.296L484.638 353.104V355.496L512.768 354.688V352.296ZM-90.8564 353.104C-92.6993 352.781 -94.1867 353.815 -94.8656 355.496C-92.9257 355.367 -90.2097 355.27 -90.8564 353.104ZM483.83 355.496C483.151 353.815 481.663 352.781 479.82 353.104C479.174 355.27 481.922 355.367 483.83 355.496ZM565.018 353.104C558.648 353.524 550.694 353.104 544.518 353.912C543.419 354.042 541.996 354.494 543.322 355.529C549.271 354.882 556.482 355.399 562.237 354.753C563.433 354.623 564.727 354.591 565.018 353.137V353.104ZM-155.555 353.912C-160.308 352.684 -169.878 354.817 -175.245 353.912L-164.446 355.561H-154.358C-154.358 355.011 -155.296 353.977 -155.555 353.912ZM54.6419 353.912H-1.61742V357.92C17.1357 357.694 35.9535 358.567 54.6419 357.112C54.5126 356.337 54.8359 354.106 54.6419 353.912ZM388.997 353.912H331.929V357.92H388.997V353.912ZM537.308 354.72C532.232 354.914 527.123 354.72 522.047 354.72C520.527 354.72 516.809 356.401 514.417 355.529C513.673 357.985 517.262 357.242 518.878 357.177C521.174 357.08 523.114 356.369 525.248 356.304C531.036 356.11 537.017 357.145 542.546 355.141C540.8 352.522 538.537 354.688 537.341 354.72H537.308ZM-125.42 355.529L-153.55 354.72C-153.259 356.175 -151.966 356.207 -150.769 356.337C-145.208 356.951 -137.513 356.821 -131.499 357.145C-130.691 357.177 -122.834 357.5 -125.453 355.496L-125.42 355.529ZM-154.358 357.112C-155.458 355.949 -178.802 355.916 -182.488 356.304C-182.585 358.147 -182.779 357.727 -181.292 357.92C-172.432 358.955 -163.218 358.955 -154.358 359.504C-154.455 358.858 -154.197 357.274 -154.358 357.112ZM571.452 356.304C567.733 355.755 545.618 355.658 544.098 356.692C543.29 357.242 542.934 359.084 543.322 359.504C543.516 359.731 546.006 358.729 546.943 358.696C553.798 358.438 561.978 358.696 568.671 357.92C569.868 357.791 571.161 357.759 571.452 356.304ZM-125.42 361.12L-126.196 358.308C-135.217 357.888 -144.464 357.565 -153.55 357.112V359.504L-125.42 361.12ZM541.706 357.112L516.389 357.92L514.384 360.312L541.706 359.504V357.112ZM-24.1535 357.92C-27.9041 357.92 -31.6547 357.92 -35.4053 357.92V382.034L-3.2664 383.65V358.761C-7.27569 358.761 -11.3173 358.761 -15.3266 358.761C-17.4606 357.274 -21.4052 357.985 -24.1535 357.953V357.92ZM403.45 358.729C399.149 358.89 394.752 358.179 390.581 359.537V383.65L423.529 382.034V357.92C420.619 358.05 417.612 357.759 414.702 357.92C411.145 358.341 406.521 356.918 403.45 358.729ZM-95.674 360.345C-96.9026 359.084 -120.021 359.084 -123.804 358.729V361.12C-115.203 359.892 -105.148 362.963 -96.8703 361.929C-95.7386 361.799 -94.5423 361.508 -95.674 360.345ZM53.8336 358.729H-1.61742V383.617H73.1364V362.737H55.0623C53.6073 362.737 53.9953 358.89 53.8659 358.729H53.8336ZM388.997 358.729H332.738C332.576 358.729 332.738 361.929 331.541 361.929H313.467V383.617H389.029V358.729H388.997ZM512.768 358.729L484.638 359.537V361.929C492.204 360.733 503.779 362.413 510.763 361.12C512.153 360.862 513.026 360.248 512.768 358.729ZM-154.358 360.345L-175.245 359.537L-174.049 361.153C-167.873 360.603 -161.666 362.737 -155.522 361.961C-154.358 361.799 -153.033 361.347 -154.326 360.345H-154.358ZM564.209 359.537C547.978 359.698 531.779 361.153 515.581 361.929L514.384 363.545L563.013 361.153L564.209 359.537ZM-133.859 361.12C-138.968 360.765 -144.723 361.12 -149.929 361.12C-151.222 361.12 -156.007 358.535 -152.192 362.575L-125.42 363.512C-122.672 361.411 -130.788 362.025 -131.467 361.929C-132.501 361.799 -133.471 361.12 -133.859 361.088V361.12ZM-154.358 363.545C-155.328 362.51 -179.19 361.605 -182.488 362.737C-182.197 364.191 -180.904 364.223 -179.707 364.353C-171.365 365.258 -162.7 365.193 -154.358 365.937C-154.455 365.29 -154.197 363.706 -154.358 363.545ZM543.322 365.161H556.579C556.87 365.161 557.904 364.385 558.971 364.32C563.142 364.062 567.313 364.838 571.452 363.545C571.613 362.381 569.35 362.09 568.574 362.026C560.168 361.12 551.761 363.609 543.322 362.769V365.161ZM-125.42 365.161L-153.55 363.545V365.937C-144.141 365.872 -134.797 367.521 -125.42 367.553V365.161ZM541.706 363.545H528.449C528.19 363.545 527.091 364.288 526.056 364.385C524.213 364.514 515.16 364.32 514.352 365.161C514.255 365.258 514.287 367.488 514.352 367.553C514.901 368.167 516.906 366.745 517.165 366.745H533.234C535.013 366.745 539.054 365.064 541.673 365.937V363.545H541.706ZM-95.674 366.745L-124.612 365.129V367.52C-114.944 367.908 -105.309 368.587 -95.674 369.137V366.745ZM513.576 365.161C509.858 365.516 485.64 365.71 484.638 366.777C484.476 366.939 484.735 368.523 484.638 369.169L513.576 367.553V365.161ZM-154.358 366.745L-175.245 365.937C-174.954 367.391 -173.661 367.424 -172.465 367.553C-168.973 367.941 -164.058 368.167 -160.405 368.361C-159.596 368.393 -151.739 368.716 -154.358 366.712V366.745ZM564.209 365.969L515.581 368.361L514.384 369.977L561.429 367.585L564.209 365.969ZM-125.42 368.361C-134.086 368.813 -142.686 367.359 -151.351 367.262C-152.418 367.262 -153.13 366.551 -153.55 368.329C-146.243 368.846 -138.806 369.654 -131.499 369.977C-130.691 370.009 -122.834 370.3 -125.42 368.329V368.361ZM-90.8564 366.777H-94.0573V368.361C-92.57 368.555 -91.2767 368.361 -90.8564 366.777ZM483.021 366.745L479.82 367.133C480.693 368.361 481.534 368.522 483.021 368.329V366.745ZM-125.42 371.593C-132.469 370.882 -139.614 370.43 -146.695 369.945C-153.776 369.46 -161.698 368.587 -169.199 368.329C-173.176 368.199 -179.158 367.585 -182.488 369.557L-125.841 373.985L-125.42 371.561V371.593ZM571.452 369.945C571.161 368.49 569.868 368.458 568.671 368.329C560.394 367.391 551.599 369.428 543.322 369.169V371.561L571.452 369.945ZM542.514 369.977L514.384 370.785V373.177C515.322 374.147 538.311 372.11 541.318 371.561C542.643 371.302 542.708 372.078 542.514 369.977ZM-95.674 373.177L-124.612 371.561V373.953C-117.014 374.179 -109.286 374.308 -101.72 374.761C-98.8103 374.923 -94.801 377.508 -95.674 373.145V373.177ZM513.576 371.593L483.83 373.597C485.058 377.476 488.906 374.923 491.46 374.826C498.185 374.567 504.814 374.082 511.539 374.017L513.544 371.626L513.576 371.593ZM-90.8564 373.177C-92.3437 372.951 -93.637 373.177 -94.0573 374.761C-92.57 374.987 -91.2767 374.761 -90.8564 373.177ZM483.054 374.793C482.633 373.209 481.34 372.983 479.853 373.209C480.273 374.793 481.566 375.019 483.054 374.793ZM-124.612 386.85C-119.568 385.201 -113.489 386.268 -108.122 386.042C-107.152 386.009 -105.148 386.656 -105.309 385.234L-166.774 381.193C-170.977 380.159 -174.76 380.805 -178.737 378.801L-186.465 381.193L-125.388 385.234L-132.631 386.042C-134.506 385.945 -136.381 386.074 -138.256 386.042C-139.582 384.619 -142.686 385.266 -144.691 385.234C-153.582 385.169 -162.345 383.941 -171.204 383.617C-172.82 382.131 -176.151 382.874 -178.446 382.809C-182.52 382.68 -186.465 382.357 -190.507 382.001V396.45L-121.379 402.882V386.817C-122.446 386.817 -123.513 386.817 -124.612 386.817V386.85ZM529.645 385.234C528.126 385.234 525.701 384.684 524.828 386.042C523.761 386.042 522.694 386.042 521.627 386.042C519.105 386.042 515.451 385.363 513.576 386.85C512.25 386.914 510.892 386.785 509.567 386.85V402.914C533.428 401.104 557.258 398.098 581.087 396.482L581.895 382.034C564.436 381.807 547.04 385.04 529.645 385.266V385.234ZM312.627 386.042H455.7L447.261 384.458C427.635 381.743 408.882 384.684 389.417 385.298C364.941 386.042 339.851 384.264 315.44 385.266C314.437 385.298 312.465 384.652 312.627 386.074V386.042ZM-69.1609 386.042H73.104C73.298 384.619 71.2934 385.266 70.291 385.234C44.5864 384.167 18.1057 385.783 -7.72835 385.266C-25.3498 384.91 -43.0036 382.066 -60.722 384.426L-69.1609 386.009V386.042ZM-119.794 387.658V402.914H75.529C75.3027 401.719 75.917 397.84 75.432 397.355C75.0763 397.032 73.2334 397.775 73.0717 396.87C72.7484 395.189 73.5567 387.302 73.1364 386.85L-119.762 387.658H-119.794ZM507.95 386.85H313.435C313.112 389.436 313.92 392.862 313.435 395.319C313.047 397.323 311.204 396.967 310.978 397.872C310.622 399.294 311.204 401.363 310.978 402.947H507.918V386.882L507.95 386.85ZM106.86 397.29H77.1133V406.115H106.86V397.29ZM266.035 397.29H119.76V406.923H266.035V397.29ZM309.426 397.29H278.871V406.115H309.426V397.29ZM-184.913 415.747V398.874H-185.721V415.747H-184.913ZM-169.619 399.682L-183.296 398.874V414.939C-179.352 414.422 -175.051 416.264 -171.268 416.199C-170.589 416.199 -169.619 415.909 -169.619 415.327V399.65V399.682ZM573.877 398.874L560.2 399.682V416.555C564.597 415.327 569.285 414.777 573.877 414.939V398.874ZM576.269 415.747V398.874H575.461V415.747H576.269ZM-168.035 416.555V400.49H-168.843V416.555H-168.035ZM-153.55 401.298L-167.227 400.49V416.555L-153.55 418.171V401.298ZM556.999 400.49L543.322 401.298V418.171L556.999 416.555V400.49ZM-151.125 418.171V402.106H-151.933V418.171H-151.125ZM-135.864 419.787V404.11C-135.864 402.624 -148.344 402.139 -150.317 402.106V417.783C-150.317 419.302 -137.836 419.917 -135.864 419.787ZM540.121 402.106L525.668 402.914V419.787C527.673 419.787 540.121 419.27 540.121 417.783V402.106ZM541.706 418.171V402.106H540.897V418.171H541.706ZM-134.247 420.563V403.69H-135.056V420.563H-134.247ZM-118.986 404.498L-133.439 403.69V420.563L-118.986 422.179V404.498ZM522.435 403.723L507.982 404.531V422.212L522.435 420.595V403.723ZM524.828 408.539V403.723H524.052V408.539H524.828ZM-116.593 422.987V404.498H-117.402V422.987H-116.593ZM-115.785 405.306V422.987H-89.272V405.306C-88.9164 405.306 -88.0757 406.115 -87.6554 406.115V422.987C-82.5791 422.923 -77.4705 423.052 -72.3942 422.987C-70.2279 422.987 -61.5951 423.601 -61.1424 422.179C-60.5281 420.304 -61.0454 408.377 -61.1424 405.306H-115.785ZM-32.172 404.498H-59.4934V422.179H-32.172V404.498ZM-5.65903 404.498H-30.5877V422.179H-5.65903V404.498ZM-0.841431 404.498C-1.42342 404.595 -4.04239 404.337 -4.04239 404.498V421.371C-3.52506 421.339 -0.841431 420.725 -0.841431 420.563V404.498ZM3.20018 404.498H0.775223V418.947C1.35722 418.333 3.20018 418.268 3.20018 418.139V404.498ZM5.59285 405.306V418.171L8.01781 417.363V492.87H71.5197C72.8454 489.218 71.7137 484.822 72.4897 481.396C73.007 479.036 75.2703 478.519 75.5613 475.642C76.0463 470.858 74.074 473.735 72.425 472.701C71.1964 471.925 71.067 452.66 71.6814 450.107C73.3303 443.61 81.8016 445.775 86.7485 445.484C86.7485 443.028 85.8755 431.812 89.5615 431.812H102.01L103.626 410.123C106.375 410.123 107.345 410.898 106.86 407.731H75.4967V404.498L5.5605 405.306H5.59285ZM311.042 407.731C309.975 408.862 283.689 406.858 279.679 407.731C278.677 411.448 281.781 409.411 282.137 410.607L283.689 431.036C296.719 429.581 298.465 433.137 297.365 445.484C301.472 445.646 309.361 444.062 310.881 449.266C311.269 450.559 311.43 471.181 311.107 472.313C310.816 473.315 306.063 472.119 308.456 477.42C308.973 478.616 310.59 479.456 310.913 480.587C311.915 484.111 310.363 490.511 313.079 493.678H379.782L382.595 405.306L311.042 404.498C310.881 405.242 311.269 407.472 311.042 407.731ZM387.38 404.498H385.764V418.947H387.38V404.498ZM392.198 404.498C391.616 404.595 388.997 404.337 388.997 404.498V420.175C388.997 420.563 391.519 421.985 392.198 422.179V404.498ZM393.815 405.306V422.179H419.519V405.306C421.362 410.446 419.843 416.749 420.328 422.179H448.457V404.498L393.815 405.306ZM449.266 405.306C449.88 408.959 448.102 419.69 450.074 422.179C450.947 423.278 451.367 422.89 452.499 422.987C460.226 423.666 468.795 422.502 476.619 422.987V405.306C477.137 405.306 477.686 405.306 478.236 405.306V422.987H504.749V405.306H449.298H449.266ZM506.333 422.987V404.498H505.525V422.987H506.333ZM128.587 407.731L119.728 408.119L122.961 408.539C124.966 435.109 126.68 461.808 127.779 488.474C127.811 489.476 127.165 491.448 128.587 491.287V407.731ZM256.367 407.731H130.172V492.095H134.989V411.771H251.55V492.095H256.367V407.731ZM257.984 407.731V484.854L259.568 470.793C260.053 450.268 261.831 429.711 263.125 409.282L266.002 408.151L257.952 407.763L257.984 407.731ZM122.121 418.979C122.088 417.266 122.218 415.488 122.121 413.743C122.088 412.773 122.735 410.769 121.312 410.931C121.345 412.644 121.215 414.422 121.312 416.167C121.345 417.137 120.698 419.141 122.121 418.979ZM263.61 412.935C263.092 416.749 263.998 421.468 263.61 425.379L265.259 412.127L264.45 410.931C264.612 411.706 263.707 412.45 263.642 412.935H263.61ZM119.728 411.739H105.275C105.146 414.001 105.469 416.296 105.275 418.559C104.984 421.565 103.594 427.254 103.723 429.872C103.82 431.456 105.696 431.973 106.051 433.848C106.569 436.498 106.439 447.715 106.051 450.721C105.631 454.244 102.559 455.731 102.753 457.897C102.915 459.513 104.693 460.095 105.049 461.29C105.696 463.456 105.081 467.076 106.019 469.565H122.897L119.696 411.739H119.728ZM280.488 411.739H266.035L262.834 469.565H278.903C279.194 467.206 278.451 464.135 278.903 461.905C279.356 459.674 282.104 460.967 281.393 456.313C281.102 454.503 279.712 454.987 279 453.856C277.675 451.787 277.545 433.654 278.839 432.135C279.615 431.23 280.94 431.197 282.007 430.907L280.52 411.739H280.488ZM136.606 413.355V490.478H152.675V489.67H137.414V488.862H152.675V487.246H137.414V486.438H152.675V484.822H137.414L145.045 483.238C146.953 482.527 153.193 484.886 152.675 481.622H137.414V480.814H152.675V479.198H138.223V477.581H152.675V475.965H138.223V475.157H152.675V473.541H138.223V472.733H152.675V471.117H138.223C138.158 470.6 139.29 469.501 139.419 469.501H152.675V467.884H137.414V467.076H152.675V465.46H137.414C137.35 464.943 138.481 463.844 138.611 463.844H152.675V462.228H138.223V461.42H152.675V459.804H137.414L144.657 458.996C145.239 455.828 139.257 457.993 137.414 457.379C138.611 454.696 142.361 456.054 144.657 455.763C144.528 454.179 141.424 455.149 140.195 454.987C138.966 454.826 137.705 454.858 137.414 453.371H144.657C145.659 450.042 138.223 452.789 138.223 451.367L144.657 450.947C145.659 447.65 138.223 450.365 138.223 448.943L144.657 448.523C145.53 444.773 138.449 448.911 138.223 445.711C139.742 444.224 145.304 447.036 144.657 443.707L138.223 443.286C138.223 441.864 145.659 444.579 144.657 441.282L137.414 440.862C137.414 439.731 145.433 441.961 144.657 438.05L138.223 437.242C139.969 436.692 145.271 438.729 144.657 435.626L137.414 435.206L144.657 434.785C145.659 431.488 138.223 434.204 138.223 432.781L144.657 432.361C145.53 428.612 138.449 432.749 138.223 429.549L144.657 428.353L137.414 427.933C137.414 426.446 145.595 429.29 144.657 425.929L137.414 425.509C137.414 424.41 144.204 426.349 144.657 423.505L137.414 423.084C137.414 421.597 145.595 424.442 144.657 421.08L137.414 420.66C137.414 419.593 144.398 421.403 144.657 418.656C143.784 418.01 138.19 419.949 137.414 417.04H144.657C145.627 413.711 138.223 416.458 138.223 415.036L144.657 413.452L136.606 413.032V413.355ZM152.675 413.355C150.832 413.937 144.851 411.803 145.465 414.939C147.308 414.357 153.29 416.49 152.675 413.355ZM169.553 413.355H154.292V414.971H169.553V413.355ZM216.177 413.355H170.362V414.971H216.177V413.355ZM232.247 413.355H216.986V414.971H232.247V413.355ZM241.106 413.355C239.263 413.937 233.281 411.803 233.896 414.939C235.739 414.357 241.72 416.49 241.106 413.355ZM249.933 413.355H242.69C242.044 416.684 247.605 413.904 249.125 415.359C249.125 416.781 241.72 414.066 242.69 417.363L249.125 417.783C249.125 418.818 243.078 417.104 242.69 419.787H249.933V413.355ZM152.675 415.747C150.832 416.329 144.851 414.195 145.465 417.331C147.308 416.749 153.29 418.882 152.675 415.747ZM169.553 415.747H154.292V417.363H169.553V415.747ZM216.177 415.747H171.558C171.558 415.747 170.297 416.846 170.362 417.363H216.177V415.747ZM232.247 415.747H216.986V417.363H232.247V415.747ZM241.106 415.747C239.263 416.329 233.281 414.195 233.896 417.331C235.739 416.749 241.72 418.882 241.106 415.747ZM-120.603 424.603L-188.114 417.363V459.933L-120.603 470.373V424.571V424.603ZM578.694 417.363L509.567 424.603V471.181L578.694 460.741V417.363ZM152.708 418.171C150.186 418.397 145.498 416.911 145.465 420.563H152.708V418.171ZM169.553 418.171H154.292V420.595H169.553V418.171ZM171.17 418.979C171.493 420.337 173.659 419.723 174.791 419.787C186.69 420.272 199.882 420.111 211.812 419.82C213.041 419.82 214.593 420.208 215.401 418.979H171.202H171.17ZM217.794 419.787C219.346 420.24 226.395 419.884 228.658 419.787C229.757 419.755 231.956 420.337 232.279 418.979C227.688 417.137 221.9 418.656 217.018 418.171C216.889 419.108 216.759 419.464 217.826 419.787H217.794ZM241.106 418.171C239.263 418.753 233.281 416.62 233.896 419.755C235.739 419.173 241.72 421.306 241.106 418.171ZM390.614 422.179L384.212 418.947C383.694 420.919 389.999 424.248 390.614 422.179ZM-0.841431 424.183V468.757L3.16788 466.365C3.7822 466.915 -2.26408 470.664 -0.712097 472.701C-0.421101 473.056 0.710572 472.377 0.742905 473.185C0.742905 473.67 -1.8114 473.121 -0.873749 476.321C-0.647418 477.097 1.0339 476.547 0.742905 477.194C0.0962456 478.68 -2.87839 479.973 0.742905 481.202C-2.71672 486.115 -0.065425 494.196 -0.873749 500.078C0.0315738 501.08 6.36882 494.293 6.36882 493.258V476.806L2.35954 479.198C3.68519 476.192 7.50047 476.741 6.36882 472.765L3.16788 474.349C7.53283 471.214 5.78684 469.921 6.40117 465.137L3.9762 465.525C4.75219 463.973 6.65982 463.198 6.43349 461.161L6.36882 419.755C6.11016 419.399 -0.679766 423.634 -0.841431 424.183ZM122.961 431.812V420.563H122.153V431.812H122.961ZM388.997 468.789V425.024C388.997 424.41 382.854 421.016 381.754 420.595V463.585C381.754 464.07 388.35 469.468 388.997 468.822V468.789ZM152.675 421.371L145.465 421.759C146.177 423.892 155.165 423.246 152.675 421.371ZM169.553 421.371H154.292V422.987H169.553V421.371ZM216.177 421.371H170.362C170.297 421.888 171.429 422.987 171.558 422.987H216.177V421.371ZM232.247 421.371H216.986V422.987H232.247V421.371ZM241.106 421.371C239.263 421.953 233.281 419.82 233.896 422.955C235.739 422.373 241.72 424.507 241.106 421.371ZM249.933 421.371H242.69C242.044 424.7 247.605 421.921 249.125 423.375C249.125 424.797 241.688 422.082 242.69 425.379L249.125 425.799C249.125 427.222 241.688 424.507 242.69 427.804L249.125 428.224C249.125 429.646 241.688 426.931 242.69 430.228L249.125 430.648C249.125 432.07 241.688 429.355 242.69 432.652L249.125 433.072C249.125 434.494 241.688 431.779 242.69 435.076L249.125 435.496L242.69 435.917C242.044 439.02 247.346 436.983 249.125 437.533C248.252 440.894 242.108 437.242 242.69 440.733L249.125 441.153C249.125 442.575 241.688 439.86 242.69 443.157L249.125 443.577L242.69 443.997C242.044 447.101 247.346 445.064 249.125 445.614C248.252 448.975 242.108 445.323 242.69 448.814L249.125 449.234C249.125 450.656 241.688 447.941 242.69 451.238L249.125 451.658L242.69 452.078C241.817 455.828 248.898 451.69 249.125 454.89C247.605 456.377 242.044 453.565 242.69 456.895L249.125 457.703C244.76 458.64 239.069 457.153 235.06 457.703C233.605 457.897 233.766 457.412 233.863 459.319H249.125V460.127H233.863V461.743H249.125V462.551H233.863V464.167H249.125V465.783H233.863V467.4H249.125V468.208H233.863V469.824H249.125C249.189 470.341 248.058 471.44 247.928 471.44H233.863V473.056H249.125V473.864H233.863V475.48H248.316V476.289H233.863V477.905H249.125C249.189 478.422 248.058 479.521 247.928 479.521H233.863V481.137H249.125V481.945H233.863V483.561H247.54V485.177H233.863V486.794H249.125V487.602H233.863V489.218H249.125V490.026H233.863V490.834H249.933V421.759V421.371ZM152.675 423.795C150.929 424.313 145.627 422.309 146.241 425.379C147.987 424.862 153.29 426.866 152.675 423.795ZM169.553 423.795H154.292V425.412H169.553V423.795ZM216.177 423.795H170.362C170.297 424.313 171.429 425.412 171.558 425.412H216.177V423.795ZM232.247 423.795H216.986V425.412H232.247V423.795ZM241.106 423.795C239.263 424.377 233.281 422.244 233.896 425.379C235.739 424.797 241.72 426.931 241.106 423.795ZM-2.42574 424.603H-118.986V470.406L-2.42574 469.598V424.603ZM507.95 425.412H389.805V470.406L507.95 471.214V425.412ZM152.675 426.22C150.929 426.737 145.627 424.733 146.241 427.804C147.987 427.286 153.29 429.29 152.675 426.22ZM169.553 426.187H154.292V427.804H169.553V426.187ZM216.177 426.187H170.362V426.995H216.177V426.187ZM232.247 426.187H216.986V427.804H232.247V426.187ZM241.106 426.22C239.263 426.801 233.281 424.668 233.896 427.804C235.739 427.222 241.72 429.355 241.106 426.22ZM261.993 467.981C261.993 454.018 264.03 440.151 263.61 426.22C262.219 426.026 262.866 428.03 262.801 429.032C262.284 441.703 261.993 454.406 260.57 466.979L261.993 467.981ZM152.675 428.612C151.091 429.064 146.952 427.577 146.241 429.387C147.825 428.935 151.964 430.422 152.675 428.612ZM169.553 428.612H154.292V429.42H169.553V428.612ZM216.177 428.612H170.362V490.478H192.865V429.42H193.674V491.287C205.54 489.735 217.535 490.963 229.434 490.478C230.436 490.446 232.408 491.093 232.247 489.67H216.177V428.612ZM232.247 428.612H216.986C216.921 429.129 218.053 430.228 218.182 430.228H232.247V428.612ZM241.106 428.612C239.263 429.193 233.281 427.06 233.896 430.195C235.739 429.614 241.72 431.747 241.106 428.612ZM152.675 431.036C150.832 431.618 144.851 429.484 145.465 432.62C147.308 432.038 153.29 434.171 152.675 431.036ZM169.553 431.036H154.292V432.652H169.553V431.036ZM232.247 431.036H217.794V432.652H232.247V431.036ZM241.106 431.036C239.263 431.618 233.281 429.484 233.896 432.62C235.739 432.038 241.72 434.171 241.106 431.036ZM103.659 432.62H90.4022C90.4022 432.62 89.1412 433.719 89.2058 434.236H102.462C102.462 434.236 103.723 433.137 103.659 432.62ZM294.94 434.236C295.005 433.719 293.873 432.62 293.744 432.62H280.488C280.423 433.137 281.555 434.236 281.684 434.236H294.94ZM125.354 468.757L124.546 445.872L122.961 433.428L123.77 461.129L125.354 468.757ZM152.675 433.428C150.832 434.01 144.851 431.876 145.465 435.012C147.308 434.43 153.29 436.563 152.675 433.428ZM169.553 433.428H154.292V435.044H169.553V433.428ZM232.247 433.428H216.986V435.044H232.247V433.428ZM241.106 433.428C239.263 434.01 233.281 431.876 233.896 435.012C235.739 434.43 241.72 436.563 241.106 433.428ZM104.467 452.725V434.236H103.659V452.725H104.467ZM102.85 435.044C101.719 434.591 100.458 435.852 100.037 435.852H88.3975C88.6562 437.371 88.0418 445.161 88.3975 445.484C89.6261 446.68 96.2221 442.478 94.0235 454.309C95.6401 454.212 102.883 454.923 102.883 453.113V435.044H102.85ZM280.488 452.725V435.044H279.679V452.725H280.488ZM295.749 435.044H282.492C282.492 435.044 281.296 436.175 281.296 436.24V453.113C281.296 454.858 287.827 454.276 289.347 454.309C287.051 441.864 294.455 446.777 295.781 445.484C296.169 445.129 295.49 436.66 295.781 435.044H295.749ZM152.675 435.852C150.832 436.434 144.851 434.3 145.465 437.436C147.308 436.854 153.29 438.987 152.675 435.852ZM169.553 437.436C169.618 436.919 168.486 435.82 168.357 435.82H154.292V437.436H169.553ZM217.794 437.436C219.346 437.888 226.395 437.533 228.658 437.436C229.757 437.404 231.956 437.985 232.279 436.628C227.688 434.785 221.9 436.305 217.018 435.82C216.889 436.757 216.759 437.113 217.826 437.436H217.794ZM241.106 435.852C239.263 436.434 233.281 434.3 233.896 437.436C235.739 436.854 241.72 438.987 241.106 435.852ZM152.675 438.244C151.123 438.826 145.594 436.854 145.433 439.44C147.211 441.541 150.283 440.442 152.675 440.668V438.276V438.244ZM169.553 440.668C169.877 439.989 168.874 438.244 168.357 438.244H154.292V440.668H169.553ZM232.247 439.052H217.794V440.668H232.247V439.052ZM241.106 439.052C239.263 439.634 233.281 437.501 233.896 440.636C235.739 440.054 241.72 442.187 241.106 439.052ZM152.675 441.476C150.832 442.058 144.851 439.925 145.465 443.06C147.308 442.478 153.29 444.612 152.675 441.476ZM169.553 441.476H154.292V443.092H168.357C168.357 443.092 169.618 441.993 169.553 441.476ZM232.247 441.476H216.986V443.092H232.247V441.476ZM241.106 441.476C239.263 442.058 233.281 439.925 233.896 443.06C235.739 442.478 241.72 444.612 241.106 441.476ZM152.675 443.868C150.929 444.385 145.627 442.381 146.241 445.452C147.987 444.935 153.29 446.939 152.675 443.868ZM168.777 443.868H154.324V445.484H168.777V443.868ZM232.247 443.868H216.986V445.484H232.247V443.868ZM241.106 443.868C239.263 444.45 233.281 442.317 233.896 445.452C235.739 444.87 241.72 447.004 241.106 443.868ZM90.7902 447.101H75.917C75.917 447.101 74.656 448.2 74.7207 448.717H90.7902V447.101ZM152.675 447.101C151.091 447.553 146.952 446.066 146.241 447.876C147.825 447.424 151.964 448.911 152.675 447.101ZM168.777 447.101H154.324V447.909H168.777V447.101ZM217.794 447.876C219.249 449.331 222.644 448.652 224.616 448.684C226.847 448.684 230.501 449.331 232.247 447.876C228.173 446.519 221.803 446.519 217.794 447.876ZM241.106 447.101C239.263 447.682 233.281 445.549 233.896 448.684C235.739 448.103 241.72 450.236 241.106 447.101ZM308.617 448.684C308.682 448.167 307.55 447.068 307.421 447.068H292.548V448.684H308.617ZM291.739 469.565V448.684H290.931V469.565H291.739ZM92.4068 469.565V449.492H91.5985V469.565H92.4068ZM152.675 449.492C150.832 450.074 144.851 447.941 145.465 451.076C147.308 450.494 153.29 452.628 152.675 449.492ZM168.777 449.492H154.324V451.109H168.777V449.492ZM232.247 449.492H216.986V451.109H232.247V449.492ZM241.106 449.492C239.263 450.074 233.281 447.941 233.896 451.076C235.739 450.494 241.72 452.628 241.106 449.492ZM89.9818 450.301H73.104V471.181H89.9818V450.301ZM309.426 450.301H293.356V469.985C293.356 470.244 292.354 470.6 292.548 471.181H309.426V450.301ZM152.675 451.917C150.832 452.499 144.851 450.365 145.465 453.501C147.308 452.919 153.29 455.052 152.675 451.917ZM169.553 451.917H154.292V453.533H169.553V451.917ZM232.247 451.917H216.986V453.533H232.247V451.917ZM241.106 451.917C239.263 452.499 233.281 450.365 233.896 453.501C235.739 452.919 241.72 455.052 241.106 451.917ZM100.458 455.117H94.0235V462.357H100.458V455.117ZM152.675 455.117C151.091 455.569 146.952 454.082 146.241 455.892C147.825 455.44 151.964 456.927 152.675 455.117ZM168.777 455.117H154.324V455.925H168.777V455.117ZM232.247 455.117H217.794V455.925H232.247V455.117ZM241.106 455.117C239.231 455.569 234.93 454.05 233.896 455.892C235.739 455.408 240.007 456.959 241.106 455.117ZM289.347 455.117C282.783 454.212 283.495 456.959 283.721 462.357H289.347V455.117ZM102.85 462.357L101.266 455.925C101.816 457.476 99.714 462.907 102.85 462.357ZM282.88 462.357L282.104 455.925L281.296 461.969L282.88 462.357ZM152.675 457.541C150.832 458.123 144.851 455.989 145.465 459.125C147.308 458.543 153.29 460.676 152.675 457.541ZM168.777 457.541H154.324V459.157H168.777V457.541ZM232.247 457.541H216.986V459.157H232.247V457.541ZM169.553 459.933H154.292V461.549H169.553V459.933ZM232.247 459.933H216.986V461.549H232.247V459.933ZM-120.603 474.381L-121.961 471.311L-188.922 460.709V463.101L-120.603 474.349V474.381ZM105.243 495.295C105.114 485.274 104.855 475.19 104.435 465.169C104.402 464.2 105.049 462.196 103.626 462.357V482.882L105.211 495.295H105.243ZM168.777 462.357H154.324V463.973H168.777V462.357ZM232.247 462.357H216.986V463.973H232.247V462.357ZM579.503 462.357L509.567 471.99V474.381L577.466 464.749L579.47 462.357H579.503ZM279.679 463.165V483.238H261.993V488.862H277.675C277.869 488.862 278.548 487.666 278.871 488.054V489.67H261.993V495.295H276.866C277.998 495.295 277.772 492.062 278.483 492.062L279.679 495.295C280.973 486.082 280.326 476.838 280.455 467.561C280.455 465.654 282.525 462.519 279.679 463.198V463.165ZM102.042 463.941C100.684 464.167 94.2821 463.65 93.9911 463.941C93.7971 464.135 94.1528 468.014 93.6354 469.63C92.8594 472.086 89.6585 472.862 90.7578 477.064C90.9841 477.937 92.8271 477.614 93.2151 479.618C93.7971 482.721 91.8248 495.133 94.5085 496.006C96.6424 496.717 100.425 495.747 102.85 496.135L102.042 464.006V463.941ZM289.347 463.941C289.088 463.65 283.365 464.135 282.104 463.941L281.296 496.07H289.347L290.123 478.777C290.22 476.838 292.515 477.452 292.645 475.61C292.903 472.216 290.123 471.634 289.508 469.016C289.185 467.723 289.509 464.135 289.347 463.941ZM-120.667 476.062L-188.114 464.749V467.141C-165.966 469.307 -143.688 475.61 -121.734 478.357C-120.021 478.583 -120.182 476.773 -120.635 476.062H-120.667ZM168.777 465.557H154.324V467.173H168.777V465.557ZM232.247 465.557H216.986V467.173H232.247V465.557ZM579.503 465.557C557.161 469.371 534.043 471.311 511.797 475.416C509.567 475.836 509.276 475.998 509.599 478.389C531.747 473.67 555.415 472.41 577.498 467.917C578.921 467.626 579.761 467.173 579.535 465.525L579.503 465.557ZM388.189 472.798C389.644 470.955 383.565 466.527 381.787 466.365C380.59 467.561 387.057 472.377 388.189 472.798ZM-120.603 481.622L-122.64 479.262L-188.89 467.981V470.373L-120.57 481.622H-120.603ZM169.553 467.981H154.292V469.598H169.553V467.981ZM232.247 467.981H216.986V469.598H232.247V467.981ZM579.503 468.789L509.567 479.23V482.43L579.503 471.181C579.406 470.535 579.664 468.951 579.503 468.789ZM124.578 475.189C127.262 474.123 125.871 471.537 125.354 469.565C123.576 469.985 124.966 473.832 124.578 475.189ZM384.179 472.798C384.858 472.119 382.854 469.759 381.787 469.598C380.978 471.214 383.242 473.767 384.179 472.798ZM232.247 470.373H217.794V472.798H232.247V470.373ZM-1.61742 471.181L-118.501 471.957L-118.986 474.381C-79.8308 474.478 -40.6756 474.511 -1.61742 473.573V471.181ZM123.737 475.998C123.964 474.866 123.737 471.181 122.541 471.181H106.051V475.998H123.737ZM168.777 471.181H154.324V472.798H168.777V471.181ZM278.871 471.181C278.321 470.6 265.032 471.602 262.801 471.181V475.998H277.675C278.839 475.998 279.291 471.602 278.871 471.181ZM-120.603 483.238L-188.114 471.99V488.054L-120.603 500.919V483.238ZM306.225 471.99C305.804 471.569 296.201 472.442 295.813 472.83C295.393 473.25 296.007 478.68 295.781 480.038H306.225V471.99ZM389.805 474.414H507.95L506.754 472.798C467.986 471.117 429.09 472.377 390.258 471.99L389.773 474.414H389.805ZM86.7809 472.798H77.1133V480.038H86.7809V472.798ZM89.4322 478.196C88.7855 476.45 89.3029 474.608 89.1735 472.798C87.7832 473.153 88.1712 477.905 88.3652 478.842C88.7532 480.943 90.6285 480.135 90.8548 482.01C91.4045 486.729 91.3721 494.583 91.5661 499.723C91.7601 505.186 91.1135 510.777 91.9865 516.175C94.9287 512.038 92.4391 505.8 92.3745 501.339C92.2128 493.937 93.6678 485.792 90.6932 479.068C90.4345 478.519 89.4969 478.357 89.4322 478.163V478.196ZM294.132 480.814L294.94 472.798C293.033 473.153 294.779 477.711 294.067 478.389C293.776 478.68 292.354 478.325 291.707 478.454L294.1 480.846L294.132 480.814ZM388.189 476.806C389.062 475.222 385.925 471.796 384.988 472.798C384.212 473.606 387.057 476.418 388.189 476.806ZM519.202 481.622C517.844 481.848 516.906 482.398 516.777 482.43C516.033 482.559 515.063 482.268 514.352 482.43C513.155 482.688 512.703 483.012 511.927 483.238C511.216 483.432 509.728 482.688 509.47 483.691L509.534 500.919L579.47 488.054V472.798C559.359 475.448 539.248 478.486 519.202 481.622ZM169.553 473.606H154.292V475.222H169.553V473.606ZM232.247 473.606H216.986V475.222H232.247V473.606ZM384.988 497.687C382.692 496.523 381.205 494.745 379.006 494.422H311.851V500.887H387.413C386.734 499.755 385.828 498.689 384.988 497.654C385.667 498.01 388.771 499.529 388.997 499.27C388.286 495.036 390.323 480.555 388.189 478.002C387.445 477.097 383.242 473.929 381.754 473.573V494.066C381.754 494.293 384.276 496.814 384.955 497.687H384.988ZM-118.986 478.422H-6.85536C-5.98237 478.422 -3.3634 476.838 -1.61742 477.614V475.222C-40.7726 475.093 -79.7985 476.612 -118.986 476.03V478.422ZM125.354 478.002C125.58 482.947 125.192 487.925 125.354 492.87C127.65 493.355 127.003 491.771 127.003 490.026C127.003 485.63 125.386 480.652 126.162 475.998C123.058 475.642 125.322 477.226 125.354 478.002ZM232.247 475.998H216.986V477.614H232.247V475.998ZM258.792 508.935C258.307 508.289 256.141 508.127 255.236 508.095H128.943L127.003 509.743V493.678H126.195V510.551H257.628C258.954 511.068 259.18 509.452 258.825 508.935C258.825 509.032 259.924 510.777 260.409 510.551L261.217 476.03L259.633 483.658C260.441 491.836 257.661 500.951 258.825 508.967L258.792 508.935ZM507.95 475.998H389.805C389.708 477.872 389.514 477.42 391.002 477.614C398.277 478.551 408.267 477.387 415.963 477.581C418.064 477.646 420.037 478.422 422.332 478.454C450.688 479.004 479.141 477.969 507.497 478.454L507.982 476.03L507.95 475.998ZM123.737 482.43C123.867 481.299 123.964 476.806 122.541 476.806H106.051V482.43H123.737ZM168.777 476.806H154.324V477.614H168.777V476.806ZM278.871 476.806H263.189C261.767 476.806 261.864 481.299 261.993 482.43H278.871V476.806ZM-118.986 482.43H-2.84605C-1.97306 482.43 -1.29409 480.103 -1.64975 479.23C-40.7726 479.23 -79.8308 480.587 -118.986 480.038V482.43ZM168.777 479.23H154.324V480.846H168.777V479.23ZM232.247 479.23H216.986V480.846H232.247V479.23ZM389.805 482.43H507.95V480.038C500.319 479.844 492.656 480.264 484.994 480.038C482.86 479.973 480.92 479.198 478.624 479.165C449.039 478.519 419.358 479.715 389.773 479.198C389.902 479.973 389.579 482.204 389.773 482.398L389.805 482.43ZM292.548 480.846C291.545 479.553 291.093 480.846 290.931 482.042C290.187 487.925 291.093 495.941 290.964 502.179C290.867 506.382 288.409 512.297 291.351 516.208L292.548 480.878V480.846ZM89.1735 481.622H73.9124L72.2957 517.759H90.7902L89.1735 481.622ZM169.553 481.622H154.292V483.238H169.553V481.622ZM232.247 481.622H217.794V483.238H232.247V481.622ZM293.356 517.792H311.042L309.426 481.654C304.285 481.234 299.305 483.012 294.132 482.462L293.324 517.824L293.356 517.792ZM-2.42574 483.238L-118.986 484.046V500.919H-2.42574V483.238ZM124.546 488.862C124.675 487.731 124.772 483.238 123.349 483.238H106.084C105.954 484.369 105.857 488.862 107.28 488.862H124.546ZM507.95 484.046L389.805 483.238V500.919H507.95V484.046ZM169.553 484.854H153.484V486.47H169.553V484.854ZM232.247 484.854H216.986V486.47H232.247V484.854ZM169.553 487.246H154.68C154.68 487.246 153.419 488.345 153.484 488.862H169.553V487.246ZM232.247 487.246H216.986V488.862H232.247V487.246ZM-122.219 502.535L-191.315 489.67V492.87L-122.607 505.735C-121.896 505.735 -122.09 502.632 -122.219 502.535ZM124.546 489.67H106.051C105.922 490.802 105.825 495.295 107.248 495.295H124.513V489.67H124.546ZM169.553 489.67H154.292V490.478H169.553V489.67ZM581.895 489.67L511.151 501.727V505.735L581.378 492.903L581.895 489.67ZM-141.49 523.416H70.7114C70.7114 523.416 70.8731 520.216 70.7114 520.216H-140.681C-140.681 520.216 -140.164 518.018 -141.166 517.759C-155.652 514.753 -171.85 512.814 -186.012 508.87C-186.53 508.741 -188.793 508.256 -187.694 507.319L-141.102 516.984H70.7114L70.2587 513.719L-119.374 514.527L-187.306 501.307C-190.991 500.466 -189.149 497.299 -189.698 495.036C-189.763 494.745 -193.093 492.127 -193.319 490.478L-214.627 501.695C-207.223 503.214 -198.816 504.377 -191.573 506.414C-190.216 506.802 -189.31 505.8 -189.731 508.127C-193.481 506.285 -217.246 503.182 -218.669 501.695C-219.897 500.402 -218.151 500.272 -217.634 499.917C-215.759 498.624 -212.719 498.042 -211.458 496.103L-222.71 501.695C-213.301 504.604 -202.728 505.412 -193.352 508.095C-192.252 508.418 -190.862 508.192 -190.571 509.743L-223.906 502.503C-224.747 502.503 -224.488 505.735 -223.518 506.155L-143.527 523.416L-143.106 519.408L-189.731 510.551C-189.666 509.614 -190.41 508.838 -188.696 509.129C-178.511 510.874 -167.582 513.428 -157.398 515.626C-155.07 516.143 -143.009 518.406 -142.266 518.988C-140.811 520.119 -141.748 523.125 -141.49 523.416ZM128.587 502.503H257.984V493.646C254.363 493.355 251.323 494.81 248.801 491.965H137.77C135.248 494.81 132.176 493.355 128.587 493.646V502.503ZM-120.667 507.416L-188.082 494.487C-187.985 496.394 -188.858 499.141 -186.724 499.949C-176.151 502.082 -165.481 503.796 -154.94 505.929C-152.289 506.478 -149.638 506.996 -146.922 507.545C-138.256 509.226 -129.624 511.165 -120.991 512.975C-120.312 512.943 -120.409 507.707 -120.667 507.416ZM7.20949 495.295C5.81917 495.618 2.58586 499.561 1.58354 500.919H71.0347L71.4874 495.295H7.17715H7.20949ZM579.503 495.295L510.892 506.672C508.661 507.384 509.793 511.844 509.567 513.784L577.918 500.531C580.57 500.272 579.244 497.363 579.47 495.295H579.503ZM105.243 502.503L104.855 496.07C103.303 497.04 104.273 497.784 104.305 498.947C104.338 499.917 103.95 502.664 105.243 502.503ZM124.546 496.103H106.86L107.668 522.608H124.546V496.103ZM277.287 496.103H262.413C262.413 496.103 261.217 497.234 261.217 497.299V521.8H276.478L277.287 496.103ZM102.85 496.911C100.846 496.943 98.8087 496.814 96.8041 496.911C95.8341 496.943 93.8295 496.297 93.9911 497.719C95.9958 497.687 98.0327 497.816 100.037 497.719C101.007 497.687 103.012 498.333 102.85 496.911ZM279.679 502.503V496.878H278.903V502.503H279.679ZM289.314 496.911C287.568 496.943 285.823 496.814 284.077 496.911C283.107 496.943 281.102 496.297 281.264 497.719C283.01 497.687 284.756 497.816 286.502 497.719C287.472 497.687 289.476 498.333 289.314 496.911ZM103.659 498.495H93.9911V504.119C99.4877 503.796 104.952 506.381 103.659 498.495ZM289.347 498.495H280.488C279.291 505.994 283.818 503.99 289.347 504.119V498.495ZM-121.411 505.735H-1.64975V501.727C-5.8207 501.016 -10.1856 502.438 -14.0656 502.567C-49.7612 503.666 -85.6831 501.662 -121.411 502.567C-121.282 503.343 -121.605 505.573 -121.411 505.767V505.735ZM71.5197 502.503H-0.809097C-1.13243 502.503 0.710545 507.319 -3.62207 507.319H-118.954V512.943L70.2587 512.2C71.1964 512.038 71.7784 503.925 71.5197 502.503ZM388.997 502.503H311.851C312.077 504.248 311.042 513.751 313.047 513.751H507.95V507.319H388.997C388.771 507.319 389.256 502.761 388.997 502.503ZM509.567 502.503H389.805C389.805 502.503 389.644 505.703 389.805 505.703H509.567C509.567 505.703 509.664 502.6 509.567 502.503ZM615.651 503.311L532.588 519.343L532.07 523.384L615.134 506.543L615.651 503.311ZM257.984 504.119H127.779C127.456 505.056 128.135 507.319 128.975 507.319H257.984C257.984 507.319 258.081 504.216 257.984 504.119ZM103.659 505.735H93.9911V511.359H103.659V505.735ZM289.347 505.735C283.98 505.864 279.065 504.28 280.488 511.359H289.347V505.735ZM258.792 511.359H126.971C126.712 512.426 127.132 515.367 128.167 515.367H258.792V511.359ZM103.659 512.167C101.654 512.2 99.6171 512.07 97.6124 512.167C96.6424 512.2 94.6378 511.553 94.7994 512.975C96.8041 512.943 98.8411 513.072 100.846 512.975C101.816 512.943 103.82 513.59 103.659 512.167ZM103.659 513.751C101.395 514.139 96.5454 513.04 94.7671 514.139C93.7971 514.753 94.6701 519.149 94.8641 519.343C95.3168 519.796 102.139 519.117 103.659 519.408V513.784V513.751ZM106.051 516.984V513.784H105.275V516.984H106.051ZM288.474 519.343C288.668 519.149 289.541 514.753 288.571 514.139C286.89 513.105 282.622 514.107 280.488 513.751V519.375C281.91 519.117 288.053 519.763 288.474 519.311V519.343ZM259.6 522.608C259.536 521.573 259.665 516.175 258.404 516.175H126.971V517.792H257.984V518.6H126.162V522.608H259.6ZM89.9818 518.567H72.2957V519.375H89.9818V518.567ZM93.2151 523.384L92.8271 519.375C91.2105 520.798 90.6285 524.095 93.2151 523.384ZM291.739 525.808C291.642 524.03 292.257 520.216 290.155 519.375L291.739 525.808ZM530.454 519.375H312.627V523.384H530.454V519.375ZM104.467 520.184C102.204 520.248 99.9081 520.087 97.6447 520.184C96.6748 520.216 94.6701 519.569 94.8318 520.992C97.0951 520.927 99.3907 521.089 101.654 520.992C102.624 520.959 104.629 521.606 104.467 520.184ZM288.506 520.184C286.502 520.216 284.465 520.087 282.46 520.184C281.49 520.216 279.485 519.569 279.647 520.992C281.652 520.959 283.689 521.089 285.693 520.992C286.663 520.959 288.668 521.606 288.506 520.184ZM90.7902 520.992H72.2957V526.616H90.7902V520.992ZM278.063 539.448L278.871 520.992L277.254 531.012L278.095 539.481L278.063 539.448ZM311.042 520.992H292.548V526.616H311.042V520.992ZM104.467 522.608L94.8318 521.8L95.6401 542.681H105.275C105.76 541.549 104.467 540.289 104.467 539.868V522.608ZM106.86 521.8H105.243C104.435 523.513 106.051 526.131 106.051 527.036V539.481H106.86V521.8ZM276.478 540.677C275.444 535.828 277.222 527.844 276.478 522.608C275.896 522.382 275.508 523.416 275.282 523.416H107.7C107.571 529.137 109.737 535.149 107.83 540.773C107.442 541.905 105.599 542.228 105.987 544.135L95.6401 544.264C95.5431 551.052 97.1921 557.937 96.4484 564.757C96.3514 565.792 94.4438 572.386 94.0235 572.386H69.0948V553.121L67.2841 554.155L56.2262 576.426H327.112L314.243 549.113C312.853 549.113 313.37 552.636 313.403 553.574C313.758 559.78 314.922 566.018 314.146 572.321C313.241 573.388 292.03 573.776 290.123 572.806C285.37 570.446 286.857 549.372 287.73 544.297C284.044 544.167 277.513 545.622 276.478 540.677ZM279.679 522.608V539.868C279.679 540.289 278.418 541.549 278.871 542.681H287.698L288.506 522.608H279.647H279.679ZM90.7902 527.424H72.2957V528.232H90.7902V527.424ZM92.4068 533.048C94.6701 532.273 93.9588 529.396 93.9911 527.424C91.7278 528.2 92.4391 531.077 92.4068 533.048ZM290.931 533.856C290.866 532.079 291.449 528.264 289.347 527.424C289.412 529.202 288.83 533.016 290.931 533.856ZM311.042 527.424H292.548V528.232H311.042V527.424ZM90.7902 529.816H72.2957V534.632H90.7902V529.816ZM311.042 529.816H292.548V535.44H311.042V529.816ZM93.1828 541.872L93.9911 535.44C92.3745 535.699 91.4368 541.388 93.1828 541.872ZM90.7902 536.248H71.4874V537.056H90.7902V536.248ZM290.931 541.872C290.866 540.321 291.222 536.765 289.347 536.248C289.379 538.155 288.668 541.064 290.931 541.872ZM71.5197 544.297H90.4022C92.0835 544.297 92.0835 537.864 90.4022 537.864H71.5197V544.297ZM311.851 538.672H291.772C291.642 539.804 291.545 544.297 292.968 544.297H311.851V538.672ZM290.123 563.174C290.64 558.099 290.123 551.602 290.123 546.301C290.123 545.913 289.12 543.844 288.506 544.297V567.602H289.314C288.668 565.953 290.026 564.208 290.123 563.174ZM91.5985 545.105H71.5197V545.913H91.5985V545.105ZM311.851 545.105H291.772V545.913H311.851V545.105ZM94.7994 545.881H93.1828V569.186C93.7971 569.638 94.7994 567.57 94.7994 567.182V545.881ZM91.5985 547.497H71.5197L70.7114 571.61H91.2105C93.7648 571.61 91.6308 563.335 91.5661 561.59C91.4045 556.903 91.7278 552.184 91.5985 547.497ZM311.851 547.497H291.772L290.964 571.61H312.659L311.851 547.497Z" fill="url(#paint0_radial_324_845)"/>
<defs>
<radialGradient id="paint0_radial_324_845" cx="0" cy="0" r="1" gradientUnits="userSpaceOnUse" gradientTransform="translate(195.763 292.253) rotate(90) scale(292.253 421.763)">
<stop stop-color="#E9E9E9"/>
<stop offset="0.701923" stop-color="white"/>
<stop offset="1" stop-color="#BCBCBC"/>
</radialGradient>
</defs>
</svg>
